<svg width="195" height="249" fill="none" xmlns="http://www.w3.org/2000/svg"><path d="M120.013 79.911c6.324 9.862 39.326 15.057 46.798 21.976 4.731 5.575 19.716 55.964 19.318 63.536 2.384 4.982 3.133 8.738 2.538 12.144l4.732 4.732c2.282 16.007-.422 24.763-7.27 27.485" stroke="#fff" stroke-miterlimit="10"/><path d="M154.774 199.608c-2.592 9.261 7.109 12.322 10.842 14.908 11.805-1.641 20.465-.149 18.177-14.938m4.281 3.638s1.189 8.524-7.543 8.471m-14.914 2.829c1.938-5.177 10.01-9.611 7.716-31.967M119.109 77.338c-2.996 5.456-7.323 9.73-12.744 13.041 9.308 4.732 4.03 9.314 7.37 13.047 2.289-6.324 11.051-11.995 5.374-26.088zm2.391 5.474c4.779 31.123 15.829 70.414 20.459 95.011M78.28 75.31c-2.444 6.973-11.597 11.692-13.541 17.964 2.14 1.105 3.816 1.587 5.884 2.133" stroke="#fff" stroke-miterlimit="10"/><path d="M73.203 93.172c-2.675 2.657-6.075 4.773-9.909 6.569 14.873 26.374 27.95 54.828 41.235 89.643" stroke="#fff" stroke-miterlimit="10"/><path d="M78.125 75.715c-1.796 5.528.642 11.288 1.997 15.966 12.756 38.262 23.568 83.063 26.808 116.374m14.634-124.809c3.062 2.954 7.954 5.094 11.484 7.733l-2.187 4.773" stroke="#fff" stroke-miterlimit="10"/><path d="M127.314 94.362l14.058 5.468c-1.807 24.924-1.314 48.903-.333 73.82M79.624 72.957c-1.445 8.363 13.642 9.504 24.246 18.575" stroke="#fff" stroke-miterlimit="10"/><path d="M103.869 91.532c-7.763 4.88-3.881 11.104-7.62 16.632-5.427-5.082-8.215-10.462-14.688-16.133-1.54-6.526-6.075-10.556-1.938-19.068m29.649 19.229l-7.014.5" stroke="#fff" stroke-miterlimit="10"/><path d="M112.435 99.984a6.83 6.83 0 00-2.539 2.497c-2.74 1.23-5.492 1.51-8.268.351-.862-1.005-1.926-1.748-3.24-2.17m11.514 1.819c8.275 40.456 14.421 100.503 18.772 144.246m-27.04-143.895c-1.991 9.463 6.063 72.155 9.065 106.839m54.815-104.902c4.678 7.573 4.75 23.266 4.381 43.719M72.37 83.573c-18.985 10.105-21.88 13.529-32.829 17.464" stroke="#fff" stroke-miterlimit="10"/><path d="M50.39 96.085c-17.958 4.233-23.552 2.467-22.107 17.952-5.534 8.446-8.233 15.234-8.916 21.708M7.871 168.61c1.177-9.707 4.428-20.383 11.502-32.865m-7.519 25.791C4.733 175.178 1.797 183.345 1 203.263c4.797 10.04 9.588 10.456 19.473 9.856m14.385-110.638c3.887 5.029 7.805 34.286 9.368 55.37m.001 0c3.483 21.809 5.076 18.129 9.058 38.696m-7.311-28.984s-6.759 8.976-10.081 23.509m-15.419 22.053c22.308 7.317 37.495 16.329 58.454 24.104-4.131-8.168 2.889-26.19 9.861-32.015m.001-.006c-4.203-1.593-9.125-2.657-15.337-2.788-4.511-2.966-11.59-3.24-20.162-1.944" stroke="#fff" stroke-miterlimit="10"/><path d="M59.413 199.816l-7.228-3.228-4.53-.095s-11.258-6.574-21.91-6.473m52.504 35.742l13.529 8.673 4.19.154" stroke="#fff" stroke-miterlimit="10"/><path d="M91.025 230.595c4.036 3.15 7.608 5.998 10.503 9.612 1.837.493 3.317-1.183 4.232-2.74-.451-2.39-3.887-5.326-5.379-7.668" stroke="#fff" stroke-miterlimit="10"/><path d="M104.417 225.019l5.325 6.628c.369.677.304 1.266.101 1.843-.445 1.355-1.337 2.371-2.585 3.132-.642.244-1.278.125-1.896-.291" stroke="#fff" stroke-miterlimit="10"/><path d="M108.154 219.396l4.927 7.168.446 1.594c-.202 1.634-.79 2.93-1.836 3.833l-1.813-.065" stroke="#fff" stroke-miterlimit="10"/><path d="M109.849 212.923c2.812 2.687 4.862 5.213 6.319 7.62.802 2.093-.577 3.924-3.032 4.334l-1.397-.196m-24.014-18.499c5.2-.089 10.473-3.566 15.597-.273 2.562 1.855 6.051 3.436 10.307 4.779" stroke="#fff" stroke-miterlimit="10"/><path d="M113.367 210.599c1.813.446 4.945-.559 5.688-.214.256 3.935-1.789 5.457-6.277 5.593M79.42 237.87s3.56-3.269 4.381-8.547m89.579-33.204c-2.033 2.104-3.662 4.66-4.982 7.537-.963 2.295-3.733 5.279-6.473 6.723-3.899-2.253-7.269-6.919-7.168-11.454m8.701-23.718l7.139-12.72c.701-1.991.095-2.859-2.289-2.193l-16.59 6.158c-1.397.564-2.383 1.313-2.93 2.253l-5.356 9.932" stroke="#fff" stroke-miterlimit="10"/><path d="M165.67 204.856c-3.12-1.123-5.878-3.376-8.619-5.926-5.48-.672-13.196-2.538-17.131-3.881-3.334-5.005-7.269-7.977-4.469-11.603" stroke="#fff" stroke-miterlimit="10"/><path d="M150.733 194.55l-8.12-1.54c-4.731-3.192-6.669-8.964-8.363-11.906-.107-2.039.553-3.014 2.437-2.241" stroke="#fff" stroke-miterlimit="10"/><path d="M158.346 190.864c-3.65-.588-7.074-.547-10.361-1.545-3.667-3.638-9.112-7.169-11.008-8.91-.767-3.775 1.058-4.649 5.979-2.093 4.334 2.984 8.37 4.827 13.945 5.528m6.82.095c-4.434-1.147-5.427-6.919-9.611-9.403-.606-4.827 4.577-4.583 7.965-.898l3.483 3.983c1.058.291 2.128.291 3.186-.149" stroke="#fff" stroke-miterlimit="10"/><path d="M164.72 175.725c-.024-2.437.826-4.797 2.514-7.092 1.189 2.408 3.162 3.216 5.249 4.756 1.468 5.825.743 12.399-.393 19.122m-28.283 3.703c3.305 19.931 8.862 37.228 9.909 59.786m13.547-41.698s6.663 21.577 9.903 38.054M53.19 226.351l-2.1 25.655m60.603-20.008l-.202 14.533 7.769 8.518 9.623-8.827m-21.62-9.594s.796 12.697.796 16.68m19.746-15.283l8.578-2.491-2.485-10.658-7.228 1.962" stroke="#fff" stroke-miterlimit="10"/><path d="M128.227 239.987l10.313-3.365-2.609-12.554-.381-1.83-8.684 2.645m8.951-1.362c3.995-.725 8.453-.838 13.404-.297m-10.871 12.501c4.333-.946 8.679-1.165 13.041-.957m-16.993-7.752s-3.709-.231-7.632.779m.915 9.041s2.247-.238 3.787.125M85.347 102.13s7.222 8.566 13.695 36.253m23.253 7.716s1.45 11.656 7.917 22.213m-6.228 33.103s6.063 14.516 6.806 22.273m8.34-.618c-1.896-18.267-12.149-31.356-15.044-48.79m1.699 19.627c1.189 0 2.164-1.075 2.164-2.389 0-1.32-.975-2.39-2.164-2.39-1.195 0-2.17 1.07-2.17 2.39 0 1.308.975 2.389 2.17 2.389zm13.236 16.276c.963 4.238 3.49 6.622 2.889 12.714m1.648-8.179c1.426 2.538 1.795 5.302 1.539 8.197M2.695 199.929c2.693-6.919 9.725-7.959 15.937-11.05m-11.51-3.24c10.694-6.158 17.874-13.843 32.069-18.474m-17.528 24.847s-7.275 5.028-10.901 12.149m162.57-21.613c4.523-3.435 11.454-1.195 18.028-.297m-3.286 2.241s4.327 2.758 6.116 8.274m-45.253 8.406s2.888 10.752 6.52 19.163m15.569-10.628c1.123-.273 2.193.161 2.395.975.202.814-.541 1.7-1.664 1.973-1.123.274-2.193-.16-2.395-.968-.203-.821.546-1.706 1.664-1.98zm-25.828 2.217c-4.131-10.057-10.158-12.845-15.431-29.078M85.603 64.837c6.575 7.18 18.725 14.242 23.949 11.953 10.807-5.224 15.235-8.963 15.431-30.13m-45.711 9.766c.993 8.054 4.393 14.337 10.206 18.873m29.239 2.734s-.534-6.628 2.14-9.713m-41.3 5.148c-.13-9.327-2.472-15.853-1.278-26.458" stroke="#fff" stroke-miterlimit="10"/><path d="M76.531 41.637c-2.306-2.942-4.113-3.21-5.076.993 1.896 11.264 2.092 16.037 6.753 15.996m47.619-14.878c2.306-2.943 4.113-3.21 5.076.992-1.896 11.264-2.092 16.037-6.753 15.996" stroke="#fff" stroke-miterlimit="10"/><path d="M73.442 39.462C69.614 24.019 71.997 12.065 87.69 7.577c10.265-9.825 21.642-8.625 34.107 3.484.303.636.374 1.266.166 1.89 12.899 7.442 11.639 18.926 6.961 28.615" stroke="#fff" stroke-miterlimit="10"/><path d="M125.232 44.722c.387-9.89-1.195-18.462-4.125-25.245-11.116-3.584-22.249-3.94-33.418-1.39-2.366 3.685-3.453 8.149-3.632 13.142-1.682.41-3.043 2.2-4.184 4.981l-.494 11.502c.072-3.02-1.105-5.683-2.936-8.167M61.4 104.627s-6.474 5.124-11.853 15.187m62.642-5.361l-9.587 13.968m15.158 21.762l-11.246 16.275m15.77 19.799l-12.06 15.942m16.054 20.835l-14.712 17.69m1.283-122.223L103 132.773m15.201 21.814l-11.246 15.966m15.835 20.109l-12.203 15.556m15.948 20.59l-15.044 19.723m.077-5.807l-4.001 1.076m38.671-99.582l18.135-7.306v3.769l-18.135 6.354v-2.817z" stroke="#fff" stroke-miterlimit="10"/></svg>