<svg width="339" height="219" fill="none" xmlns="http://www.w3.org/2000/svg"><path d="M271.461 218.964c-.421-.231-.889-.183-1.346-.207-1.346-.059-2.526-.51-3.582-1.358-8.384-6.724-16.734-13.49-24.94-20.428a28.338 28.338 0 01-1.513-1.406c-.717-.705-1.055-1.577-1.114-2.573-.054-.89.1-1.091.966-1.21a18.23 18.23 0 011.601-.142c2.254-.083 4.507-.095 6.766-.202 3.819-.184 7.644-.184 11.468-.332 4.928-.19 9.862-.326 14.789-.486 4.471-.142 8.943-.308 13.414-.451 2.407-.077 4.815-.166 7.222-.207 1.607-.03 1.607-.03 2.947.587-.735-1.246-2.105-1.975-3.878-2.052-1.298-.059-2.597-.071-3.896-.178-1.808-.154-3.563-.504-5.259-1.115-2.147-.771-4.359-1.061-6.618-1.281-2.449-.237-4.892-.136-7.335-.231-5.503-.213-11.018-.095-16.521-.278-4.702-.155-9.41-.024-14.107-.214-4.933-.202-9.867-.036-14.801-.237-4.743-.19-9.487-.059-14.225-.225-2.105-.072-4.204-.143-6.31-.143-1.18 0-1.227.077-1.043 1.275.308 1.998.308 2.004 2.318 2.325l25.481 4.038c1.85.29 3.706.539 5.55.86 1.216.213 1.749 1.132 1.423 2.265-.136.474-.456.765-.865 1.02a6104.651 6104.651 0 00-13.532 8.438 9712.419 9712.419 0 00-14.588 9.138c-.747.468-1.5.925-2.342 1.203-.403.137-.741.38-1.079.641-1.026.789-2.2 1.02-3.469.824a24195.01 24195.01 0 00-20.517-3.107 9333.115 9333.115 0 00-17.914-2.686c-6.316-.943-12.625-1.874-18.94-2.817-6.991-1.044-13.983-2.105-20.98-3.143-5.894-.877-11.8-1.719-17.694-2.633-1.738-.266-3.493-.379-5.23-.622-.226-.03-.451-.077-.676-.113-3.114-.492-4.798-2.413-5.503-5.396-.925-3.943-1.91-7.881-2.876-11.818-.368-1.512-.38-1.506-1.993-1.524-2.87-.024-5.74.035-8.604-.089-4.933-.214-9.867-.036-14.8-.237-4.745-.19-9.488-.03-14.226-.226-4.128-.172-8.26-.077-12.388-.207-1.05-.03-1.91.261-2.775.836A14373.802 14373.802 0 019.69 201.507c-.415.273-9.185 5.823-9.689 5.924v-.919c.967-.392 10.17-6.256 11.03-6.819a9806.784 9806.784 0 0026.713-17.648c.872-.581 1.732-.842 2.781-.818 3.291.071 6.582-.018 9.868.107 5.158.195 10.33.047 15.482.249 4.513.178 9.026.041 13.538.207 3.783.143 7.572.155 11.356.184 1.358.012 1.375-.018 1.043-1.358-2.455-9.991-4.921-19.977-7.376-29.963-1.655-6.719-3.303-13.443-4.946-20.167-.332-1.376-.806-2.71-1.014-4.122-.278-1.862.658-3.225 2.514-3.599 1.358-.273 2.746-.356 4.11-.184 1.713.214 3.433.214 5.147.326 3.967.261 7.94.362 11.913.546 4.809.225 9.624.445 14.427.717 2.9.16 5.805.267 8.699.451 2.022.13 4.056.089 6.066.326.635.077.991-.089 1.222-.711.676-1.791 1.429-3.546 2.099-5.337.308-.819.575-1.672.724-2.532.391-2.307 1.043-4.543 1.737-6.772.457-1.465.575-3.007.967-4.483 1.025-3.854 2.532-7.537 4.239-11.13.742-1.554 1.53-3.084 2.123-4.703.629-1.701 1.495-3.261 2.746-4.595 1.103-1.168 2.164-2.378 3.273-3.534 1.601-1.673 3.617-2.544 5.87-2.865 2.503-.355 4.922-1.108 7.425-1.452.652-.09.753-.534.854-1.038.32-1.59.367-3.202.177-4.797-.172-1.435-.059-2.829.238-4.216.397-1.874.699-3.76.984-5.646.296-1.968 1.014-3.842 1.429-5.787.053-.255.154-.54.32-.73 1.18-1.31 1.121-2.953 1.198-4.542.125-2.555.178-5.117.267-7.679.107-3.036.658-6 1.417-8.93.89-3.445 1.53-6.944 2.295-10.413.717-3.238 2.117-6.232 3.926-9.001 3.801-5.817 9.019-9.927 15.447-12.494C194.872.546 197.54.065 200.297.178c1.044.041 2.064.202 2.977.735.374.22.67.309 1.008-.041.469-.492 1.145-.6 1.726-.872h2.982c6.422 1.637 10.662 5.96 13.787 11.486 2.853 5.046 4.928 10.442 6.422 16.046 2.052 7.697 3.386 15.536 4.43 23.429.634 4.785.824 9.594.848 14.415.018 3.944.19 7.875.516 11.8.012.155.023.303.047.457.178 1.287.243 1.34 1.554 1.524 2.123.297 4.198.842 6.274 1.352 2.976.724 6.048.901 9.025 1.613a35.3 35.3 0 015.769 1.886c2.947 1.257 4.709 3.498 5.705 6.499 2.467 7.448 4.572 15.002 6.671 22.551.866 3.107 1.88 6.131 3.155 9.084.895 2.076 1.328 4.311 2.188 6.405 1.482 3.611 2.911 7.24 4.204 10.916.29.831.741 1.59 1.18 2.36.54.949.451 1.489-.35 2.236-.824.765-1.832 1.239-2.823 1.737-.93.469-.966.51-.622 1.495 1.227 3.54 2.461 7.08 3.712 10.614.901 2.538 2.532 4.53 4.732 6.043 3.469 2.389 6.861 4.868 9.885 7.827.136.136.279.261.433.379.664.516.83.528 1.5.006 1.358-1.061 2.716-2.117 4.05-3.202 1.139-.931 2.378-1.69 3.807-2.051.676-.172.907-.534 1.02-1.18.955-5.616 1.963-11.226 2.912-16.841.551-3.244 1.197-6.464 1.63-9.725.16-1.21 1.192-1.85 2.568-1.684 1.215.142 1.808.836 1.631 2.158-.362 2.692-.813 5.367-1.234 8.047a9395.53 9395.53 0 01-2.84 18.015c-.113.706-.018 1.287.658 1.666.196.113.397.261.522.445 1.115 1.637 2.858 2.188 4.613 2.728.255.077.51.172.765.249 2.218.67 3.356 2.229 3.475 4.471.113 2.212.949 4.026 2.413 5.663a19.412 19.412 0 012.805 4.044c.35.682.795.978 1.536.901.19-.018.38 0 .575 0 8.183.101 23.411.338 31.6.439v.688c-.225.024-7.501-.059-7.726-.059-3.825-.024-7.656.035-11.474-.113-4.169-.166-8.338-.083-12.506-.172-1.109-.024-1.127 0-1.412 1.055-.207.765-.545 1.441-1.198 1.904-.604.427-.871.966-.96 1.72-.143 1.197-.552 2.312-1.666 3.006-1.37.848-2.752 1.672-4.24 2.277-1.969.795-3.825.534-5.491-.818-.564-.457-1.139-.908-1.667-1.406-.504-.474-1.014-.599-1.672-.35-.96.362-1.951.297-2.947.143-.397-.065-.931-.35-1.138.13-.25.593.409.724.77.925 9.103 5.035 18.217 10.057 27.325 15.08 1.073.593 2.153 1.162 3.19 1.814.771.481.848 1.014.297 1.726-1.026 1.328-2.319 2.158-4.068 2.265-1.91.119-3.819.136-5.728.231-4.922.261-9.844.57-14.766.831-3.741.195-7.489.308-11.225.545-1.601.101-3.208.131-4.809.225a538.42 538.42 0 01-14.202.659c-1.796.059-3.593.142-5.384.231-.261.012-.522.107-.777.16-1.589-.036-3.196-.036-4.803-.036zm-64.534-7.299a13.641 13.641 0 00-.142-2.402c-.582-3.854-1.133-7.714-1.696-11.575-.807-5.562-1.607-11.124-2.414-16.68-.8-5.521-1.613-11.048-2.419-16.568-.884-6.055-1.767-12.103-2.639-18.157-.522-3.629-1.121-7.253-1.548-10.899-.154-1.329-.516-2.627-1.025-3.873-.41-1.002-1.109-1.725-2.088-2.188-1.091-.516-2.253-.699-3.451-.753a598.429 598.429 0 01-6.416-.29c-3.7-.196-7.4-.421-11.107-.605-3.931-.196-7.868-.308-11.8-.552-1.642-.1-3.285-.13-4.928-.225-3.741-.213-7.477-.421-11.219-.611-2.289-.118-4.589-.13-6.872-.314-1.607-.124-3.208-.13-4.809-.219-3.701-.208-7.401-.421-11.107-.611-2.408-.125-4.815-.142-7.217-.32-1.607-.119-3.208-.131-4.809-.22-3.623-.207-7.246-.421-10.875-.605-2.366-.118-4.744-.112-7.104-.32-2.058-.178-4.127-.107-6.185-.338-1.328-.148-2.674-.107-3.996.196-1.382.314-1.993 1.21-1.756 2.603.125.718.285 1.423.463 2.129 2.911 11.883 5.829 23.767 8.74 35.65 2.029 8.284 4.056 16.568 6.09 24.846.647 2.639 1.27 5.283 1.987 7.898.557 2.028 1.803 3.457 3.979 3.825 2.069.35 4.157.623 6.232.937 5.894.878 11.794 1.749 17.689 2.633 4.838.723 9.671 1.47 14.51 2.188 6.386.955 12.779 1.892 19.165 2.846 6.351.949 12.696 1.922 19.041 2.876 7.596 1.145 15.192 2.277 22.788 3.416 1.097.166 2.188.338 3.291.474 2.164.267 3.469-.794 3.635-2.953.042-.397.012-.818.012-1.239zm7.732-90.798c.445-.818 1.08-1.257 1.596-1.796 3.385-3.534 4.18-7.573 1.933-12.097-.582-1.162-1.186-2.319-1.756-3.487-1.02-2.081-1.654-4.275-1.962-6.57-.41-3.054-.338-6.102.089-9.15.035-.255.183-.516-.06-.871a2.559 2.559 0 00-1.577 1.126c-.611.925-1.222 1.856-1.773 2.81-1.69 2.93-2.852 6.014-2.591 9.483.017.201.083.468-.338.61-.54-1.92-.665-3.866-.641-5.84.024-2.005.724-3.86 1.311-5.758-.552-.101-.949.041-1.358.112-2.076.35-4.145.659-6.268.392-.907-.113-1.821-.214-2.734-.32-.871-.101-.871-.095-.913.812-.012.19 0 .385-.018.575-.136 1.773-.605 3.463-1.304 5.088-.137.314-.226.718-.747.812-.018-.498.142-.883.255-1.28.527-1.839.421-3.713.255-5.58-.042-.445-.083-.967-.558-1.198-.789-.386-1.601-.73-2.407-1.08-.338-.142-.51.042-.54.368-.024.267-.018.534-.024.8-.047 1.726.083 3.44.267 5.154.374 3.421 1.506 6.552 3.76 9.209 1.215 1.435 2.644 2.65 4.127 3.807.184.142.504.207.427.687-3.434-1.108-6.399-2.858-8.871-5.538-.119.474-.125.884-.119 1.287.036 1.737-.219 3.433-.688 5.099-.978 3.493-2.899 6.292-6.03 8.207-2.307 1.418-4.792 2.426-7.454 2.864a31.586 31.586 0 00-7.246 2.1c-2.2.936-4.246 2.117-5.895 3.89-.219.237-.575.409-.515.836.332.278.729.154 1.097.172.842.041 1.684.035 2.526.077 3.854.201 7.708.421 11.563.616 2.289.113 4.589.119 6.872.315 1.601.142 3.208.077 4.798.35 2.644.45 4.37 1.826 5.07 4.477.616 2.336.913 4.714 1.227 7.109.789 5.989 1.72 11.961 2.586 17.938.8 5.527 1.589 11.047 2.389 16.574.415 2.876.83 5.752 1.275 8.622.166 1.073.196 1.079 1.21 1.103 2.983.071 5.965.142 8.948.201 4.169.083 8.337.089 12.506.178 6.309.143 12.619.16 18.928.291 1.607.035 1.631.006 1.571-1.572-.154-4.014-.255-8.017-.059-12.037.172-3.51.273-7.027.462-10.543.202-3.742.344-7.484.469-11.231.178-5.545.379-11.083.451-16.628.059-4.358.326-8.716.338-13.075 0-.362-.072-.753.344-1.043.112 5.668.183 11.331-.036 17 .332-2.152.587-4.311.872-6.469.836-6.333 2.01-12.613 3.154-18.892.451-2.485.902-4.964 1.37-7.448.083-.433.095-.919.593-1.489-.172 2.289-.486 4.288-.83 6.274-1.678 9.796-3.374 19.592-4.465 29.483-.172 1.554-.457 3.095.201 4.631.73 1.696 1.684 3.262 2.598 4.851.237.415.539.51.942.255.582-.368 1.169-.73 1.756-1.091 5.147-3.155 10.762-5.307 16.33-7.555.101-.041.22-.059.303.137-.338.296-.777.427-1.186.61-3.943 1.767-7.922 3.463-11.759 5.456a58.375 58.375 0 00-4.845 2.846c-.907.587-.895.599-.504 1.654.493 1.329 1.014 2.639 1.631 3.92.765 1.595.723 1.601 2.159.48 2.964-2.318 6.066-4.423 9.576-5.823 3.659-1.458 7.341-2.852 11.024-4.263.261-.101.539-.32.925-.065-.32.379-.765.51-1.157.717-.338.184-.693.332-1.02.522-.456.267-.272.664-.136 1.014.16.403.469.332.753.16.884-.534 1.785-1.044 2.627-1.643.741-.527.777-.818.273-1.648-.747-1.216-1.257-2.538-1.726-3.872a103.917 103.917 0 00-2.49-6.541c-.961-2.253-1.821-4.542-2.485-6.908-.196-.7-.45-1.382-.711-2.058-1.643-4.245-3.363-8.462-5.557-12.464-.112-.208-.338-.409-.089-.801.831.961 1.275 2.094 2.082 3.191 0-.315.024-.427-.006-.528-1.732-5.948-3.445-11.901-5.207-17.843-.521-1.761-1.126-3.493-1.921-5.153-1.008-2.111-2.603-3.54-4.75-4.424-2.377-.984-4.826-1.737-7.364-2.129-3.214-.492-6.422-1.002-9.565-1.838a37.403 37.403 0 00-3.256-.688c-1.571-.266-1.642-.171-1.441 1.394.54 4.21 1.293 8.39 1.91 12.589.539 3.67 1.061 7.341.563 11.071-.379 2.811-1.026 5.55-2.858 7.762-2.158 2.603-4.679 4.839-7.863 6.185-3.214 1.358-6.594 1.921-10.057 2.063-.795.066-1.601.131-2.562-.089zm20.156-9.203c.391-.023.421-.296.522-.48.652-1.18 1.097-2.437 1.411-3.748.937-3.86.706-7.744.154-11.622-.765-5.414-1.791-10.786-2.354-16.23-.297-2.888-.635-5.782-.771-8.675-.172-3.552-.16-7.11-.207-10.668-.048-3.368-.344-6.724-.795-10.057a224.15 224.15 0 00-3.125-17.73c-1.595-7.323-3.854-14.392-7.679-20.909-2.337-3.984-5.373-7.216-9.387-9.523a10.942 10.942 0 00-4.673-1.459c-1.316-.1-2.615.036-3.593 1.097-.243.267-.463.35-.777.09-.812-.67-1.797-.79-2.805-.843-3.362-.19-6.546.528-9.576 1.94-4.43 2.057-8.302 4.891-11.427 8.663-2.947 3.552-5.052 7.548-6.061 12.09-.646 2.912-1.031 5.883-1.891 8.747-1.838 6.137-1.821 12.453-1.998 18.756-.006.184 0 .386.296.469.463-.41.907-.8.895-1.572-.023-1.915.143-3.825.641-5.68a792.75 792.75 0 012.461-8.96c.166-.6.243-1.18.13-1.803-.219-1.21-.166-2.437-.095-3.665.024-.433.066-.883.386-1.227.225.148.225.302.207.45-.118 1.305.006 2.592.143 3.89.284 2.687 1.156 5.136 2.804 7.294 1.074 1.405 2.07 2.858 2.236 4.696.018.202.083.404.314.404a.471.471 0 00.498-.392c.042-.225.06-.456.06-.682a14.42 14.42 0 011.18-5.574c.765-1.796 1.447-3.629 2.271-5.39 2.146-4.578 5.378-8.13 9.962-10.389 2.9-1.429 6.019-2.235 9.061-3.244.794-.266 1.648-.367 2.478-.017.338.142.664.106 1.008.006.404-.119.819-.238 1.234-.261 3.866-.184 7.068 1.215 9.399 4.287 1.34 1.767 2.579 3.605 3.949 5.355 1.37 1.749 2.2 3.741 2.496 5.96.421 3.16.564 6.314.243 9.493-.1.966-.148 1.939-.237 3.095.107-.285.16-.391.184-.498 1.305-5.995 2.324-12.002 1.797-18.187-.433-5.058-1.566-9.885-4.216-14.279-.083-.142-.267-.296 0-.54.687.736 1.215 1.566 1.666 2.444 2.989 5.864 3.753 12.15 3.41 18.62-.25 4.75-1.246 9.392-2.289 14.017-1.133 5.04-1.916 10.135-2.414 15.282-.391 4.05-1.287 7.999-2.526 11.871-.071.231-.071.534-.54.623.86-4.199 1.934-8.302 2.206-12.536-.599.83-1.079 1.696-1.607 2.532a5.913 5.913 0 00-.836 1.992c-.907 4.383-2.597 8.468-4.755 12.376a183.888 183.888 0 00-3.458 6.606c-1.174 2.36-2.033 4.833-2.164 7.501.421-.937.7-1.933 1.139-2.864.984-2.087 2.283-3.979 3.599-5.859 1.334-1.91 2.84-3.706 3.754-5.882.13-.314.332-.605.545-.872.113-.148.202-.456.563-.237-.385.907-.806 1.803-1.156 2.728-1.417 3.783-1.814 7.72-1.684 11.735.095 2.906.694 5.693 1.85 8.349 1.068 2.461 2.615 4.708 3.285 7.614.576-2.247.255-4.275.487-6.28.504.724.533 1.554.581 2.366.13 2.396-.261 4.732-.878 7.033-.753 2.805-2.093 5.248-4.554 6.95-.107.071-.279.148-.136.356.486-.054.972-.101 1.464-.166 2.811-.35 5.616-.718 8.314-1.613 3.445-1.145 6.351-3.019 8.153-6.292 1.05-1.903 1.512-3.997 1.815-6.125.047-.333-.053-.736.48-1.02.042 2.229-.456 4.245-1.067 6.273zm-53.25-61.51c.7-.07 1.109-.136 1.524-.148 1.631-.035 2.295.967 1.66 2.485-.183.433-.456.8-.848 1.061-.415.273-.836.546-1.28.76-.493.236-.676.55-.528 1.096.142.522.409.795.966.747a5.15 5.15 0 01.801-.011c.694.047.83.195.931.895.118.794-.018 1.53-.51 2.17-.291.374-.368.712-.142 1.15 1.423 2.805 2.923 5.586 5.135 7.84 3.534 3.593 7.851 5.93 12.719 7.199 1.329.344 2.692.575 4.086.45 2.218-.201 4.234-.96 6.09-2.17 3.463-2.265 5.817-5.48 7.762-9.037.682-1.245 1.287-2.544 1.518-3.943.338-2.028.569-4.08.818-6.12.149-1.251.232-2.508.362-3.765.249-2.473.563-4.934.753-7.413.166-2.134-.024-4.27-.166-6.41-.213-3.202-1.174-6.054-3.303-8.485a25.01 25.01 0 01-2.621-3.618c-1.607-2.668-4.103-4.02-7.056-4.666a6.033 6.033 0 00-2.503-.048c-.818.154-1.636.279-2.49.054-.629-.166-1.299-.06-1.921.16-2.449.871-4.952 1.589-7.353 2.597-4.744 1.986-8.284 5.26-10.615 9.843-1.215 2.39-2.176 4.893-3.131 7.389-.48 1.257-.67 2.585-.735 3.931-.03.54.095.943.605 1.246.919.54 1.115 1.387.86 2.383-.19.825-.605 1.542-1.388 2.378zm116.521 132.704c.486-.297.812-.083 1.133-.018 1.168.237 2.342.385 3.534.291 1.666-.131 3.196-1.56 3.398-3.22.148-1.222-.107-2.295-1.358-2.882-.415-.196-.807-.463-1.24-.593-2.212-.658-4.447-1.121-6.772-.664-.581.112-1.186.178-1.79-.018.118-.397.415-.386.664-.427 2.425-.421 4.844-.688 7.24.172.178.065.374.089.557.124.837.166.908.143 1.062-.705.391-2.141.765-4.288 1.127-6.44.142-.854-.012-.978-.813-.729-1.15.361-2.117 1.049-3.048 1.79-1.346 1.068-2.686 2.153-4.038 3.214-1.204.949-2.568 1.424-4.252 1.424.398-.51.896-.51 1.293-.688.735-.332.801-.498.231-1.026a146.435 146.435 0 00-2.905-2.603c-2.426-2.117-5.07-3.938-7.721-5.758-1.951-1.346-3.908-2.686-5.722-4.222-.51-.433-.99-.884-1.21-1.554 1.352.741 2.384 1.915 3.961 2.71-.599-1.044-1.079-1.868-1.387-2.781-1.441-4.275-3.03-8.497-4.359-12.808-.261-.837-.296-.866-1.12-.552-1.857.706-3.707 1.435-5.569 2.141-4.079 1.541-7.785 3.736-11.201 6.422-.741.581-.759.616-.421 1.429a80.254 80.254 0 014.489 14.32c.498 2.319 1.53 4.388 2.639 6.44.385.706.836 1.37 1.346 1.993 2.105 2.579 4.678 4.601 7.453 6.392.724.462 1.507.753 2.355.83 1.025.095 2.039.279 3.077.344 2.218.136 4.406.457 6.505 1.251 2.461.931 5.029 1.287 7.65 1.257.249 0 .539.113.771-.201-.279-.653-1.074-1.044-1.133-1.844.296-.107.421.065.528.207 1.15 1.5 2.686 2.342 4.53 2.686.463.083.451.119.587.807.03.136.148.261.255.367.646.653 1.322 1.281 2.087 1.785.285.19.599.338.919.469.208.083.469.118.599-.137.107-.213-.065-.344-.201-.486-1.281-1.34-1.364-2.781-.018-3.967.854-.759 1.032-1.643 1.115-2.639.065-.753.041-.782-.688-.824-.344-.018-.688 0-1.032-.03-1.073-.095-2.081-.379-3.107-1.049zm-51.987 11.124c.326.279.653.581.996.86 7.187 5.829 14.38 11.646 21.561 17.481.534.433 1.08.646 1.773.646 1.572-.006 3.131-.166 4.697-.213 3.362-.107 6.718-.273 10.08-.433 5.729-.273 11.451-.51 17.179-.717 3.321-.119 6.641-.279 9.962-.433 4.697-.214 9.393-.362 14.089-.534.676-.024 1.364-.006 2.183-.308-.493-.303-.86-.552-1.246-.771l-16.544-9.429c-1.797-1.02-3.581-2.051-5.39-3.054-.7-.385-.783-.332-1.121.38-.279.587-.533 1.186-.83 1.761-.148.279-.208.753-.646.67-.338-.065-.326-.492-.368-.777-.13-.948-.273-1.897-.302-2.846-.024-.777-.303-1.287-.991-1.654a68.673 68.673 0 01-3.386-1.933c-.687-.416-1.405-.564-2.188-.493-3.469.297-6.949.208-10.424.386-4.199.213-8.403.302-12.607.439-5.693.178-11.385.373-17.078.504-2.983.071-5.954.32-8.942.267-.131.005-.297-.018-.457.201zM175.872 81.808c-.45-.172-.521-.362-.616-.522-1.667-2.888-2.598-5.971-2.242-9.322.19-1.779.036-3.51-.201-5.254-.143-1.037-.083-2.057.261-3.06.166-.48.385-.913.8-1.227 1.886-1.435 3.878-2.603 6.369-2.526.456.012.919-.035 1.375-.06.469-.023.908-.16 1.311-.379.717-.391 1.15-1.002 1.233-1.82.06-.623-.183-.925-.771-.819-1.357.244-2.662-.053-3.984-.255-1.151-.177-2.283-.088-3.38.356-.92.374-1.833.795-2.787 1.056-2.028.54-3.119 1.939-3.778 3.807-.136.397-.261.8-.379 1.203-.386 1.323-.83 2.627-1.477 3.849a7.008 7.008 0 00-.788 2.384c-.024.201.006.492-.415.462a2.973 2.973 0 01.183-2.212c.937-1.933 1.572-3.978 2.301-5.995.694-1.92 1.862-3.41 3.949-3.99a3.27 3.27 0 001.382-.789c1.05-.99 2.295-1.637 3.647-2.105a8.698 8.698 0 012.811-.486c1.197-.006 2.241-.451 3.101-1.287.445-.433.605-1.251.368-1.696-.279-.516-.783-.38-1.228-.391-1.227-.03-2.443.178-3.653.332-1.286.166-2.597.106-3.854.533-2.117.73-3.979 1.945-5.906 3.025-.415.23-.623.776-1.216.776-.19 0-.255.267-.273.457-.225 1.91-1.055 3.676-1.304 5.574-.237 1.82-.581 3.623-.931 5.426-.279 1.429-.386 2.864-.184 4.335.172 1.245.172 2.514-.065 3.77-.469 2.45-.54 4.934-.718 7.413-.059.836-.089 1.696.03 2.52.35 2.408-.546 4.353-2.129 6.043-.569.61-.943 1.287-1.209 2.046-.546 1.553-1.092 3.107-1.827 4.577-2.277 4.549-4.762 8.99-7.513 13.271-2.983 4.637-6.297 9.037-9.624 13.425-.261.344-.635.647-.664 1.151.172.035.284.071.397.071 3.665.172 7.335.29 10.994.522 1.755.106 3.516.142 5.266.243.954.053 1.903.19 2.858.172.937-.018.978-.048 1.275-.979.302-.948.587-1.897.889-2.846 1.987-6.238 4.216-12.381 7.264-18.193 1.299-2.478 2.675-4.898 4.608-6.961a9.164 9.164 0 001.269-1.767c.676-1.204 1.476-2.325 2.277-3.44.652-.907 1.375-1.737 2.384-2.277.859-.456 1.352-1.221 1.642-2.123.421-1.316.641-2.68.724-4.055.071-1.145.177-2.319-.321-3.689-.278 1.37-.498 2.49-.735 3.606-.148.711-.255 1.44-.51 2.117-.421 1.096-1.364 1.227-2.135.343-.569-.652-.842-1.452-1.049-2.27-.409-1.631-.848-3.256-1.192-4.905-1.014-4.904-1.981-9.82-2.971-14.73-.077-.397-.065-.83-.403-1.126-.475.178-.54.581-.67.925-.309.854-.261 1.726-.143 2.61.214 1.588.493 3.183.261 4.796-.35 2.45.024 4.798.866 7.098.374 1.014.723 2.058 1.15 3.262zm7.846-20.5c-.155.433-.006.676.047.931.368 1.643.753 3.28 1.097 4.928a13.097 13.097 0 01-.024 5.574c-.332 1.494-.599 3-.907 4.495-.136.652-.13 1.28.071 1.921.913 2.924.534 5.823-.213 8.711-.309 1.204-1.008 2.135-2.093 2.752-.783.444-1.388 1.06-1.91 1.784-.783 1.086-1.548 2.183-2.235 3.333-.368.623-.748 1.263-1.234 1.79-2.223 2.426-3.819 5.249-5.289 8.154-3.119 6.167-5.343 12.672-7.371 19.26-.071.226-.273.469-.065.736.225-.036.332-.202.45-.338 1.833-2.04 4.104-3.416 6.624-4.412 1.53-.605 3.066-1.186 4.602-1.779 3.492-1.358 6.321-3.528 8.26-6.79.184-.308.32-.682.907-.978-1.31 3.54-3.682 5.829-6.683 7.59 2.366-.563 4.625-1.334 6.725-2.544 2.425-1.399 4.281-3.309 5.425-5.882 1.323-2.977 1.667-6.102 1.394-9.316-.048-.54-.237-1.044-.48-1.524-1.192-2.36-1.72-4.892-1.969-7.501-.036-.392-.113-.813.16-1.27.368.35.285.754.338 1.104.427 2.656 1.044 5.248 2.324 7.643 1.281 2.39 3.238 4.086 5.723 5.598-.202-.291-.249-.385-.32-.457-3.197-3.065-4.661-6.896-5.1-11.23-.249-2.444-.148-4.893-.22-7.336-.088-2.84-.421-5.64-1.523-8.296-.635-1.524-1.483-2.929-2.331-4.34-.172-.285-.451-.57-.314-1.174 1.204 1.269 1.903 2.68 2.799 3.949.925 1.31 1.85 2.627 2.71 3.985a28.05 28.05 0 012.194 4.15c.61 1.436 1.055 2.93 1.5 4.424a18.927 18.927 0 00-.32-2.39c-.819-4.008-2.372-7.75-4.377-11.29-1.921-3.392-3.759-6.831-6.012-10.027-.872-1.204-1.542-2.544-2.36-3.938zm-45.429 63.977c.344 0 .694-.047 1.032.006.984.16 1.643-.231 2.224-1.032 1.998-2.751 4.109-5.425 6.084-8.201 5.248-7.37 9.956-15.055 13.283-23.511.349-.89.753-1.756 1.44-2.461 1.394-1.43 2.005-3.113 1.726-5.118a11.582 11.582 0 01-.012-2.864c.137-1.18.142-2.366.19-3.552.041-.954-.071-1.043-1.038-.913-.225.03-.45.089-.676.142-2.087.463-4.168.985-6.285 1.299-2.248.326-4.11 1.364-5.622 3.06-.842.943-1.696 1.868-2.567 2.78a12.413 12.413 0 00-2.645 4.128c-.569 1.459-1.139 2.924-1.88 4.311-1.761 3.285-3.125 6.754-4.163 10.3-1.049 3.588-1.873 7.252-2.751 10.887-.563 2.348-1.115 4.679-2.064 6.909a44.41 44.41 0 00-1.02 2.555c-.29.825-.195.991.623 1.014 1.376.048 2.74.315 4.121.261zm110.852 16.77c-.296.563-.308.948-.332 1.328-.267 3.736-.344 7.477-.504 11.219-.184 4.388-.451 8.776-.617 13.164-.142 3.784-.148 7.567-.1 11.35.017 1.376.029 2.751.1 4.127.06 1.097.238 1.24 1.317 1.263 3.819.077 7.637.143 11.462.214 3.054.059 6.114-.03 9.168.178 1.138.077 2.283.011 3.664.011-.818-.521-1.405-.877-1.968-1.268-2.171-1.519-4.039-3.369-5.936-5.207-1.696-1.642-2.692-3.581-3.38-5.758a54.123 54.123 0 01-.724-2.532c-.61-2.33-1.174-4.667-1.814-6.991-.706-2.544-1.672-4.999-2.621-7.46-.148-.379-.249-.889-.753-.919-.937-.059-1.299-.729-1.613-1.429-.646-1.429-1.305-2.846-1.826-4.329-.854-2.425-2.39-4.5-3.523-6.961zm-8.734 50.439c2.188 1.814 4.18 3.475 6.184 5.129 6.903 5.699 13.817 11.373 20.69 17.113 1.328 1.109 2.727 1.572 4.423 1.465 3.392-.213 6.796-.344 10.188-.545 4.577-.267 9.155-.576 13.733-.842 3.356-.196 6.719-.303 10.075-.534 1.488-.101 2.977-.148 4.465-.237 4.613-.273 9.233-.576 13.846-.842 3.356-.196 6.719-.338 10.075-.522.563-.03 1.121-.137 1.672-.202.006-.255-.154-.302-.285-.373a20297.255 20297.255 0 00-29.115-16.112c-.368-.201-.913-.759-1.174-.302-.35.611.468.747.848.961 4.145 2.383 8.302 4.743 12.458 7.109 3.659 2.082 7.318 4.157 10.965 6.25.314.178.848.309.759.742-.113.51-.688.332-1.074.409-.112.023-.231.012-.344.018-1.144.023-2.294.029-3.439.083-4.394.195-8.782.427-13.17.616-2.71.119-5.432.131-8.136.309-1.909.124-3.818.136-5.728.225-4.24.196-8.474.421-12.713.605-2.829.124-5.663.112-8.48.32-2.253.166-4.513.053-6.754.338-.7.089-1.233-.142-1.779-.587-5.515-4.495-11.047-8.966-16.568-13.449-2.289-1.856-4.572-3.718-6.855-5.574-.172-.142-.439-.267-.391-.522.065-.338.391-.302.652-.326.154-.012.308-.006.457-.012 3.593-.13 7.181-.302 10.774-.391a1264.04 1264.04 0 0015.59-.486c3.818-.137 7.643-.202 11.468-.297l.457-.018c4.008-.136 8.023-.272 12.031-.421.641-.023 1.192.137 1.738.463a82.088 82.088 0 003.089 1.761c.255.136.599.593.854.154.213-.373-.249-.563-.534-.747-.13-.083-.267-.148-.403-.219-.973-.534-1.969-1.026-2.906-1.619-.818-.516-1.66-.676-2.615-.652-5.004.118-10.009.308-15.02.474-4.471.148-8.942.267-13.413.439-5.384.207-10.775.344-16.165.504-3.249.095-6.499.178-9.748.267-.143 0-.291.029-.682.077zm-3.594 1.453c-.367-.356-.682-.35-.978-.398-4.151-.64-8.308-1.281-12.459-1.933-5.888-.925-11.776-1.856-17.665-2.781-.895-.142-1.091 0-.984.86.29 2.277.634 4.542.961 6.813.077.522.355.795.913.836.913.071 1.82.196 2.733.303 3.149.361 6.298.717 9.453 1.079.836.095 1.672.196 2.502.308.184.024.368.125.415.338.047.226-.101.362-.261.469-.285.19-.587.361-.883.528a8367.377 8367.377 0 01-12.121 6.765c-.99.552-1.085.73-.943 1.827.036.267.113.522.148.788.077.534.344.635.789.368.166-.101.326-.196.492-.29a45066.57 45066.57 0 0022.231-12.655c1.862-1.049 3.712-2.111 5.657-3.225zM190.234 70.245c-.041.041-.088.083-.13.124.208.35.409.7.623 1.05 3.077 5.058 5.775 10.27 6.724 16.218.142.877.297.972 1.18 1.138 3.202.605 6.381.48 9.565-.201.824-.178 1.34-.528 1.72-1.299a163.73 163.73 0 013.344-6.41c1.803-3.261 3.285-6.653 4.216-10.27.059-.226.285-.463.03-.766-.214.244-.409.469-.611.694-1.382 1.548-2.882 2.96-4.667 4.038-2.971 1.797-6.113 2.527-9.559 1.738-4.127-.949-7.88-2.669-11.266-5.212-.386-.29-.777-.564-1.169-.842zm49.645 123.085c-.095.676.255 1.18.652 1.631.403.456.866.865 1.334 1.257 3.849 3.208 7.685 6.428 11.563 9.6 4.472 3.659 8.978 7.264 13.467 10.899 1.085.878 2.289 1.299 3.7 1.293 3.635-.012 7.264.059 10.893-.172 2.859-.184 5.735-.166 8.593-.326 1.796-.101 3.587-.16 5.384-.249 4.163-.202 8.32-.433 12.482-.647 1.72-.089 3.434-.166 5.153-.261 3.469-.201 6.944-.427 10.413-.61 2.52-.131 5.04-.19 7.561-.303a38.817 38.817 0 002.632-.196c1.192-.124 2.218-.901 2.58-1.915-1.732.083-3.445.142-5.159.243-3.433.196-6.867.427-10.3.617-3.321.184-6.642.326-9.962.516-4.62.267-9.233.575-13.846.836-3.434.196-6.873.308-10.306.545-1.453.101-2.9.143-4.353.232-3.546.207-7.098.379-10.644.664-1.963.154-3.534-.463-5.034-1.714-8.569-7.163-17.185-14.267-25.789-21.389-.267-.243-.504-.581-1.014-.551zM180.984 84.18c-.089-.012-.184-.03-.273-.042.036-.332.042-.67.113-1.002.314-1.536.605-3.078.972-4.602.593-2.46.925-4.957 1.228-7.46.403-3.385-.641-6.587-1.328-9.83-.101-.47-.41-.576-.837-.6-1.441-.065-2.804.178-4.109.825-1.619.8-1.66.824-1.293 2.626.759 3.748 1.518 7.496 2.271 11.237.576 2.847 1.264 5.67 1.975 8.486.16.635.344 1.263.777 1.767.415.486.812.445 1.044-.136.177-.457.272-.955.367-1.441.741-3.748 1.483-7.501 2.206-11.255.291-1.506.403-3.012.154-4.554-.397-2.42-1.002-4.785-1.601-7.157-.035-.149-.029-.398-.32-.344-.16.314.012.599.071.89.368 1.719.759 3.432 1.097 5.158.22 1.127.374 2.253.249 3.416-.379 3.498-.943 6.967-1.838 10.377-.332 1.21-.623 2.425-.925 3.64zm129.661 83.486c-.326.871-.433 1.583-.391 2.3.018.309.041.599-.053.902-.522 1.648-.73 3.35-.86 5.076-.071.948-.22 1.903-.682 2.763-.67 1.245-1.358 2.479-2.224 3.611-1.103 1.435-1.5 3.161-1.856 4.886-.083.398-.03.842.048 1.252.13.735.379 1.429 1.197 1.672.789.231 1.412-.131 1.987-.623.113-.101.213-.219.314-.332 1.293-1.405 2.574-2.823 3.884-4.216 1.773-1.88 3.137-4.038 4.394-6.28.528-.943.569-1.88.148-2.858-.806-1.868-1.773-3.641-3.048-5.236a22.614 22.614 0 00-2.858-2.917zm-4.073 23.41c.604.398 1.168.35 1.666.416 1.405.183 2.828.296 4.18-.291 3.28-1.417 5.865-3.694 7.97-6.535.795-1.073.973-2.271.706-3.593-.421-2.058-.908-4.104-1.068-6.209-.089-1.186-.652-2.217-1.69-2.864-1.067-.67-2.324-.848-3.504-1.387-.042.563.255.794.427 1.073.723 1.174 1.387 2.372 1.939 3.641.605 1.405.474 2.686-.261 4.05-1.809 3.333-4.27 6.143-6.855 8.859-1.014 1.062-1.892 2.307-3.51 2.84zm.699-11.379c.481-.652.747-1.275.854-1.963.142-.907.297-1.808.439-2.715l3.86-24.674c.243-1.548.498-3.09.724-4.643.059-.404.213-.89-.166-1.186-.552-.433-1.228-.386-1.874-.267-.522.095-.522.587-.605.996-.059.302-.119.599-.172.901-1.21 6.997-2.419 14.001-3.635 20.998-.445 2.561-.872 5.123-1.346 7.673-.148.812-.107 1.476.605 2.04.551.439.818 1.085.96 1.779.072.32.042.682.356 1.061zm-99.627 34.571c.789-.231 1.352-.623 1.928-.984 7.127-4.454 14.261-8.907 21.388-13.36 2.106-1.317 4.217-2.633 6.316-3.955.379-.238.818-.445.871-.985.054-.516-.189-.741-.658-.545-.314.13-.611.308-.913.48-8.824 5.04-17.647 10.081-26.471 15.133-2.686 1.536-2.028.753-2.49 3.724-.006.113.018.225.029.492zm114.315-33.569c.534 2.52-.599 4.365-2.217 6.019a48.502 48.502 0 01-2.313 2.224 17.09 17.09 0 01-5.052 3.119c-.208.083-.552.006-.599.373 1.447.546 2.609.795 4.174.516 3.232-.575 6.31-1.553 8.83-3.807 1.121-1.002 1.429-2.01.795-3.38-.872-1.885-2.177-3.486-3.618-5.064zM174.669 36.433c-.878 3.054-1.88 6.066-2.099 9.244-.054.76-.024 1.53.047 2.29.071.776.296.865.937.456.486-.309.925-.664 1.251-1.15.391-.588.848-.849 1.643-.57.954.338 1.607-.344 1.399-1.34a185.29 185.29 0 00-1.014-4.465 3.427 3.427 0 00-.368-.96 34.04 34.04 0 01-1.796-3.505zm-5.782 17.855c.907-.54 1.797-1.103 2.716-1.62 1.666-.936 3.362-1.814 5.307-2.01.836-.083 1.672-.148 2.503-.255 1.464-.19 2.87-1.76 2.929-3.243.041-1.032-.498-1.483-1.494-1.24-.22.054-.439.125-.653.208-1.316.504-2.638 1.008-3.949 1.53a12.4 12.4 0 00-2.022 1.061c-2.242 1.406-3.742 3.529-5.337 5.569zm154.756 136.866c-3.872 1.707-7.613 3.498-11.972 2.283.599.646 1.239 1.168 1.874 1.69 1.548 1.28 3.255 1.417 5.028.598 1.139-.527 2.212-1.197 3.333-1.778 1.079-.558 1.643-1.43 1.737-2.793zm-18.767-7.721c-1.056.053-1.044.8-1.151 1.399a51.1 51.1 0 00-.765 12.097c.018.291-.083.617.178.848.202.024.297-.107.35-.237.824-1.939 1.488-3.931 2.052-5.959.124-.457-.083-.706-.451-.931-.895-.552-1.216-1.435-1.304-2.426a5.456 5.456 0 01.296-2.372c.267-.782.516-1.571.795-2.419zM195.595 87.916c-.765-3.072-2.147-5.693-3.736-8.279-.112.125-.16.16-.154.178.427 2.052.783 4.116.83 6.22.006.327.125.6.421.766.789.439 1.595.848 2.639 1.114zM209.5 201.488c1.963.303 3.89.706 5.865.706.747 0 1.281-.48 1.82-.949-1.731-.302-3.439-.421-5.123-.706-1.061-.171-1.832.178-2.562.949zm4.472 1.661c-.066-.244-.226-.279-.368-.297a853.296 853.296 0 00-5.23-.587c-.433-.047-.83.089-1.198.314-.225.137-.504.261-.421.599.065.267.296.32.534.344 1.399.16 2.804.314 4.204.48.99.119 1.761-.302 2.479-.853zm98.666-61.386c1.079.018 1.091.006 1.292-1.103.066-.373.149-.747.172-1.121.054-.859-.183-1.191-.901-1.304-.919-.148-1.459.148-1.654.955-.119.48-.19.966-.261 1.452-.137.931-.018 1.074.901 1.121.148.006.302 0 .451 0zm-92.826 58.053c-.094-.107-.142-.208-.195-.213-1.892-.232-3.778-.534-5.687-.599-.629-.024-1.127.261-1.666.806 2.063.249 3.955.48 5.852.694.688.089 1.24-.184 1.696-.688zm-7.957-1.115c-1.649-.184-3.297-.379-4.952-.551-.338-.036-.735-.036-.777.445-.041.468.309.545.67.587 1.133.142 2.26.284 3.392.421.694.089 1.222-.244 1.667-.902zm98.304-5.621c.006-.273-.154-.398-.326-.463-1.038-.385-2.147-.427-3.226-.587-.439-.065-.516.38-.587.706-.083.362.119.569.457.664 1.28.362 2.52.391 3.682-.32zm-99.425 11.877c-.012-.089-.018-.178-.03-.273-1.085-.118-2.164-.243-3.249-.349-.184-.018-.374.023-.469.231-.279.611.196 1.393.89 1.488 1.174.166 1.974-.563 2.858-1.097zm-1.358-4.495c-.024-.065-.053-.124-.077-.189-.641-.089-1.281-.184-1.921-.255-.771-.083-1.02.047-1.05.521-.03.493.225.706.889.813.279.041.534.024.777-.113.463-.261.925-.522 1.382-.777zM177.527 41.645c.089 1.382.498 2.71.818 4.056.036.154.154.267.338.214.172-.048.231-.208.208-.356-.255-1.364-.315-2.787-1.364-3.914zM312.08 142.4c-.35 0-.616-.048-.86.089-.219.13-.284.343-.26.581.017.16.118.272.29.29.599.065 1.192.154 1.791.184.32.018.445-.249.474-.528.024-.272-.154-.397-.403-.438a76.109 76.109 0 00-1.032-.178zM176.821 55.83c.884-.083 1.75-.178 2.609.06.143.041.303.035.457.035.451 0 .492-.273.391-.617-.124-.42-.468-.462-.824-.433-.961.084-1.814.457-2.633.955zm125.173 134.554c.278-.747.486-1.506.32-2.509-.771.908-.913 1.667-.32 2.509z" fill="#fff"/></svg>