<svg width="278" height="166" fill="none" xmlns="http://www.w3.org/2000/svg"><path d="M53.387 190.878c-.222-.18-.43-.381-.66-.543a10.468 10.468 0 01-2.5-2.471c-1.327-1.833-2.623-3.69-3.994-5.487-1.013-1.329-1.546-2.933-2.24-4.435-1.51-3.263-2.184-6.734-2.313-10.309-.05-1.339.112-2.664.462-3.975.417-1.569.803-3.148 1.188-4.723.692-2.83 2.244-5.092 4.31-7.04.159-.15.327-.298.486-.453.193-.182.199-.388.039-.595-.235-.303-.47-.6-.72-.891-4.951-5.798-9.988-11.505-15.071-17.167a1797.854 1797.854 0 00-18.798-20.601c-.237-.255-.498-.489-.746-.736l.095-.566c.266-.194.388-.49.54-.771.213-.391.449-.768.657-1.16.597-1.136 1.405-1.555 2.77-1.354 2.582.38 5.204.498 7.808.742 1.912.179 3.825.377 5.735.589 2.756.306 5.508.639 8.266.936.51.052.875.253 1.216.632 4.223 4.636 8.464 9.256 12.687 13.892 1.714 1.883 3.4 3.795 5.102 5.69.497.552.58.542.894-.139.346-.748.683-1.506.98-2.277.697-1.818 1.482-3.591 2.455-5.267 1.33-2.292 2.335-4.72 3.133-7.251 1.097-3.477 2.661-6.739 4.464-9.891 1.526-2.666 3.678-4.647 6.272-6.197 3.478-2.076 7.23-3.414 11.15-4.307 4.024-.918 8.064-1.737 12.058-2.78.796-.21 1.313-.566 1.647-1.359 1.066-2.537 2.813-4.508 5.122-5.955.894-.558 1.509-1.325 1.906-2.295.408-1.007.702-2.043.893-3.118.311-1.756.543-3.526 1.016-5.254.864-3.17 2.451-5.918 4.531-8.403a46.576 46.576 0 011.559-1.789c.32-.343.4-.675.243-1.127-.913-2.569-1.343-5.263-2.018-7.89-.321-1.258-.469-2.523.265-3.712.165-.27.076-.56.033-.842-.145-.947-.294-1.894-.458-2.839-.339-1.94-.163-3.885-.077-5.83.151-3.372.735-6.66 1.961-9.805 1.433-3.67 3.498-6.906 6.493-9.483 1.555-1.34 3.307-2.333 5.257-2.919 3.264-.982 6.6-1.628 9.987-2.014.621-.072 1.255-.079 1.879-.111l2.795.5c.507.322 1.053.584 1.503.992.252.224.54.3.876.278 1.102-.073 2.151.168 3.073.771 3.589 2.335 7.196 4.644 10.015 7.987 1.039 1.232 1.941 2.54 2.459 4.07.259.774.736 1.303 1.354 1.785 1.915 1.485 3.671 3.144 5.142 5.09 1.8 2.385 3.007 5.015 2.681 8.075-.315 2.965-1.643 5.335-4.477 6.587a2.224 2.224 0 01-.354.124c-.055.014-.124.002-.224-.001-.078-.294.171-.365.336-.466 1.925-1.197 2.588-3.04 2.51-5.223-.077-1.999-.876-3.718-2.221-5.164-.641-.688-1.271-1.408-2.162-1.852-.305.393-.144.793-.073 1.134.833 4 .847 8.06 1.015 12.11a12.21 12.21 0 01-.073 1.813c-.13 1.163.031 2.295.308 3.42.681 2.782.707 5.558.125 8.355-.408 1.966-1.129 3.784-2.257 5.422-.952 1.382-1.93 2.749-3.117 3.944-.511.516-.834 1.19-1.203 1.823a35.465 35.465 0 00-2.958 6.608c-.582 1.756-1.353 3.363-2.796 4.555-.326.264-.421.604-.423 1.013-.013 1.79.007 1.732 1.564 2.401 3.781 1.622 7.732 2.768 11.512 4.4 4.014 1.73 7.883 3.758 11.739 5.812 1.143.61 2.346 1.124 3.299 2.047.09.088.208.153.324.198 1.533.587 2.548 1.791 3.347 3.144 3.461 5.883 5.575 12.16 5.49 19.09-.031 2.52.124 5.044.155 7.565.028 1.948-.248 3.889-.12 5.839.019.279-.064.577.206.862a11.047 11.047 0 001.854-1.987c.701-.939 1.385-1.891 2.061-2.85.613-.868 1.287-1.591 2.49-1.299.347.087.501-.204.675-.419a75.067 75.067 0 005.685-7.849 153.135 153.135 0 005.509-9.458c.119-.224.239-.458.408-.64 1.668-1.817 3.176-3.788 4.951-5.504 1.592-1.537 3.624-2.271 5.683-2.881 3.488-1.038 6.978-.741 10.443.241 2.126.603 4.244 1.276 6.497.985 1.284-.165 2.545-.421 3.805-.696 1.078-.236 2.162-.428 3.247-.629.792-.147 1.568-.042 2.34.15.814.198 1.371.645 1.422 1.556.019.369.118.628.56.548 2.504-.458 5.02-.224 7.536-.13 1.769.066 3.506-.331 5.272-.391 1.164-.042 2.333-.117 3.484.142 1.036.234 1.878.741 2.272 1.819l-.16.945c-.473.267-.983.412-1.504.536-3.02.726-6.131 1.027-9.099 1.999-3.575 1.167-7.252 1.858-10.953 2.472-1.307.215-2.615.491-3.789 1.129-1.764.952-3.661 1.359-5.626 1.446-4.008.174-7.95.803-11.886 1.539-1.558.289-3.069.698-4.442 1.527-.635.383-1.163.857-1.568 1.483-.497.774-.987 1.559-1.336 2.417-1.388 3.424-3.114 6.686-4.646 10.036-.476 1.042-.92 2.095-1.418 3.129-.234.483-.152.783.253 1.149 1.4 1.263 2.548 2.75 3.628 4.298.836 1.196.893 2.324.025 3.518-1.251 1.713-2.4 3.503-3.969 4.962-.926.86-1.735 1.843-2.529 2.829-.386.48-.535.998-.381 1.604.135.526.265 1.055.415 1.573a6.439 6.439 0 01-.077 3.953c-.459 1.364-1.089 2.644-1.782 3.898-.863 1.561-1.692 3.143-2.209 4.853-1.259 4.16-4.101 6.837-7.789 8.755-.449.233-.896.461-1.363.657a57.043 57.043 0 00-6.08 3.061c-.875.503-1.793.922-2.737 1.273-1.569.582-3.177.776-4.831.456a9.542 9.542 0 00-3.293-.06c-2.297.355-4.237-.388-5.895-1.952-2.634-2.491-5.245-5.012-7.297-8.049-.068-.104-.157-.197-.331-.407a10.472 10.472 0 00-.536 1.654c-1.103 4.583-2.137 9.184-2.941 13.835-.17.977-.329 1.946-.36 2.943a8.756 8.756 0 01-.447 2.537c-.213.642-.375 1.292-.417 1.959-.117 2.018-.501 3.983-1.006 5.931-.201.769-.307 1.565-.454 2.348l-.933-.167c.331-1.396.652-2.789.988-4.185.219-.9.42-1.809.475-2.729.073-1.25.246-2.472.643-3.664.087-.264.099-.56.103-.868-.964 1.794-2.004 3.53-3.304 5.168-.27-.319-.089-.489.02-.657a30.958 30.958 0 003.551-7.471c.128-.391.235-.796.317-1.201.431-2.159.853-4.315 1.279-6.475.499-2.532 1.145-5.033 1.791-7.53.182-.71.345-1.423.545-2.129.106-.376-.033-.681-.152-1.015-1.217-3.36-1.951-6.822-1.931-10.404.009-1.748.156-3.515.419-5.241.192-1.282.709-2.51 1.018-3.775.53-2.18 1.367-4.232 2.357-6.233a13.597 13.597 0 001.223-3.806c.563-3.364 1.137-6.731 1.668-10.102.372-2.372 1.086-4.653 1.649-6.972.309-1.27.66-2.528.942-3.803.797-3.568 2.046-6.959 3.694-10.206.115-.23.163-.573.541-.587.141.319-.076.564-.179.806-1.307 3.009-2.441 6.084-3.209 9.281-.473 1.983-.927 3.969-1.456 5.942-.05.184-.153.431-.084.554.413.715-.042 1.265-.272 1.865-.468 1.222-.876 2.455-1.096 3.755-.351 2.106-.702 4.212-.929 6.345-.297 2.776-.915 5.48-2.22 7.964-1.074 2.049-1.658 4.263-2.255 6.474-.085.308-.17.615-.273.915-.326.968-.609 1.939-.599 2.982.007 1.563-.325 3.108-.215 4.68.21 3.016.774 5.956 1.743 8.814.531 1.56 1.461 2.902 2.505 4.159 1.654 1.988 3.467 3.821 5.298 5.629.637.625 1.316 1.195 2.098 1.638.964.549 1.989.848 3.085.726 1.8-.203 3.579-.086 5.367.147 1.09.142 2.132-.114 3.152-.457.807-.27 1.595-.601 2.334-1.028 2.325-1.338 4.742-2.496 7.192-3.585 1.863-.832 3.494-2.005 5.008-3.363a9.489 9.489 0 002.545-3.742 61.524 61.524 0 013.761-8.127c.233-.416.399-.864.605-1.294.907-1.905.766-3.834.089-5.772-.099-.288-.232-.317-.497-.215-1.995.771-3.957.521-5.888-.274-2.46-1.014-4.545-2.616-6.571-4.319-2.117-1.777-3.806-3.92-5.348-6.201-.468-.696-.807-1.451-.816-2.329-.12-.022-.224-.079-.291-.048-1.692.772-3.395 1.532-4.814 2.777-.402.352-.802.719-1.148 1.129-.899 1.073-1.87 2.06-3 2.885-1.048.766-1.644 1.816-1.856 3.104-.081.506-.194 1.006-.213 1.513-.07 1.964-.814 3.72-1.545 5.483a.725.725 0 01-.149.238c-.035.038-.108.044-.28.105.242-1.374.899-2.591.907-4.045-1.086.542-1.723 1.551-2.722 2.365.021-.545.25-.774.437-1.011.588-.747 1.206-1.475 1.989-2.024.426-.3.607-.692.673-1.196.088-.663.195-1.324.326-1.985.212-1.061.662-2.006 1.531-2.67 1.486-1.137 2.782-2.471 4.043-3.85.859-.945 1.951-1.602 3.077-2.182a64.66 64.66 0 012.631-1.292 2.357 2.357 0 001.109-.987 85.59 85.59 0 011.113-1.888c.158-.256.211-.516.209-.815-.054-5.427.077-10.85-.106-16.276-.141-4.184-1.152-8.144-2.715-11.99-.77-1.897-1.648-3.741-2.745-5.47-.519-.816-1.118-1.555-1.863-2.16-.259-.211-.495-.508-.917-.348-.249.095-.402-.125-.551-.287-.459-.496-1.02-.862-1.605-1.174-4.338-2.295-8.648-4.647-13.153-6.601-2.758-1.198-5.622-2.101-8.424-3.181-1.296-.498-2.587-1.023-3.882-1.53-.143-.054-.283-.151-.446-.065-.018.026-.06.047-.054.068.385 2.257-.775 3.996-1.897 5.713-1.452 2.227-3.528 3.783-5.733 5.171-1.656 1.044-3.411 1.91-5.211 2.677-.19.082-.375.251-.666.083.15-.354.501-.431.779-.583 2.38-1.299 4.739-2.641 6.895-4.308 2.114-1.636 3.765-3.64 4.811-6.141.319-.758.455-1.509.285-2.33-.172-.816-.125-1.656-.162-2.482-.033-.676-.121-.75-.728-.535-2.223.792-4.416.563-6.558-.283-.865-.343-1.579-.312-2.415.069-2.442 1.105-4.931 2.09-7.332 3.29-1.138.566-2.183 1.261-3.016 2.25-.577.682-.583.743.122 1.245.569.406 1.152.79 1.74 1.165.619.395 1.172.866 1.718 1.354 1.204 1.073 1.688 2.432 1.584 4.033-.067 1.019-.115 2.037-.178 3.057-.094 1.54-.683 2.1-2.198 2.108-.772.006-.79.003-.92.852-.442 2.933-.862 5.87-1.31 8.802-.772 5.048-1.608 10.084-2.314 15.138a301.55 301.55 0 00-1.587 13.399 172.868 172.868 0 01-2.091 14.971c-.778 4.241-1.14 8.528-1.471 12.826-.334 4.398-1.108 8.727-2.076 13.027-.64 2.83-1.421 5.62-2.097 8.439-.452 1.89-.936 3.77-1.343 5.673l-.744-.133c.5-2.142.981-4.287 1.508-6.42.795-3.216 1.645-6.414 2.372-9.648.59-2.622.929-5.275 1.262-7.928.224-1.772.334-3.555.464-5.339.168-2.259.364-4.518.68-6.761.301-2.115.671-4.222 1.036-6.33.762-4.37 1.24-8.776 1.709-13.189.319-3.013.656-6.022 1.035-9.029.474-3.737 1.189-7.436 1.69-11.163.729-5.441 1.712-10.841 2.575-16.258.026-.159.039-.316.079-.473.122-.494-.102-.775-.53-.977-1.063-.494-2.197-.793-3.295-1.197-4.287-1.582-8.423-3.47-12.179-6.138-1.824-1.291-3.459-2.793-4.863-4.543-.805-1.007-1.384-2.142-1.808-3.356a5.39 5.39 0 01-.261-2.456c.075-.609.014-.672-.593-.656-.406.01-.813.081-1.217.158-1.675.312-3.301.811-4.939 1.265-5.102 1.414-10.28 2.487-15.436 3.68-4.393 1.015-8.532 2.67-12.213 5.36-1.498 1.095-2.753 2.413-3.727 4.007a52.003 52.003 0 00-5.318 11.79c-.515 1.672-1.278 3.261-1.66 4.981-.043.204-.082.515-.495.316-.207-.1-.289.271-.386.451-.829 1.5-1.615 3.027-2.234 4.632-.423 1.1-.826 2.213-1.394 3.239-.37.667-.303 1.117.211 1.681 1.675 1.833 3.3 3.714 4.94 5.575.652.738 1.312 1.478 1.946 2.232.29.346.596.527 1.06.484.537-.048 1.063.109 1.594.204.683.122 1.366.249 2.05.376 1.065.201 2.046.083 2.94-.615.52-.403 1.13-.689 1.7-1.026 1.172-.682 2.412-.84 3.738-.574.944.188 1.642.675 2.005 1.569.219.536.527.88 1.062 1.125.953.441 1.497 1.251 1.636 2.313.042.316.017.634.03.954.01.306-.252.698.043.9.299.203.707.266 1.074.317.312.042.295-.255.31-.479.054-1.113.129-2.233.155-3.346.11-4.939-.493-9.814-1.44-14.659-1.413-7.246-2.615-14.531-4.215-21.739-.123-.542-.36-1.076-.282-1.737.394.172.399.481.471.73 1.17 4.123 2.012 8.322 2.804 12.532.554 2.919 1.095 5.835 1.797 8.746-.023-.563-.056-1.128-.061-1.693-.005-.589-.195-1.186.006-1.782.294.091.288.297.304.483.53 5.566 1.191 11.12 1.326 16.716.05 2.105.002 4.217-.223 6.312-.046.411.023.737.303 1.052.565.627.59 1.383.42 2.162-.015.06-.03.125-.06.182-.516 1.113-.598 2.134.423 3.078.486.449.536 1.137.425 1.797-.08.473-.196.934-.39 1.376-.724 1.668-1.508 3.292-2.615 4.747-.434.572-.423.589.022 1.136 4.652 5.739 9.307 11.479 13.962 17.224 1.161 1.437 2.323 2.869 3.489 4.307.078.101.167.194.225.306.18.34.059.579-.316.57-.312-.008-.623-.083-.932-.143a1082.238 1082.238 0 00-18.546-3.322c-.282-.05-.562-.081-.843-.141-.492-.103-.746.083-.901.576-1.38 4.476-3.198 8.791-4.573 13.268-.084.274-.213.531-.325.795l-.743-.133c.565-1.653 1.116-3.313 1.695-4.964 1.044-2.97 2.115-5.93 3.159-8.9.235-.661.165-.78-.51-.901a120.413 120.413 0 00-3.638-.603c-.589-.091-.603-.065-.683.581-.09.76-.137 1.542-.45 2.242-1.121 2.494-2.215 4.997-3.467 7.423-.652 1.267-1.69 2.093-3.01 2.604-.855.329-1.763.465-2.603.816-4.09-.743-8.193-1.477-12.29-2.211zm71.835-124.93c-.305-.305-.268-.612-.298-.887-.484-4.57-2.392-8.516-5.223-12.045-.637-.793-1.354-1.534-2.262-2.02-1.544-.83-3.006.075-2.97 1.835.01.474.076.958.188 1.422.536 2.236 1.062 4.48 1.662 6.698.513 1.894 1.319 3.663 2.54 5.221.537.684 1.155 1.253 1.951 1.636.599.286 1.076.198 1.567-.2.303-.25.515-.631 1.038-.793-.171.813-.548 1.381-1.149 1.727-.51.289-.687.686-.74 1.226-.076.762-.121 1.535-.284 2.277-.667 3.018-1.174 6.075-2.037 9.043-.424 1.466-.83 2.945-1.506 4.323-.457.935-.478.946.258 1.714a26.075 26.075 0 001.644 1.591c1.651 1.443 3.325 2.86 4.987 4.286 1.306 1.116 2.68 2.138 4.054 3.165.38.285.708.397 1.05-.048 1.096-1.419 2.602-2.277 4.172-3.036 2.017-.98 4.107-1.776 6.17-2.635.328-.134.731-.183.939-.599-.161-.12-.276-.227-.41-.304-1.984-1.132-3.844-2.462-5.737-3.736-3.665-2.474-6.431-5.736-8.444-9.682-.093-.18-.3-.367-.074-.606.359.103.428.453.584.712 1.534 2.526 3.306 4.857 5.57 6.752a56.787 56.787 0 009.604 6.482c1.177.635 2.438 1.034 3.759 1.242 3.542.552 6.358-1.132 7.558-4.541.137-.39.27-.78.407-1.17 1.33-3.82 3.107-7.382 5.813-10.41.38-.424.741-.87 1.068-1.337 1.607-2.276 2.551-4.82 2.858-7.6.245-2.24.074-4.464-.465-6.657-.31-1.26-.33-2.526-.185-3.806.034-.284.093-.577.074-.86-.207-3.087-.053-6.197-.484-9.277-.032-.237-.002-.497-.268-.728-.655 1.425-1.487 2.635-2.868 3.347-1.325.683-3.475.737-4.176.043.352-.029.658-.066.97-.082 1.288-.073 2.086-.798 2.522-1.973.201-.542.259-1.11.248-1.695-.027-2.203-.939-4.019-2.429-5.563-1.17-1.217-2.48-2.28-3.804-3.318-.462-.362-.937-.452-1.504-.336-1.511.298-2.745 1.036-3.765 2.198-1.538 1.753-2.605 3.818-3.793 5.807-1.174 1.964-2.301 3.96-3.923 5.592-1.508 1.518-3.257 2.603-5.411 2.872-.628.08-1.238.203-1.832.424-.31.113-.636.243-.977.12.033-.255.19-.31.336-.355 1.536-.501 2.634-1.538 3.559-2.843 1.866-2.624 2.741-5.75 4.257-8.553a11.861 11.861 0 00-1.898 2.363c-1.263 2.097-2.859 3.85-4.869 5.244-2.204 1.524-3.658 3.654-4.442 6.237-.462 1.522-.837 3.07-1.281 4.6-.693 2.382-1.572 4.711-1.725 7.228.003.063-.085.134-.174.268zm19.309-45.831c-.39-.056-.556-.312-.751-.51-.856-.877-1.897-1.338-3.086-1.537-1.583-.264-3.148-.158-4.703.117-2.418.43-4.836.879-7.214 1.494-2.29.592-4.362 1.619-6.16 3.191-2.949 2.585-4.943 5.828-6.3 9.494-.571 1.546-1.029 3.132-1.235 4.834.453-.43.394-1.153.978-1.482.027.15.063.218.05.269-.225.764-.444 1.53-.682 2.288-1.164 3.767-1.323 7.58-.481 11.446.102.467.284.572.717.432.558-.18 1.119-.117 1.663.125.159.072.335.219.557-.03-.202-.494-.427-1.017-.633-1.545-.427-1.08-.422-1.083-.302-1.539.158.077.214.227.27.371.937 2.342 2.381 4.36 3.904 6.334 1.811 2.348 3.18 4.921 3.858 7.843.044.19.037.43.301.555.735-2.606 1.445-5.144 2.164-7.685.365-1.29.834-2.545 1.514-3.696.852-1.437 1.94-2.664 3.285-3.643 1.932-1.408 3.583-3.07 4.856-5.14.965-1.567 2.189-2.953 3.534-4.21 1.09-1.02 2.246-1.946 3.597-2.59.285-.137.559-.382.937-.252-.09.307-.32.376-.509.478-2.167 1.168-3.687 2.925-4.687 5.184-.747 1.688-1.528 3.356-2.297 5.03-.693 1.51-1.501 2.946-2.598 4.196-.13.15-.389.248-.295.535.245.044.441-.07.64-.15 1.927-.76 3.462-2.046 4.744-3.662 1.125-1.418 2.04-2.98 2.97-4.538 1.103-1.856 2.147-3.751 3.591-5.372 1.086-1.218 2.334-2.127 3.979-2.367.18-.026.381-.028.505-.199.049-.237-.347-.317-.173-.638.488.097.91.385 1.315.664 1.731 1.192 3.336 2.535 4.781 4.071a8.73 8.73 0 011.342 1.86c1.178 2.235 1.599 4.508.236 6.828-.014.027.037.093.07.177.465-.134.823-.446 1.171-.76 1.416-1.288 1.913-2.963 1.843-4.831-.075-2.173-.984-4.003-2.398-5.61-.167-.19-.467-.33-.391-.784 1.145.716 2.001 1.65 2.44 2.799.753 1.966.789 1.553 2.43 2.941.458.39.89.815 1.306 1.256 1.294 1.383 2.155 2.993 2.434 4.894.124.87.101 1.738-.018 2.613a.78.78 0 00.242-.308c1.142-2.706.915-5.36-.364-7.96-1.222-2.484-3.097-4.43-5.113-6.246-1.656-1.492-3.471-2.776-5.28-4.069-.268-.192-.6-.338-.837-.877 1.218.45 2.1 1.147 3.056 1.771.077-.376-.072-.562-.163-.756-.537-1.133-1.277-2.133-2.076-3.09-2.784-3.328-6.419-5.56-9.944-7.931a4.467 4.467 0 00-1.946-.71c-.546-.064-.546-.064-.644.627zM14.269 111.864c.271.308.455.52.647.732 3.035 3.305 6.075 6.607 9.104 9.92a1338.395 1338.395 0 0115.507 17.26 741.3 741.3 0 0111.53 13.386c.58.687.605.701 1.278.186 1.338-1.019 2.793-1.24 4.377-.725.97.314 1.937.617 2.883-.052.049-.035.12-.037.18-.055.679-.211.68-.215.623-.924a5.034 5.034 0 00-.093-.663c-.28-1.294-.332-2.599-.244-3.909.131-1.846.803-3.398 2.408-4.422.426-.27.845-.552 1.276-.817a79.93 79.93 0 011.711-1.005c.326-.182.377-.4.135-.689-.122-.147-.251-.286-.38-.429-1.64-1.865-3.276-3.729-4.917-5.594-6.733-7.645-13.595-15.168-20.496-22.66-.443-.479-.903-.687-1.566-.68-7.526.069-15.04.41-22.55.916-.43.033-.874-.008-1.413.224zm220.479 7.07c.878-.325 1.777-.434 2.651-.677 2.483-.698 4.963-1.41 7.537-1.74 1.03-.129 2.047-.347 3.066-.545 1.235-.241 2.47-.478 3.729-.609a18.754 18.754 0 001.862-.317c.281-.056.557-.195.621-.52.073-.378-.189-.603-.467-.759-.608-.345-1.241-.622-1.96-.626a25.073 25.073 0 00-3.014.155c-2.063.237-4.132.46-6.214.443a66.132 66.132 0 00-4.155.114c-.783.043-1.576.036-2.361.006-1.017-.037-2.214-.502-2.717-1.021.325-.12.627.035.926.098 1.399.313 2.808.363 4.228.271.438-.028.881-.06 1.32-.068 3.084-.055 6.172-.109 9.232-.534.809-.111 1.633-.118 2.449-.155 1.078-.043 2.148-.184 3.222-.285-.416-.128-.822-.119-1.226-.152-2.743-.212-5.47-.185-8.186.317-1.115.205-2.243.316-3.371.432-1.002.1-2.012.16-3.013-.053-.194-.039-.412-.044-.543-.251.255-.186.48-.169.693-.16 1.454.043 2.892-.133 4.331-.285.407-.043.815-.09 1.214-.173.514-.11.663-.402.525-.908-.124-.451-.433-.676-.86-.8-1.03-.295-2.057-.219-3.089-.023-1.858.351-3.681.859-5.557 1.116a12.58 12.58 0 01-5.331-.387c-1.541-.454-3.1-.863-4.69-1.138-3.493-.597-6.837-.184-10.059 1.287-1.46.669-2.719 1.586-3.756 2.822-1.102 1.311-2.224 2.6-3.416 3.827a8.65 8.65 0 00-1.721 2.608 24.857 24.857 0 01-1.514 2.967c-2.986 4.912-6.009 9.797-9.764 14.161-.586.68-.575.702-.044 1.476 1.049 1.538 2.324 2.865 3.694 4.108 1.737 1.574 3.865 2.389 5.985 3.221.428.169.733.03.918-.394.102-.233.212-.464.318-.695 1.182-2.603 2.36-5.212 3.556-7.812 1.181-2.569 2.534-5.06 3.614-7.676a25.027 25.027 0 012.008-3.891c.422-.667.962-1.158 1.617-1.566 1.249-.779 2.604-1.274 4.042-1.532 4.118-.747 8.241-1.488 12.446-1.617 1.603-.05 3.22-.185 4.673-.985 1.569-.861 3.261-1.329 5.004-1.648 1.827-.333 3.662-.631 5.481-1.004 2.006-.407 3.938-1.117 5.925-1.609 1.982-.493 3.928-1.167 5.994-1.283.37-.021.954.156 1.055-.356.086-.423-.404-.68-.735-.917a2.517 2.517 0 00-.854-.409c-.798-.205-1.605-.36-2.431-.286-1.068.093-2.132.197-3.194.315-.189.019-.447-.061-.562.227.134.106.261.201.377.304.972.839.858 1.681-.325 2.149a5.773 5.773 0 01-1.465.359c-1.881.208-3.725.615-5.578.992-1.972.403-3.987.558-5.93 1.155-1.41.432-2.866.74-4.31 1.059-.623.144-1.277.21-1.901-.123zm-171.716 28.98c.194-.105.27-.188.346-.184.87.026 1.68-.234 2.472-.55 1.684-.672 3.414-1.085 5.246-1.027a5.295 5.295 0 002.041-.333c1.022-.386 1.814-1.02 2.047-2.174.198-.972-.085-1.47-1.03-1.707-.58-.143-1.182-.27-1.772-.274-1.083-.011-2.128-.217-3.184-.421-.4-.076-.807-.149-1.208-.226-.807-.154-1.573-.012-2.286.376a24.212 24.212 0 00-3.334 2.16c-.723.56-1.167 1.3-1.36 2.219a12.156 12.156 0 00-.106 4.569c.077.472.178.948.198 1.424.023.708-.01 1.434-.599 1.936-1.256 1.072-1.82 2.498-2.045 4.082a57.702 57.702 0 00-.571 6.959c-.058 3.358.988 6.35 2.969 9.019.876 1.183 1.97 2.063 3.46 2.335 1.334.244 1.348.251 1.81-1.074.053-.149.094-.306.147-.455 1.086-2.991 2.11-6.013 3.875-8.685.07-.103.177-.229.166-.332-.069-.581.358-.683.738-.817.576-.2 1.18-.198 1.775-.169 1.165.059 2.328.104 3.489.22 2.485.248 4.52-.535 6.052-2.559.668-.883 1.396-1.727 2.052-2.621 1.016-1.394 1.71-2.966 2.372-4.554.415-.986.321-1.928-.433-2.757-.378-.415-.48-.453-.768.012-1.096 1.779-2.403 3.435-3.162 5.419-.087.231-.14.544-.539.598.055-1.113.455-2.044.978-2.914.665-1.12 1.364-2.219 2.046-3.326a9.57 9.57 0 001.187-2.799c.332-1.377.213-1.683-.917-2.517-.902-.662-1.28-.571-1.73.433-1.069 2.358-2.534 4.472-3.97 6.6-.127.189-.226.47-.556.421-.142-.286.038-.509.15-.715.317-.585.648-1.166 1.009-1.723.914-1.413 1.802-2.839 2.548-4.354.457-.925.721-1.9.805-2.931.06-.726-.088-1.398-.571-1.972-.745-.885-1.095-.846-1.574.191-1.266 2.732-3.242 4.908-5.339 6.981-.137.135-.275.389-.565.159.083-.433.405-.703.666-1.008 1.151-1.351 2.322-2.678 3.37-4.115.6-.827 1.058-1.733 1.454-2.67.378-.886-.086-2.194-.947-2.536-.887-.352-1.827-.51-2.782-.291-.174.041-.457.058-.454.266.005.56-.48.613-.774.859-.358.292-.812.471-1.07.82.015.215.128.279.224.359.917.771 1.13 1.624.688 2.716-.433 1.069-1.22 1.757-2.28 2.141-.836.303-1.712.421-2.6.407-1.466-.022-2.88.178-4.254.732-.638.257-1.313.444-1.984.618-.496.147-1.028.197-1.616-.241zm-19.718 22.185c-.29-.418-.157-.702-.103-.967.191-.906.418-1.8.61-2.706.552-2.566 1.414-5.024 2.372-7.455.518-1.319 1.36-2.359 2.539-3.112.64-.406 1.274-.813 1.914-1.218.283-.181.408-.39.15-.696-.555-.654-1.11-1.317-1.66-1.97-.223-.262-.442-.316-.72-.052-1.731 1.656-3.242 3.473-3.995 5.82-.495 1.55-.79 3.155-1.243 4.708-.859 2.945-.893 5.883-.395 8.903.605 3.66 1.954 7.03 3.865 10.143 1.362 2.22 3.02 4.266 4.585 6.354 1.589 2.121 3.823 3.119 6.334 3.467 2.028.281 4.08.355 6.096.764a5.407 5.407 0 001.695.077c2.507-.274 4.612-1.155 5.701-3.716.86-2.02 1.839-3.985 2.76-5.974.066-.138.188-.265.118-.442-.154-.075-.225.061-.313.132-1.253 1.024-2.713 1.187-4.205.833-2.914-.691-5.604-1.953-8.066-3.691-2.263-1.591-4.154-3.529-5.476-6.012-1.785-3.351-2.43-6.97-2.568-10.716-.06-1.673.107-3.311.638-4.907.336-1.005.85-1.819 1.792-2.354.81-.458 1.485-1.103 2.244-1.873-.735-.132-1.326-.209-1.907-.347-1.223-.286-2.3-.016-3.286.747-.92.717-1.84 1.458-2.866 2.007-1.71.913-2.76 2.33-3.405 4.152-.896 2.519-1.671 5.079-2.446 7.64-.232.782-.348 1.605-.759 2.461zm73.454-86.33c1.838-1.979 2.324-4.518 2.794-7.162-1.145.017-2.13.327-3.087.725-1.936.81-3.176 2.178-3.555 4.341-.317 1.79-.793 3.54-1.586 5.191-.536 1.119-.997 2.27-1.463 3.42-.434 1.08-.425 2.18.014 3.27.321.805.715 1.57 1.193 2.291 1.501 2.27 3.476 4.05 5.676 5.591 3.689 2.588 7.739 4.446 11.927 5.991 1.479.545 2.96 1.104 4.577 1.08 1.035-.012 1.311-.184 1.4-1.214.104-1.239.176-2.484.234-3.727a3.234 3.234 0 00-.674-2.15 5.88 5.88 0 00-1.279-1.275c-1.037-.735-2.082-1.452-3.115-2.187-3.857-2.743-7.477-5.797-11.015-8.941-.857-.761-1.678-1.559-2.331-2.514-.458-.67-.778-1.393-.844-2.214-.084-1.056.401-2.406 1.112-3.006.156.37-.003.693-.082 1.017-.081.342-.216.665-.293 1.007a2.675 2.675 0 00.242 1.86c.137.261.331.296.492.017.242-.415.371-.869.516-1.363-.271-.083-.489.245-.853-.047zm77.181 53.257c-.502.238-.657.591-.862.906-.83 1.278-1.662 2.57-2.704 3.665a25.057 25.057 0 00-3.262 4.298c-.632 1.039-.619 1.976.001 2.95.444.696.93 1.371 1.427 2.034 2.55 3.387 5.706 6.058 9.405 8.051 1.649.888 3.42 1.277 5.299 1.031.599-.081 1.054-.327 1.395-.849.923-1.411 2.033-2.682 3.25-3.833 1.553-1.471 2.731-3.236 3.987-4.949.692-.946.701-1.841.027-2.81a28.352 28.352 0 00-2.894-3.549 12.215 12.215 0 00-.683-.663c-.232-.205-.44-.237-.596.096-.423.927-.846 1.849-1.272 2.77-.172.364-.064.601.294.766.516.237 1.032.479 1.534.752 1.036.571 2.115 1 3.301 1.107.197.016.453-.006.523.286-.55.326-.551.33-1.028.279a5.923 5.923 0 01-2.166-.644c-1.677-.893-3.394-1.711-5.181-2.349-2.997-1.077-5.477-2.875-7.503-5.335-.97-1.185-2.006-2.325-2.292-4.01zm-92.861 46.008c-.008-.377-.214-.506-.349-.669-4.043-4.999-8.09-9.999-12.143-15a2341.62 2341.62 0 00-4.274-5.267c-.492-.608-.559-.606-1.076-.024-.423.474-.816.968-1.255 1.429-1.14 1.198-2.516 1.853-4.19 1.895-1.008.027-2.012-.057-3.018-.073-.954-.017-.954-.017-.664.941.055.184.11.367.169.551.65 2.035.851 4.119.778 6.241-.053 1.499-.111 2.997.05 4.496.112 1.027.096 1.034 1.09 1.207 2.02.353 4.06.535 6.082.902 5.896 1.075 11.797 2.117 17.701 3.17.346.067.688.128 1.099.201zm-41.14-29.875c-.407-.015-.696.232-.98.451-.903.692-1.737 1.487-2.697 2.076-1.063.658-1.576 1.579-1.817 2.755-1.036 5.005-.27 9.773 1.953 14.331.909 1.859 2.204 3.431 3.786 4.746 1.94 1.615 4.073 2.908 6.42 3.829 1.267.502 2.549.943 3.911 1.077 1.648.16 2.86-.563 3.597-2.05.418-.841.47-1.714.38-2.612-.169-1.626-.123-3.251-.081-4.877a18.66 18.66 0 00-1.077-6.868c-.278-.778-.572-.927-1.36-.827-.404.053-.696.261-.947.568a10.103 10.103 0 00-1.142 1.747c-1.306 2.518-2.278 5.173-3.21 7.85-.073.203-.193.433.008.623.193.184.423.061.627.006a7.075 7.075 0 003.162-1.814 11.057 11.057 0 001.925-2.581c.112-.207.162-.564.533-.507.03.078.058.111.05.134-1.073 3.109-3.127 5.098-6.393 5.641-2.247.374-4.21-.287-5.709-2.039-2.054-2.407-3.356-5.18-3.604-8.386-.233-3.044.085-6.057.576-9.049.234-1.442.793-2.75 1.862-3.782.107-.102.247-.197.227-.442zM112.34 77.55c.066.031.136.068.202.099.018.061.064.127.046.177-.975 2.703-2.45 5.012-4.957 6.525-1.653.995-3.244 2.074-4.457 3.626-.649.828-1.173 1.732-1.637 2.675-.072.142-.137.303-.053.454.124.224.335.127.509.086.43-.097.855-.213 1.283-.325 1.796-.464 3.575-1.022 5.46-.998.408.006.536-.27.667-.565 1.149-2.58 2.406-5.116 2.814-7.983.195-1.382.843-2.596 1.977-3.482.783-.602 1.618-1.098 2.556-1.408.781-.26 1.569-.47 2.389-.536.419-.03.697-.183.786-.654.362-1.945.728-3.89 1.002-5.845.06-.442-.078-.722-.501-.9-.964-.403-1.65-1.158-2.297-1.953-.504-.62-.879-1.329-1.277-2.017-.298-.516-.354-.526-.735-.098-1.562 1.75-3.022 3.58-4.103 5.695-1.244 2.437-1.9 5.052-2.285 7.75-.213 1.518-.514 3.016-1.057 4.457-.042.108-.094.248.123.345.807-.637 1.436-1.459 2.028-2.317.595-.872 1.053-1.84 1.517-2.808zm-98.49 33.492a548.255 548.255 0 0119.915-.979 90.89 90.89 0 00-3.72-.459c-2.063-.21-4.129-.406-6.194-.603-2.506-.241-5.006-.487-7.512-.719-.412-.04-.845-.04-1.13.323-.545.688-1.047 1.408-1.36 2.437zm244.414.686c.218.092.243.111.276.117 1.508.169 2.924.519 3.789 1.965.115.19.305.224.498.176.366-.079.748-.141 1.094-.276.479-.189.545-.466.241-.892-.413-.57-.985-.871-1.663-1.002-1.341-.259-2.681-.243-4.235-.088z" fill="#fff" stroke="#055687"/></svg>