<svg width="329" height="212" fill="none" xmlns="http://www.w3.org/2000/svg"><path d="M71.902 66.489c-8.101-8.228-20.185-11.206-29.505-9.199 2.029-3.07 3.908-7.807 6.08-9.211 14.228.735 32.554 10.845 28.94 22.419" stroke="#23485F" stroke-width="1.3" stroke-miterlimit="10"/><path d="M71.962 66.014c7.61 6.37 18.878 10.246 26.33 18.688 13.334 18.109 20.146 35.456 20.979 49.689M42.395 57.047C36.015 65.64 19.572 72.61 16.17 80.793 7.92 87.924 3.696 95.13 4.684 108.787c.947 9.275-5.099 14.202 2.836 27.846" stroke="#23485F" stroke-width="1.3" stroke-miterlimit="10"/><path d="M92.07 87.311c23.582 47.942 29.866 50.009 42.023 63.277 1.722 2.158 1.978 4.193 1.568 6.221M16.377 79.465c20.539.606 34.021-3.043 50.423 12.006l11.078 7.05m76.875 88.553l-14.236-2.899c-9.913-1.933-15.522 1.239-20.123-3.859-4.865 1.323-8.471.331-11.069-2.484-2.294-.687-4.601.415-6.902-.272-6.028-6.194-16.956-29.089-30.461-49.895" stroke="#23485F" stroke-width="1.3" stroke-miterlimit="10"/><path d="M97.984 85.188c-2.411-.362-5.31.129-8.77 1.234-10.918 9.123-18.01 23.326-23.164 40.122m-54.404-17.935c3.756 24.44-3.337 54.197 4.731 77.344m-5.523-90.795s-7.365 26.706 1.972 45.958M36.48 79.465c-7.495 15.84-11.882 32.785-14.192 50.442" stroke="#23485F" stroke-width="1.3" stroke-miterlimit="10"/><path d="M33.118 143.358c-2.21 20.238-7.751 35.391-17.482 44.173-5.174 3.461 3.312 6.696 7.12 10.008 6.609 2.137 20.61 3.657 24.37-2.559m-31.933-4.542c19.289 4.489 33.907-2.837 50.857 2.242" stroke="#23485F" stroke-width="1.3" stroke-miterlimit="10"/><path d="M35.297 180.811c19.305 5.993 34.12 5.033 53.136 12.242 6.533 2.53 16.257-1.491 13.927-10.199-1.449-8.311-5.583-11.538-11.323-14.836m3.394-2.241l1.183 4.484M54.22 106.367c9.933 14.066 7.408 27.444 29.568 40.353m1.186 6.726s-1.03 10.872-21.289 20.177m35.482 4.483c-11.471-8.32-11.471-10.885-29.568-3.456M3.5 128.786c-.808 8.661-.407 17.239-2.437 25.989 0 0-1.216 12.525 7.033 18.848m0 16.814l-4.73-21.298" stroke="#23485F" stroke-width="1.3" stroke-miterlimit="10"/><path d="M87.34 192.679c-26.774 8.44-31.419 2.48-41.016 1.92l-3.927 1.693m89.885-36.708c6.715 2.743 10.348-4.938 3.18-6.138m150.576-72.861c13.741 7.605 22.942 15.075 28.98 22.442 8.659 16.427 4.928 27.554 7.389 41.328 1.157 12.802 3.751 28.604 4.941 41.464.615 6.632-2.28 13.838-2.801 18.069m-8.942-101.154c-5.811-2.729-9.597.719-20.106 15.963m-11.826-34.748s23.5 13.71 26.02 17.935M251.739 86.19c.447 2.527 2.602 6.162 2.602 8.412l5.344 1.676c2.533-2.375 4.603-2.375 7.429-5.186m-7.061 5.434c5.322 18.6.453 22.626-3.862 79.945l-11.78 8.361L236.364 174c8.331-66.235 16.92-74.242 19.395-78.842" stroke="#23485F" stroke-width="1.3" stroke-miterlimit="10"/><path d="M237.934 143.358c-4.118 11.223-4.556 20.967-3.345 30.044-.438 4.182-.629 8.128-.287 11.544 3.393 2.814 10.021 5.497 25.071 5.071 8.708.962 17.218.131 25.967-1.092.527-.072 2.538-.406 3.065-.485" stroke="#23485F" stroke-width="1.3" stroke-miterlimit="10"/><path d="M299.046 184.832c-1.097 2.343-2.1 3.477-3.001 3.354-8.151-.123-15.339-2.15-23.019-3.231" stroke="#23485F" stroke-width="1.3" stroke-miterlimit="10"/><path d="M294.166 142.236c-3.232 21.192 1.586 34.897 8.241 46.884 0 0 1.3 1.21-2.892 12.526" stroke="#23485F" stroke-width="1.3" stroke-miterlimit="10"/><path d="M295.946 147.841c-2.247-5.266-3.861-11.06-1.99-19.813.964-4.096 2.928-7.215 3.911-12.694m-1.183-5.604s-4.499 13.752-3.365 19.056m-11.557-57.168c-1.523 5.597-11.439 8.874-19.379 13.924l11.755 12.979c3.967-5.963 9.765-12.568 11.899-17.888-2.665-3.643-3.786-6.406-4.275-9.015zm-22.928 15.341c-2.665-1.587-5.202-4.463-6.885-7.494-2.594 4.676-3.869 10.24-7.308 15.693 3.804-3.167 5.789-7.293 8.977-9.637l2.594 1.107m-5.656-4.921c-9.827 4.246-15.843 9.215-25.292 13.887-11.574 12.252-21.407 26.488-29.764 42.366-.202.394-.324 1.641-.533 2.035m30.367-43.715s-2.591 9.873 1.568 15.693m9.458-17.936c-8.663 12.991-15.453 18.307-6.244 43.717m2.417-25.782c-2.479 14.411-3.167 26.344.281 32.507m2.367-12.331c-3.103 11.557-2.953 20.175-.713 26.903m-17.027-51.563s.422 10.601 9.462 16.814m4.731 17.934c-10.636 16.501-22.017 21.457-42.578 12.185" stroke="#23485F" stroke-width="1.3" stroke-miterlimit="10"/><path d="M170.133 154.567c7.983-6.284 15.812-10.879 23.162-11.209 9.29.54 18.875 5.408 28.878 1.08m-13.013-4.543c-9.28-1.879-16.257-1.403-18.923 3.463m-13.011-5.605c1.203 1.427 4.494 6.22.294 11.21" stroke="#23485F" stroke-width="1.3" stroke-miterlimit="10"/><path d="M192.601 142.237s-.265-1.757-.737-2.367c-.515-.208-14.638-2.117-14.638-2.117m14.192 2.242h3.549m1.184 25.775c5.357.138 4.289-2.288 11.827-6.72m-33.115 12.274s15.027 1.135 22.472-6.668m28.381-68.376l23.654-11.21m35.484 32.506s4.799 22.205 9.462 24.661M188.96 64.894c1.648 2.622-4.056 7.326-14.097 13.267 4.213 2.22 7.072 5.35 10.608 8.03 2.176-5.674 7.415-9.962 7.121-15.077l-3.632-6.22zm-23.145 2.241c-.398 3.436.145 5.073 9.045 11.1-5.112 1.651-6.924 4.571-10.644 7.956-1.317-6.17-1.317-7.955-1.029-13.022l2.628-6.034z" stroke="#23485F" stroke-width="1.3" stroke-miterlimit="10"/><path d="M180.774 81.992l-5.546 4.199-4.355-.292-1.926-4.192m5.916 4.483c1.904 8.18 3.304 13.09 1.593 51.563m-6.325-51.563c-4.901 7.599-7.465 23.814-9.045 43.637m-1.486 24.682c-.053.991-.074 2.423-.114 3.42m33.116-86.311c8.395 4.267 17.696 6.128 25.204 12.814 3.68 2.188 4.207 6.808 5.547 12.968m-60.32-23.54c-8.69 4.404-24.203 7.897-26.071 13.218-4.18 4.59-9.385 17.327-15.324 36.103m21.055-31.386c-1.883 18.738-1.497 23.429 6.148 44.837m-11.829-49.321s1.47 5.137 4.731 11.21m21.289-22.418s-22.145 6.881-26.02 11.209m73.331-1.122s-4.335 27.197-5.913 35.87" stroke="#23485F" stroke-width="1.3" stroke-miterlimit="10"/><path d="M220.987 85.653c-1.831-.653-3.258-.68-4.159-.458 0 0-5.249 5.345-8.851 13.326M191.418 74.98c9.191 4.606 20.638 6.856 24.838 11.21m-11.887 74.591l7.76-.609.579 5.205-17.741 1.52m13.01-1.12c2.092 6.55 5.595 13.559 4.535 40.353m-8.082-40.353s7.392 11.379 7.087 31.386m-70.995-13.451c.207 3.561.593 6.517 1.22 9.181-1.983 5.074-3.937 12.1-5.913 21.084m14.68-77.345c-3.854 3.682-3.969 13.311.698 13.451" stroke="#23485F" stroke-width="1.3" stroke-miterlimit="10"/><path d="M150.418 136.632h-4.708c-5.243 1.219-5.243 14.841-.259 14.568l5.755-1.752m27.204-10.395c-3.495-1.644-4.666-5.989-8.938-7.292l-7.364-2.033c-1.519-.143-4.126-1.733-4.563-.437-.554 2.129 1.755 3.855 6.622 5.226 1.72.505 2.948 1.16 3.391 2.026-.423.757-.652 1.453-1.324 1.89 0 0-2.212.579-6.484.143-4.271-.437-5.887-2.47-5.887-2.47-.79-1.248-1.678-.846-2.655.723.291 3.336.797 4.182 8.542 6.529m11.565 10.033c-3.775.259-7.458 1.926-11.323.776h-4.145s-3.319-2.463-3.456-5.205m7.095-14.572h5.914m-10.487 2.242s-1.465-.906 4.574-4.484" stroke="#23485F" stroke-width="1.3" stroke-miterlimit="10"/><path d="M168.325 132.149c1.677-1.701 2.197-3.817 1.509-5.247-.295-.327-.639-.567-1.404-.088-1.467.919-2.962 1.534-5.397 3.65m-2.364 12.894c-2.823 0-5.352-1.027-8.036-1.534 0 0-2.039-1.837-1.24-2.95" stroke="#23485F" stroke-width="1.3" stroke-miterlimit="10"/><path d="M151.03 137.753c-1.555.092-2.798 3.141-1.873 4.534.622 2.257 2.364 3.559 5.068 4.03 2.148.504 4.302.557 6.442 1.525m-62.683 43.716l-.557 5.605s-.842-3.004-14.819-3.338m14.191 35.845c14.176-20.542 3.217-21.979.351-33.628m-6.263 1.121s1.811 23.252 5.914 32.507M43.91 210.584c9.437-1.712 21.073-2.537 35.82-2.094.945.738.466 1.688-.473 1.676-11.49-.663-23.152-.15-34.988 1.569-.653-.1-.98-.619-.36-1.151zm16.23 1.151c.65 0 1.178.759 1.178 1.681 0 .931-.529 1.682-1.178 1.682-.658 0-1.187-.759-1.187-1.682 0-.922.529-1.681 1.187-1.681zm-41.403-16.814c-8.04 11.675-6.327 28.161-3.867 41.474m5.053-32.506s11.347 9.511 26.02 3.754m-21.288-4.876s9.49 6.267 21.29 1.691M98.87 17.613c4.346-1.313 8.46-1.059 12.123-.222-1.223-2.84-2.816-5.49-4.9-7.893-15.39-11.375-42.112-11.311-46.78.076-6.041 2.314-9.834 17.942-8.297 30.699 8.18 5.94 21.795-2.023 21.795-2.023s3.97-5.085 5.856-6.892" stroke="#23485F" stroke-width="1.3" stroke-miterlimit="10"/><path d="M104.397 16.692l3.049 3.649c-2.356-.574-5.142.899-7.664 2.554l-1.947 5.127c-.27 3.316-6.232 5.623-6.912 11.089l-4.766-7.238" stroke="#23485F" stroke-width="1.3" stroke-miterlimit="10"/><path d="M102.916 21.176c2.426 5.768-.385 11.08-.571 16.605-1.496.788-3.403 1.153-3.922 3.164 1.728 8.15 3.078 9.985.997 10.922-.684.306-2.958.15-3.297.827l-.465 2.604c-.804 1.126-1.609 1.054-2.426 1.575.625.703.725 1.536.352 2.486l-2.193 1.36c-.804 2.032-.465 4.967-2.426 6.1-2.719.788-6.487.072-11.087-1.823m8.279-32.425c-1.007-6.647-7.937-3.163-8.28 3.93.156 7.151 1.633 9.786 4.589 7.302m-3.791 3.156c-1.236 7.012 2.015 11.16-.797 17.934M50.674 48.08l2.365-5.605m110.195-8.969l-1.172 8.553c-1.026 13.574 1.786 20.022 6.685 24.688 1.486 1.375 5.185 2.06 9.337.968 7.565-1.652 8.66-6.77 10.97-12.76m-18.518-9.118c-.342 4.481-3.837 6.694.776 8.968m20.614-10.692c3.04-1.877 3.594 1.7 2.577 5.133-2.075 4.949-3.497 6.785-5.447 4.73" stroke="#23485F" stroke-width="1.3" stroke-miterlimit="10"/><path d="M193.331 43.596c.462-3.92.834-8.115-.269-12.116-7.901-11.108-24.614-10.168-32.192-.66-.613 2.452.31 9.347.848 13.896" stroke="#23485F" stroke-width="1.3" stroke-miterlimit="10"/><path d="M163.033 33.739c3.309-.114 3.296.41 8.442.404 4.749.108 9.299-1.137 15.144-.404-.953 5.27-.487 6.305 1.233 7.405-.144 2.85 0 5.768.754 8.055 0 0 1.035-4.669 3.995-5.136m-2.363 9.621s-3.801 8.054-1.768 14.572m64.411-32.507c-2.945 3.958-4.206 8.193-6.735 12.286l.991 3.412c-4.774 7.916-1.407 11.745-.43 17.888.159 5.276.033 8.302 3.507 8.88 15.431.951 20.344-3.412 23.995-11.34" stroke="#23485F" stroke-width="1.3" stroke-miterlimit="10"/><path d="M250.556 50.32c-.847 3.88-6.217 8.597-4.333 11.78 0 0 .702.858 2.928.432m32.761 5.724c6.445-7.791 11.558-21.705 7.285-29.949-9.283-13.468-15.915-9.349-26.814-12.647m3.548 3.363l-3.548-3.363" stroke="#23485F" stroke-width="1.3" stroke-miterlimit="10"/><path d="M264.53 27.902c-6.756.27-10.899 3.837-16.342 5.752l4.355 2.335c5.662.135 4.213 2.47 18.449 2.882-.143 3.425-3.487 5.069-3.774 8.222 1.449 2.2 3.289 2.56 4.937 3.837l2.037 8.358s3.474-5.888 7.112-6.436" stroke="#23485F" stroke-width="1.3" stroke-miterlimit="10"/><path d="M281.205 52.597c5.293-.522 6.912 5.127 1.419 10.803 0 0-3.925 4.032-7.23 2.081M154.968 187.074c6.226-9.292 7.357-17.48 3.371-24.553 0 0-4.102-1.227-13.046-2.349m-5.916-5.605c12.031 8.791 16.672 15.609 12.929 20.177" stroke="#23485F" stroke-width="1.3" stroke-miterlimit="10"/><path d="M159.637 164.656c3.815 2.615 5.765 3.997 5.765 7.995 0 0-1.33 13.62-9.462 12.057m19.368-13.327c.551-.953 2.458-3.888 2.867-6.505.933-3.895-.772-7.964-7.923-10.309l-6.036 2.047c5.425.959 5.284 4.27 6.708 5.501 0 0 .571 1.795-.571 3.441m-6.616-8.742s-3.586-.261-4.138 3.041c-.552 3.295 1.098 5.279 1.098 5.279 1.345 1.038 3.586.789 4.287-.529.552-1.461.273-2.91.416-4.359m-13.009 1.047s2.235-7.625 8.279-2.988" stroke="#23485F" stroke-width="1.3" stroke-miterlimit="10"/><path d="M165.524 163.535c5.021 3.395 10.245 2.588 9.204 12.188-.893 1.481-2.193 1.799-3.29 2.702l-.746 2.428-2.095 1.628c-1.512 3.166-1.716 4.12-7.461 4.59-2.264.076-2.841-1.214-4.015-2.149m-26.023-51.652s-7.676 1.317-8.279 4.484m11.83-3.097c3.546.653 6.238-1.992 10.645 1.975m2.364 14.572l-2.91 2.911s-.985 1.061-6.552-.068m-1.184-10.689s0 8.787 7.097 10.088m-22.471-30.265c.786 4.539 8.21 7.96 14.192 10.089m-13.01 3.362s-1.963-8.635-.83-11.209m24.486 28.023l-1.183 6.725" stroke="#23485F" stroke-width="1.3" stroke-miterlimit="10"/><path d="M171.959 177.614c-.741 6.899-1.052 10.34.203 16.185 0 0 5.062-.126 5.725-2.018.67-1.885.694-15.233.07-20.4m-33.847 25.466s3.545 3.716 14.193-.805m22.471-1.121s8.693-2.643 16.559-11.209m-39.033 5.604s8.217 4.779 13.01 4.47m1.186.015s1.348 7.127 3.548 11.209m73.332-6.986c2.773.146 5.709.229 8.7.26m2.051 0c13.938 0 28.804-1.278 35.623-3.929 0 0 3.659-1.424 4.483-3.917m-49.678 1.033c1.703.054 3.912.081 6.458.081m2.256.007c11.38-.061 27.758-.734 36.229-3.363" stroke="#23485F" stroke-width="1.3" stroke-miterlimit="10"/><path d="M299.049 187.074l1.106 3.71 1.26 1.895m-62.686-4.483l2.366 2.242m-4.731 4.483c-.562 1.044-1.714 3.466-2.365 6.725m6.965-12.33l9.089 1.544c1.066 1.121.425 7.845-1.779 8.545l-1.217-.238c-2.139-.796-4.948-1.883-6.54-1.965l-1.066-.143c-1.397-.978-.698-5.941 1.513-7.743z" stroke="#23485F" stroke-width="1.3" stroke-miterlimit="10"/><path d="M241.258 196.62c-.459-1.44.034-5.285 1.478-6.182l6.174 1.399c1.074 1.42.075 5.544-.986 6.447m-6.832-2.242s2.334 1.112 7.097 2.242m-5.913-7.846c.018.149 1.815 1.927 5.914 2.242m-11.752-6.726c-1.743 3.358-1.603 6.553-.017 10.003.383.368 1.311-.538.996-1.121-1.243-2.572-1.395-5.333.129-8.39m21.111 2.87c-.44 3.156.092 6.496 1.36 9.959l-1.728.13c-1.3-2.884-2.069-6.064-1.747-9.842" stroke="#23485F" stroke-width="1.3" stroke-miterlimit="10"/><path d="M238.731 187.074l-.382 1.396s-1.306 3.128-.583 6.451m.965 1.121l-1.183-2.241m73.327-91.918s7.838 12.347 8.279 32.507m-10.647-31.386s3.975 7.758 4.731 20.177m-2.364 13.451c-3.03 26.505-7.869 38.007-15.375 27.554m11.207 17.284s-1.609 8.342.621 16.814m-47.312-43.717s2.162 10.576 24.837 24.66m-31.93-93.037h10.645m20.104-24.66s-2.365 6.36-2.365 10.088M159.491 181.47c-.661 0-1.191.502-1.191 1.128 0 .612.53 1.114 1.191 1.114.654 0 1.175-.502 1.175-1.114 0-.626-.521-1.128-1.175-1.128zm48.486-22.42v2.242m-42.577 1.521c-1.027-.757-3.727-.415-3.539.843.43.771.999 1.071 1.631.986.7-.158 1.29-.493 1.908-1.829zm-10.644 23.141c.696 2.932 2.826 2.99 4.731.164" stroke="#23485F" stroke-width="1.3" stroke-miterlimit="10"/></svg>