<svg width="221" height="229" fill="none" xmlns="http://www.w3.org/2000/svg"><path d="M221 137.536c-.167.789-.075 1.596-.144 2.397-.277 3.089-.941 6.114-1.518 9.151-.404 2.127-.468 4.27-.387 6.431.04 1.032.19 2.092-.098 3.135-.081.283.034.623.052.934.144 2.512-.358 4.956-.843 7.393-.577 2.881-.877 5.803-1.281 8.713-.428 3.083-1.091 6.137-1.917 9.134-.941 3.406-3.671 5.365-7.209 5.538-3.135.15-6.05-.657-8.814-1.971-5.605-2.662-11.389-4.887-17.092-7.301-2.88-1.222-5.507-2.916-8.127-4.605-4.595-2.967-9.374-5.647-13.946-8.649a131.193 131.193 0 01-5.737-4.011c-.508-.375-.514-.38-.641.265-.929 4.645-1.795 9.307-2.17 14.038a51.967 51.967 0 00-.139 2.524c-.052 2.23-.017 4.466-.144 6.696-.121 2.086.415 4.08.652 6.114.427 3.688 1.732 7.048 3.608 10.229 1.229 2.08 2.187 4.293 3.019 6.558 1.518 4.143 3.411 8.125 5.194 12.153.953 2.149 1.842 4.328 2.465 6.598h-.825c-.774-2.536-1.853-4.956-2.967-7.353-2.101-4.495-3.919-9.099-5.743-13.709-.687-1.735-1.576-3.371-2.517-4.979-1.888-3.233-2.713-6.771-3.163-10.436-.254-2.058-.693-4.092-.982-6.149-.202-1.452-.282-2.922-.409-4.385-.018-.167-.041-.346.225-.646.219 1.591.421 3.043.623 4.501.023-.006.052-.006.075-.012.006-.075.012-.155.012-.23-.214-6.719.687-13.323 2.026-19.881.958-4.702 1.933-9.399 2.493-14.17.133-1.13.335-2.265.312-3.389-.069-3.44.266-6.863.26-10.303-.012-5.705-.699-11.33-1.743-16.919-.745-3.965-1.663-7.895-2.586-11.819-.047-.196-.174-.398-.018-.617.243.046.22.254.266.409 1.766 6.039 3.313 12.13 4.162 18.377.357 2.622.623 5.25.629 7.901.006 2.189.046 4.385.034 6.575-.028 6.31-.727 12.545-1.962 18.722-.121.594-.196 1.199-.352 1.787-.11.421.046.651.369.882 2.482 1.757 4.947 3.544 7.562 5.088 5.622 3.319 11.192 6.731 16.739 10.177 2.02 1.256 4.191 2.236 6.407 3.088 4.866 1.891 9.634 4.011 14.396 6.143 2.499 1.118 5.097 1.965 7.885 1.919 2.078-.034 4.006-.536 5.501-2.115.987-1.043 1.57-2.299 1.853-3.682.588-2.916 1.431-5.786 1.731-8.753.381-3.786 1.103-7.515 1.807-11.249.583-3.071.306-6.12-.381-9.151-.115-.513-.312-1.026-.225-1.585.404.536.548 1.176.825 1.873.11-.818-.046-1.527-.023-2.236.075-2.328.595-4.575 1.039-6.846.514-2.616.924-5.249.993-7.917.035-1.309-.052-2.622-.098-3.936-.058-1.666-.15-3.325-.191-4.991-.034-1.354-.242-2.685-.438-4.028-.087-.599-.445-.83-.97-1.026-2.026-.749-4.144-.996-6.269-1.233-3.065-.345-6.078-.968-9.114-1.504a129.123 129.123 0 00-8.912-1.233c-.525-.052-1.062 0-1.587-.052-.572-.057-.745.208-.809.726-.19 1.539-.334 3.078-.248 4.628.133 2.426.266 4.846.52 7.261.363 3.48 1.42 6.776 2.632 10.032.791 2.132 1.57 4.265 2.349 6.402.058.156.15.317 0 .669-1.46-3.072-2.736-6.08-3.833-9.157-.057.012-.109.017-.115.029-.491 2.507-1.709 4.8-2.17 7.318a31.351 31.351 0 00-.531 5.193c-.075 4.316-.508 8.597-1.097 12.867-.029.191-.029.191-.271.554-.151-.53.005-1.003.028-1.47.087-1.619.231-3.238.306-4.863.145-3.049.231-6.103.381-9.157a22.61 22.61 0 01.647-4.351c.069-.282.161-.542-.162-.784-2.13-1.584-3.833-3.653-5.922-5.278-2.297-1.787-4.006-4.063-5.622-6.437-1.351-1.982-3.083-3.561-5.057-4.939-1.489-1.043-2.978-2.097-4.34-3.319-.087-.075-.197-.144-.139-.415 1.045.559 1.957 1.257 2.99 1.804-.594-.841-1.166-1.7-1.795-2.518-1.449-1.879-2.851-3.786-4.144-5.78-1.322-2.04-3.233-3.51-5.028-5.083-1.195-1.049-2.442-2.034-3.66-3.054-1.079-.899-1.916-2.011-2.73-3.146-1.599-2.242-3.469-4.247-5.322-6.27-.542-.594-1.212-.98-2.095-1.141.479.807 1.114 1.469 1.327 2.42-.357-.086-.409-.346-.531-.53-.785-1.216-1.829-1.977-3.261-2.42-3.169-.98-6.355-1.879-9.622-2.49a.748.748 0 00-.502.046c.479.283.946.582 1.437.842.693.363 1.403.703 2.107 1.049.583.288.612.535.086.91-1.362.968-2.863 1.712-4.323 2.507a99.95 99.95 0 01-2.447 1.285c-.352.178-.341.305-.006.495 1.195.68 2.378 1.372 3.561 2.063.22.127.427.277.647.404 1.535.881 2.268 2.224 2.47 3.964.855 7.215 1.016 14.453.791 21.702-.306 9.71-1.628 19.305-3.417 28.842-2.038 10.845-4.86 21.506-7.642 32.179-.814 3.106-1.617 6.217-2.436 9.324-.11.426-.127.841-.046 1.273 1.223 7.082 2.441 14.165 3.659 21.247.006.017.012.04.012.057.011.283.167.663-.231.738-.416.081-.422-.334-.468-.605-.213-1.158-.404-2.317-.6-3.475l-5.022-29.176c-.167-.962-.346-1.93-.491-2.893-.063-.415-.225-.449-.531-.219-.692.519-1.402 1.009-2.078 1.545-1.443 1.152-3.036 2.051-4.814 2.529-2.955.801-5.795 1.965-8.744 2.784-2.471.685-4.976 1.135-7.55.985-1.934-.109-3.764.19-5.565.957-2.09.887-4.37 1.273-6.453 2.207-.41.184-.837.34-1.247.524-1.512.686-1.253.329-1.241 1.965.011 1.274.104 2.542.173 3.815.046.847-.017 1.683-.121 2.518-.144 1.164-.831 1.873-1.968 2.138-2.044.473-4.122.807-6.182 1.17-.878.156-.884.144-.895 1.014-.006.432-.006.865 0 1.291.023 1.735-.78 2.951-2.32 3.7-1.646.801-3.406 1.198-5.207 1.377-4.295.415-8.595.726-12.884 1.199-1.344.149-2.684.322-4.034.461-.497.051-.502.299-.393.685.589 2.109 1.172 4.23 1.75 6.345h-.705c-.595-2.109-1.195-4.218-1.772-6.333-.104-.392-.248-.53-.681-.484-3.533.346-7.066.668-10.592.991-4.352.403-8.71.715-13.092.57-3.417-.115-6.8-.507-10.118-1.365-2.794-.726-5.45-1.867-8.185-2.766-1.767-.582-3.117-1.769-4.122-3.348a19.938 19.938 0 00-1.235-1.718c-.733-.91-1.339-1.878-1.541-3.06v-1.527c.335-1.752.883-3.44 1.507-5.117.363-.968.178-2.057.346-3.083.317-1.999.265-4.022.439-6.028.311-3.693.97-7.318 2.124-10.862 1.368-4.178 2.008-8.534 2.724-12.862 1.466-8.88 3.562-17.611 6.194-26.22a503.251 503.251 0 019.628-28.375c.79-2.126 1.368-4.334 2.1-6.483 1.294-3.769 3.585-6.817 6.673-9.347.924-.755 1.877-1.204 2.979-1.481 3.844-.974 7.567-2.345 11.365-3.463 1.392-.41 2.794-.79 4.231-1.009.29-.046.59-.098.878-.075.594.047 1.016.018.97-.79-.03-.477.398-.8.79-1.03 1.836-1.107 3.106-2.801 4.578-4.288.271-.27.138-.369-.145-.478-5.304-2.144-7.879-6.35-8.773-11.75-.572-3.475.104-6.863 1.044-10.2a56.563 56.563 0 013.244-8.69c1.64-3.492 2.707-7.169 3.833-10.84 2.205-7.174 4.11-14.429 6.24-21.615 1.12-3.786 2.69-7.405 4.808-10.753 3.267-5.18 7.764-9.03 13.086-11.986C83.58 1.602 86.45.542 89.55.15c.525-.064 1.062.017 1.576-.15h.588l1.692.19c1.027.115 1.94.478 2.666 1.233.15.156.283.335.508.046C97.383.421 98.56.18 99.772.092c2.113-.15 4.093.41 5.969 1.32 5.414 2.628 9.455 6.719 12.474 11.86 2.51 4.275 4.259 8.874 5.379 13.68 1.68 7.209 3.764 14.32 5.397 21.54 1.651 7.302 3.579 14.528 5.293 21.812.803 3.417 1.472 6.863 1.247 10.407-.231 3.59-1.229 6.932-3.463 9.825a11.879 11.879 0 01-3.423 3.008c-.214.127-.433.254-.675.398.173.248.409.213.6.26 1.524.345 2.967.898 4.254 1.797.427.294.912.352 1.391.427 3.931.587 7.752 1.636 11.51 2.904.744.248 1.472.501 2.245.64.993.172 1.691.858 2.367 1.556 2.263 2.345 4.306 4.869 6.303 7.445 1.056 1.36 2.557 2.241 3.827 3.382 1.749 1.574 3.642 2.985 5.183 4.778.399.461.78.939 1.097 1.452 1.709 2.731 3.931 5.1 5.565 7.866.744 1.262 1.622 2.288 2.828 3.112 2.089 1.434 3.579 3.44 4.97 5.514a21.022 21.022 0 004.479 4.87c1.743 1.377 3.209 3.054 4.889 4.5 1.114.963 1.103.963 1.657-.42a39.957 39.957 0 001.327-3.953 2.797 2.797 0 00-.011-1.672c-.86-2.725-1.236-5.532-1.403-8.378-.11-1.798-.208-3.596-.254-5.4-.04-1.516.295-3.002.283-4.512-.006-.513.323-.801.831-.795.485.005.658-.214.664-.675.017-2.155-.075-4.304-.162-6.459a95.068 95.068 0 01-.063-3.112 43.32 43.32 0 00-.3-5.1c-.098-.818-.225-1.694.508-2.369.155-.144.063-.334.017-.501a12.174 12.174 0 00-1.178-2.876c-.45-.772-1.154-1.204-1.933-1.561-1.074-.49-2.205-.824-3.313-1.21a19.322 19.322 0 01-4.561-2.288c-1.137-.778-2.395-1.343-3.7-1.792a29.014 29.014 0 01-4.092-1.787c-1.27-.674-2.609-1.17-3.989-1.567-.848-.242-1.702-.484-2.464-.94-.785-.466-1.345-1.135-1.426-2.045-.144-1.596-.797-2.974-1.605-4.31-.375-.623-.542-1.2-.329-1.989.173-.65-.098-1.417-.161-2.137-.07-.819-.145-1.637-.179-2.461-.041-.986.288-1.856.946-2.587a148.643 148.643 0 012.869-3.112c.901-.945 1.94-1.349 3.325-1.153 2.678.375 5.38.565 8.046 1.026.745.127 1.305-.306 1.391-1.055.099-.847-.063-1.63-.652-2.299a152.527 152.527 0 01-3.821-4.547c-2.066-2.558-3.781-5.336-5.432-8.165-.75-1.285-1.61-2.507-2.233-3.867-.48-1.037-.832-2.11-.999-3.244-.116-.773 0-1.47.467-2.12.439-.617.849-.785 1.565-.52.6.225 1.091.605 1.495 1.107a9.817 9.817 0 011.281 2.103c1.368 2.991 3.383 5.498 5.744 7.745 1.535 1.464 2.938 3.043 4.317 4.65.849.986 1.72 1.954 2.794 2.732-.814-1.758-1.634-3.51-2.65-5.157-.946-1.533-1.91-3.06-2.799-4.628-1.056-1.861-1.865-3.838-2.626-5.837a2.647 2.647 0 01-.099-1.677c.295-1.101 1.132-1.487 2.113-.893.895.541 1.61 1.308 2.326 2.057.335.351.635.749.912 1.152 2.886 4.27 5.674 8.604 8.168 13.122a22.716 22.716 0 001.887 2.898c-.115-.922-.242-1.838-.352-2.76-.138-1.17-.248-2.34-.196-3.515.058-1.4-.456-2.697-.675-4.045-.191-1.188-.145-2.34.283-3.47.127-.334.277-.65.508-.922.744-.876 1.621-.806 2.181.19.757 1.349 1.086 2.847 1.495 4.322.866 3.118 1.34 6.328 2.136 9.457.889 3.492 1.841 6.967 3.423 10.234.97 2 1.483 4.167 2.107 6.293.733 2.49 1.662 4.898 2.846 7.203 1.166 2.276 2.112 4.61 2.712 7.111.462 1.913 1.299 3.734 1.559 5.711.185 1.395.45 2.783.635 4.178.081.588.329.778.923.738 1.138-.075 2.275.023 3.412.109.831.063 1.195.409 1.293 1.245.444 3.849.404 7.693-.035 11.542-.248 2.179-.45 4.363-.692 6.541-.041.346.057.472.398.565 1.021.265 2.032.593 3.053.875.324.093.485.283.578.594.548 1.809.871 3.659.952 5.544.104 2.408.381 4.8.392 7.214 0 .116.047.231.07.346.017.138.017.254.017.369zm-150.533-5.325c-1.039-.933-1.968-1.74-2.869-2.587-2.897-2.726-5.784-5.469-8.675-8.206-.624-.594-1.259-1.181-1.853-1.809-.531-.559-.514-1.09-.03-1.683.278-.34.636-.582.994-.83 2.822-1.925 5.5-4.034 8.237-6.079.161-.121.473-.208.42-.433-.051-.236-.363-.161-.565-.19-3.942-.542-7.885-1.077-11.827-1.619-.79-.11-1.114-.392-1.195-1.135-.15-1.343-.277-2.686-.375-4.034a555.18 555.18 0 01-.456-6.915c-.023-.358-.15-.519-.514-.565-.762-.104-1.483.08-2.205.248-5.483 1.29-10.736 3.388-16.208 4.731-.317.075-.548.294-.797.49-3.382 2.72-5.76 6.131-6.967 10.309-1.252 4.333-2.77 8.569-4.346 12.793-2.523 6.777-4.658 13.686-6.811 20.584a198.054 198.054 0 00-6.419 27.015c-.704 4.287-1.356 8.604-2.696 12.753-1.01 3.14-1.604 6.356-2.274 9.566a3.244 3.244 0 00-.07.466c-.12 2.484-.097 4.973-.472 7.44-.047.288-.139.663.392.645.139-.006.202.15.104.26-.496.564-.571 1.325-.912 1.953-.63 1.158-.895 2.42-1.172 3.677-.37 1.659-.22 3.221.918 4.604.681.83 1.305 1.717 1.922 2.599a6.951 6.951 0 002.979 2.414c1.293.565 2.591 1.124 3.913 1.62 6.419 2.414 13.097 2.904 19.874 2.622 3.019-.127 6.026-.398 9.033-.669 2.673-.242 5.351-.49 8.024-.772 3.37-.351 6.742-.761 10.118-1.101 3.377-.34 6.76-.605 10.13-.956 1.663-.173 3.285-.571 4.786-1.354 1.096-.571 1.65-1.458 1.662-2.692.006-.605.012-1.215.064-1.821.028-.34-.127-.351-.376-.322-1.327.144-2.65.294-3.977.426-.404.041-.479.231-.38.594.155.564.282 1.141.42 1.711.041.156.157.323-.01.467-.134-.029-.186-.109-.226-.202-.531-1.118-1.05-2.236-1.281-3.463-.249-1.348-.393-2.708-.497-4.08-.352-4.645-.173-9.272.33-13.894.207-1.924.565-3.837.634-5.779.052-1.499.445-2.876 1.259-4.155-1.034.023-2.032.213-3.008.513-2.482.766-5.022 1.267-7.613 1.44-2.5.167-4.935.6-7.296 1.47-1.6.587-3.267.83-4.976.766-.745-.029-1.49-.017-2.234-.046-.848-.029-1.605.19-2.355.605-2.297 1.274-4.37 2.841-6.292 4.616-.127.115-.225.323-.542.213a19.841 19.841 0 014.398-4.062c-1.5-.07-2.869-.064-4.225.138-2.696.403-5.38.87-8.116.979-3.37.133-6.655.767-9.876 1.758-.162.052-.346.213-.531.035.006-.196.162-.225.277-.265 1.968-.732 3.96-1.395 6.026-1.793 1.778-.34 3.579-.426 5.386-.512 2.557-.121 5.045-.709 7.584-.974.41-.041.624-.202.78-.571a45.688 45.688 0 002.083-6.114 1.94 1.94 0 000-.928c-2.886-13.167-5.356-26.41-7.515-39.71-.115-.714-.162-1.44-.398-2.132-.168-.484-.087-.668.415-.766 4.231-.853 8.457-1.712 12.693-2.547.502-.098.681-.248.59-.807-1.011-6.281-2.598-12.419-4.445-18.498-.07-.231-.243-.473-.093-.767.283.191.312.461.393.686 2.135 5.947 3.844 12.015 4.831 18.268.133.841.139.835.999.662 6.447-1.262 12.9-2.489 19.377-3.613 1.258-.213 2.528-.438 3.925-.686zm45.364 22.699a58275.51 58275.51 0 01-2.609-13.254c-.901-4.552-1.807-9.105-2.696-13.657-.092-.484-.237-.663-.802-.594-6.113.749-12.214 1.539-18.316 2.38-8.82 1.216-17.605 2.64-26.373 4.184a1211.133 1211.133 0 00-31.383 5.958c-1.345.277-1.16.07-.953 1.36 1.865 11.462 3.903 22.89 6.315 34.253.918 4.328 1.888 8.65 2.811 12.978.116.541.312.634.785.386 1.12-.588 2.332-.686 3.556-.565 2.188.213 4.295-.115 6.367-.818 1.841-.628 3.706-1.112 5.668-1.239 2.92-.19 5.807-.623 8.624-1.47.998-.299 2.014-.605 3.059-.512 1.5.132 2.846-.421 4.225-.83 1.184-.352 2.367-.721 3.556-1.032.733-.196 1.495-.392 2.216.104.185.127.381.006.56-.063a37.125 37.125 0 005.507-2.513c2.072-1.164 3.954-2.507 4.872-4.818.848-2.137 2.21-3.907 3.856-5.491 1.506-1.447 2.822-3.054 3.838-4.881.716-1.285 1.749-2.19 3.048-2.835 1.818-.899 3.515-1.988 5.05-3.314.624-.536 1.282-1.031 1.928-1.544.959-.755 2.038-1.112 3.267-1.135 1.195-.024 2.396-.07 3.545-.467.271-.098.531-.196.479-.571zm11.423-61.481c.202.07.283-.04.375-.098 3.232-2.005 5.305-4.87 6.338-8.517 1.062-3.734.843-7.48.161-11.231-.773-4.265-1.904-8.443-2.984-12.632-1.293-5.03-2.314-10.12-3.463-15.179-1.033-4.57-2.355-9.058-3.538-13.588-1.23-4.72-2.379-9.456-4.318-13.963-2.436-5.653-5.859-10.54-10.933-14.141-2.251-1.596-4.652-2.945-7.463-3.279-1.703-.202-3.394-.219-4.675 1.245-.203.23-.381.15-.6-.023-.78-.617-1.634-1.055-2.65-1.187a15.533 15.533 0 00-7.03.68C79.788 3.757 74.356 7.79 70.05 13.329c-2.851 3.665-4.64 7.895-6.078 12.268-1.576 4.806-2.65 9.75-4.144 14.58-1.53 4.938-3.06 9.883-4.849 14.73-1.402 3.802-3.134 7.479-4.294 11.374-1.057 3.556-1.807 7.158-1.212 10.88.877 5.452 3.803 9.347 8.993 11.439.104.04.225.161.369.006-1.634-1.377-3.007-2.945-4.012-4.818-1.004-1.873-1.524-3.884-1.691-5.987.283.144.271.415.323.651.456 1.96 1.137 3.832 2.257 5.52 1.628 2.456 3.792 4.3 6.35 5.74 2.395 1.349 4.993 2.046 7.67 2.518.11.018.359.11.336-.069-.07-.536.26-.242.398-.196.664.254 1.333.49 2.032.594 2.828.432 5.68.415 8.514.196 3.111-.236 6.09-1.107 8.97-2.305.675-.283 1.345-.576 2.014-.865a.544.544 0 00-.433-.051c-4.306.968-7.971-.277-11.175-3.176-2.695-2.437-4.34-5.514-5.518-8.891-.78-2.23-1.09-4.57-1.685-6.84-.866-3.274-1.3-6.61-1.49-9.976-.213-3.815-.132-7.63.185-11.444a48.535 48.535 0 013.354-14.176c.07-.179.092-.415.467-.502-.467 1.73-1.027 3.354-1.39 5.123.386-.15.651-.276.934-.351 2.275-.617 3.66-2.161 4.52-4.27.947-2.31 1.34-4.737 1.57-7.203.023-.265-.046-.57.3-.882.133 1.077.07 2.04 0 3.008-.07.95-.202 1.89-.317 2.83.075-.127.115-.254.15-.387.652-2.466.912-5.007 1.5-7.485.659-2.778 1.576-5.423 3.59-7.55 1.12-1.18 2.408-2.08 4.076-2.264.698-.08 1.35.11 1.928.565-1.836-.386-3.348.19-4.67 1.389 1.149-.421 2.315-.617 3.516-.335 2.383.57 4.796.71 7.244.57 1.558-.086 3.122-.091 4.79.347-.709-.825-1.604-1.118-2.499-1.574.191-.08.225-.11.26-.103.098.005.196.017.288.04 1.888.513 3.204 1.798 4.272 3.325 1.853 2.65 2.453 5.728 2.811 8.869.242 2.126.571 4.235 1.593 6.16a10.67 10.67 0 002.592 3.221c-1.57-2.99-2.222-4.88-1.928-5.55.202.133.231.358.306.554.456 1.147.935 2.282 1.524 3.371.663 1.233 1.564 2.3 2.366 3.429 1.553 2.178 2.176 4.662 2.257 7.301.058 1.942-.098 3.873-.202 5.809-.219 4.155-1.073 8.183-2.257 12.153-.104.352-.115.68-.023 1.037.439 1.706.849 3.423 1.137 5.164.653 3.907.941 7.82.046 11.727-.721 3.14-2.072 5.866-5.114 7.44-2.326 1.203-4.733 1.97-7.394 1.716-.26-.023-.519-.184-.82-.046.018.196.168.306.272.438.583.72 1.252 1.349 1.951 1.948 1.731 1.47 3.648 2.57 5.899 3.031 2.915.594 5.784.334 8.606-.49 5.582-1.63 9.859-4.811 12.128-10.332.075-.179.098-.427.513-.536-1.05 2.974-2.372 5.642-4.773 7.693zM72.528 56.093c-.07 2.962.11 6.126.525 9.278.104.807.052 1.665.508 2.391 1.714 2.703 3.775 5.1 6.274 7.112 2.17 1.746 4.474 3.313 6.748 4.92 3.925 2.773 8.104 2.796 12.22.623 2.995-1.585 5.576-3.85 8.3-5.866 3.065-2.276 5.183-5.267 6.482-8.834 2.274-6.27 3.025-12.782 2.95-19.409-.029-2.541-.901-4.829-2.401-6.88a1.83 1.83 0 00-.612-.536c-2.569-1.378-4.122-3.544-4.976-6.281-.571-1.827-.704-3.729-.958-5.607-.329-2.444-.895-4.795-2.113-6.985-.733-1.32-1.789-1.878-3.209-2.017-1.57-.155-3.134-.12-4.699-.028-2.176.126-4.306-.202-6.412-.686-1.444-.329-2.777.063-4.047.663-.762.357-1.05 1.18-1.478 1.855-.144.23-.254.484-.375.732-1.073 2.276-1.5 4.737-1.974 7.174-.404 2.075-.664 4.178-1.385 6.184-.935 2.61-2.788 4.396-5.166 5.681-.543.294-1.166.462-1.772.617-.681.173-.964.582-1.108 1.256-1.028 4.766-1.374 9.578-1.322 14.643zm52.504 145.333c.184-.179.184-.363.225-.524 1.235-4.841 2.441-9.687 3.705-14.522 3.602-13.807 6.765-27.701 8.358-41.906.572-5.1.878-10.217.988-15.351.127-5.959-.22-11.9-.803-17.83-.179-1.809-.848-3.187-2.476-4.045-.121-.064-.231-.144-.352-.219-3.204-1.977-6.413-3.948-9.553-6.022-.168-.11-.445-.167-.422-.473.254-.023.41.11.578.208 1.552.881 3.105 1.757 4.652 2.656.335.196.618.248.981.052 2.13-1.129 4.272-2.247 6.35-3.469.144-.086.375-.132.352-.346-.017-.167-.231-.196-.364-.265-1.581-.755-3.059-1.682-4.491-2.685-1.235-.865-2.609-1.406-4.04-1.861-1.535-.484-2.886-.185-4.22.576-2.995 1.711-6.216 2.685-9.668 2.87-.531.028-.612.23-.548.691.161 1.205.294 2.409.433 3.613.444 3.867.871 7.739 1.333 11.606.312 2.622.675 5.244 1.01 7.866.745 5.843 1.547 11.681 2.176 17.541.456 4.224.837 8.454 1.149 12.69.063.812-.064 1.677.265 2.437.306.709.364 1.401.191 2.115-.144.605-.127 1.205-.064 1.81.087.778.093.795.872.668 1.593-.253 2.586.628 3.458 1.775.79 1.049.64 2.075-.018 3.112-.075.115-.121.248-.196.357-.277.375-.277.605.271.697.439.069.791.34 1.051.703.283.398.56.801.837 1.211.369.547.467 1.146.329 1.797a9.354 9.354 0 01-1.212 3.043c-.191.311-.266.49.213.582.751.138 1.241.646 1.553 1.314.502 1.089.416 2.173-.104 3.233a11.371 11.371 0 01-2.009 2.881c-.283.3-.294.427.122.646 1.806.95 2.204 2.391 1.217 4.177a2.679 2.679 0 01-.213.352c-.964 1.4-2.055 2.674-3.521 3.573-.375.23-.479.478-.404.916.438 2.449.848 4.898 1.27 7.353.225 1.47.479 2.91.739 4.397zm-18.021-34.017c-.052-.15-.087-.19-.075-.219.04-.109.086-.213.144-.317.404-.783 1.004-1.394 1.691-1.93.589-.461 1.16-.962 1.593-1.562.716-1.002 1.686-1.481 2.852-1.682 1.166-.202 2.297-.525 3.33-1.113 1.449-.824 2.771-1.792 3.544-3.33.26-.519.393-1.072.278-1.648-.122-.6-.468-.83-1.068-.709-.883.184-1.767.392-2.592.76-1.443.64-2.967.94-4.525.905-1.472-.029-2.679.461-3.758 1.395-2.095 1.815-4.289 3.486-6.811 4.685-1.114.53-1.94 1.36-2.546 2.437-.877 1.562-1.91 3.02-3.215 4.253-2.02 1.907-3.688 4.045-4.756 6.633-.566 1.371-1.576 2.42-2.823 3.233-2.522 1.648-5.166 3.042-8.075 3.907-1.241.368-1.437.61-1.507 1.884a39.813 39.813 0 00.145 5.866c.358 3.758 1.166 7.423 2.274 11.03.173.559.34.559.796.328a52.663 52.663 0 016.263-2.696c1.628-.577 3.348-.876 4.93-1.568a11.115 11.115 0 015.16-.933c2.592.144 5.114-.254 7.619-.911 2.379-.628 4.612-1.671 6.996-2.259 2.65-.657 5.062-1.769 7.181-3.504.848-.697 1.778-1.285 2.736-1.832 1.633-.922 2.84-2.276 3.769-3.878.814-1.389.618-2.294-.612-3.21-.664-.496-1.044-.501-1.674.029-.987.835-1.956 1.688-2.938 2.535-.132.116-.231.329-.479.265-.058-.224.121-.328.225-.449.947-1.072 1.911-2.126 3.025-3.037 1.351-1.106 2.453-2.426 3.186-4.022.462-1.009.474-2.023-.19-2.956-.485-.68-1.501-.871-1.957-.358-1.726 1.942-3.844 3.464-5.703 5.256-.121.115-.219.351-.479.213.023-.288.26-.432.416-.622 1.414-1.666 3.093-3.055 4.617-4.61.987-1.009 1.703-2.173 2.286-3.458.675-1.487.335-2.726-.658-3.896-.548-.651-1.374-.714-1.997-.155-2.269 2.023-4.572 3.999-7.002 5.832-.127.092-.236.288-.462.126.029-.236.22-.357.364-.513 1.553-1.699 3.446-3.025 5.126-4.581 1.177-1.089 2.493-2.051 3.094-3.624.109-.294.265-.571.236-.899-.092-1.066-1.558-2.467-2.638-2.507-1.073-.04-2.101.236-3.128.49a3.619 3.619 0 00-1.68.927c-.589.577-1.172 1.159-1.789 1.7-1.795 1.568-3.706 2.962-5.917 3.896-.606.259-1.246.449-1.887.23-.352-.121-.641-.247-.935.173zm80.02-103.496c-.387-.11-.543-.386-.733-.617-.249-.3-.445-.645-.751-.899-3.717-3.077-6.551-7.018-10.084-10.268-.375-.346-.687-.755-1.016-1.142-1.322-1.573-2.286-3.37-3.174-5.203-.376-.778-.774-1.55-1.42-2.144-.433-.397-.918-.91-1.536-.616-.612.288-.669.968-.646 1.596.04 1.135.421 2.184.871 3.21.647 1.458 1.57 2.754 2.355 4.131a66.067 66.067 0 008.676 11.97 7.024 7.024 0 011.685 3.18c.029.133.075.45-.063.358-.606-.398-.433.236-.508.386-.537 1.083-.664 1.187-1.911 1.025a52.789 52.789 0 01-2.672-.438c-1.818-.322-3.683-.236-5.489-.622-.999-.213-1.755.063-2.448.755-1.114 1.106-2.118 2.31-3.163 3.48-.52.588-.727 1.28-.745 2.052-.023 1.216.139 2.42.225 3.63.024.34.133.49.508.438.306-.046.647-.063.936.023.519.156.813-.069 1.096-.443a4.4 4.4 0 00.716-1.47c.312-1.106.45-2.224.317-3.37-.017-.145-.109-.364.087-.41.196-.052.202.184.248.323.035.092.058.19.069.282.047.369.197.403.497.202.398-.265.866-.363 1.328-.461 1.16-.254 2.297.075 3.446.115 2.112.075 3.93.646 5.604 2.034 1.103.91 1.697 1.925 1.98 3.25.3 1.412-.467 2.53-1.027 3.683-.197.403-.78.633-1.212.893-2.523 1.48-5.08 1.112-7.649.127-.19-.075-.357-.248-.6-.179-.052.438.352.772.26 1.331-.595-.605-.941-1.25-1.293-1.89-.491-.876-1.056-1.694-1.813-2.368a4.765 4.765 0 00-2.349-1.147c-.467-.087-.871.075-1.143.444-.242.334-.058.674.121.99.145.254.295.508.451.756.779 1.239 1.397 2.53 1.495 4.034.052.754.496 1.302 1.16 1.67.606.335 1.258.548 1.922.733 1.403.386 2.782.835 4.069 1.526a32.26 32.26 0 004.572 2.012c1.224.432 2.39.997 3.469 1.723 1.761 1.175 3.671 2.017 5.686 2.656.917.294 1.812.634 2.672 1.072 1.091.56 1.98 1.337 2.609 2.392.07.11.196.224.11.368-.098.162-.225-.126-.335-.017.202.628.427 1.233.589 1.861.104.41.289.542.71.461a9.408 9.408 0 014.029.064c1.183.282 2.39.478 3.544.847 2.401.766 4.82.991 7.313.582 1.432-.231 1.438-.161 1.218-1.567-.467-2.997-.808-6.022-2.014-8.852a3.036 3.036 0 01-.185-.68c-.398-2.017-1.177-3.89-2.113-5.71-1.287-2.496-2.401-5.06-3.203-7.757-.802-2.68-1.518-5.36-2.719-7.924-1.333-2.852-2.222-5.906-2.932-8.983-.877-3.798-1.541-7.642-2.58-11.405-.214-.772-.422-1.55-.774-2.276-.369-.772-1.016-.824-1.506-.11-.37.542-.56 1.159-.641 1.81-.15 1.199.11 2.34.45 3.47.254.852.381 1.71.399 2.604.069 3.751.761 7.434 1.368 11.122.028.19.173.397-.058.65-.404-.564-.774-1.146-.797-1.768-.057-1.545-.86-2.72-1.708-3.89-.093-.127-.168-.265-.249-.403-2.914-5.083-5.922-10.108-9.195-14.977-.796-1.182-1.789-2.184-2.909-3.055-.733-.57-1.252-.345-1.449.525-.207.91.191 1.688.526 2.478 1.039 2.414 2.216 4.754 3.688 6.944 2.084 3.094 3.573 6.523 5.42 9.756.173.294.289.634.318 1.037zm-114.37 41.86l.103.103c-.011.052-.005.121-.034.156-.116.132-.237.259-.358.386-3.354 3.492-7.227 6.373-11.089 9.266-1.114.836-2.262 1.62-3.37 2.467-.566.432-.56.674-.081 1.135.52.501 1.062.985 1.599 1.475 3.873 3.579 7.613 7.296 11.538 10.816.398.352.762.444 1.276.358a583.595 583.595 0 0117.842-2.778c.808-.115.808-.109.513-.841-4.71-11.716-10.39-22.987-15.792-34.386-.156-.334-.381-.455-.733-.45a28.615 28.615 0 01-3.58-.23c-3.203-.391-6.274-1.227-9.073-2.875a7.712 7.712 0 00-2.217-.893c-.554-.127-.923-.023-1.287.397-1.46 1.666-2.863 3.383-4.773 4.582-.283.178-.376.472-.306.824.288 1.446.288 2.921.41 4.38.19 2.281.242 4.575.513 6.851.168 1.377.185 1.377 1.536 1.55.017 0 .04.006.057.012 4 .553 8 1.1 12 1.665.341.046.607-.017.867-.242.64-.548 1.287-1.083 1.933-1.625.837-.709 1.668-1.406 2.505-2.103zm23.111-17.87c-.225.397-.658.524-1.004.749-4.168 2.743-8.728 4.42-13.698 4.938-.49.052-.455.214-.23.536 1.425 2.063 2.8 4.16 4.52 6.005 1.927 2.069 4.155 3.613 7.007 4.149 2.008.38 3.983.928 5.76 1.965.497.288.86.461 1.288-.069.15-.184.42-.282.658-.375.456-.178.946-.299 1.344-.587 1.114-.801 2.315-1.476 3.481-2.196a3.49 3.49 0 001.426-1.671c.104-.259.127-.455-.093-.686-1.275-1.331-1.962-3.008-2.089-4.76-.121-1.648-.785-2.87-1.801-4.028-.167-.196-.502-.426-.398-.663.138-.305.49-.005.744-.04a1.4 1.4 0 01.41.012c.583.092.808-.162.831-.738.127-3.296.716-6.535 1.357-9.762.283-1.412.566-2.83.854-4.247-.237-.046-.34.098-.462.184-1.304.94-2.609 1.88-3.902 2.836-2.17 1.602-4.45 2.933-7.232 3.146-2.788.213-5.45-.075-7.81-1.746-.94-.668-1.876-1.354-2.811-2.034-2.655-1.913-5.328-3.81-7.544-6.258-.064-.07-.127-.162-.272-.098 0 .236-.017.49 0 .737.116 1.522.26 3.049.156 4.576-.052.76.11 1.412.427 2.08 1.519 3.158 3.625 5.797 6.656 7.653 2.603 1.596 5.443 1.879 8.392 1.504 1.27-.162 2.523-.375 3.62-1.106.12-.052.248-.15.415-.006zm7.198 19.155c.687-.352 1.374-.68 1.992-1.124 1.212-.864 2.418-1.74 3.469-2.806.594-.606.975-.531 1.333.23.323.692.641 1.389.947 2.086.993 2.288 2.049 4.541 3.844 6.345.139.138.26.438.496.311.168-.092.064-.363.041-.553a242.48 242.48 0 01-1.137-12.632c-.029-.444-.168-.617-.624-.622a12.74 12.74 0 01-4.542-.865c-.468-.184-.566-.017-.67.38-.248.946-.548 1.88-.797 2.83-.409 1.579-1.345 2.708-2.799 3.44a17.73 17.73 0 00-1.778 1.038c-.768.507-1.53 1.02-2.43 1.29-.3.093-.56.271-.797.49-.15.144-.173.265-.052.455 1.241 1.983 1.992 4.167 2.523 6.426.987 4.212 1.934 8.436 2.869 12.66.127.576.311.772.935.674 1.35-.219 2.718-.351 4.086-.507.855-.098 1.08.075 1.247.911.185.905.358 1.804.537 2.708 1.605 8.085 3.209 16.17 4.797 24.261.086.426.231.513.629.38.71-.23 1.42-.472 2.165-.53.467-.035.536-.225.496-.634a696.349 696.349 0 01-.485-6.028c-.369-4.725-.889-9.433-1.466-14.129-.785-6.432-1.616-12.857-2.407-19.288-.052-.421-.196-.732-.52-.997-1.772-1.469-3.03-3.313-3.965-5.399a290.529 290.529 0 01-1.68-3.821c-.167-.398-.317-.421-.612-.121a6.564 6.564 0 01-.889.766c-1.206.899-2.36 1.891-3.844 2.346-.283.086-.571.236-.912.029zm-7.913.282c-.191.156-.37.121-.537.104a19.003 19.003 0 01-2.661-.461c-1.576-.404-3.002-1.141-4.399-1.942-.329-.19-.571-.288-.548.282.11 2.858-.45 5.607-1.478 8.264-.138.357-.121.657.04 1.008a305.59 305.59 0 012.402 5.428c1.177 2.755 2.326 5.521 3.492 8.281.133.317.202.64.727.571 3.81-.519 7.62-1.003 11.429-1.498.681-.087.722-.15.572-.83-.768-3.458-1.536-6.921-2.309-10.379-.548-2.449-1.23-4.852-2.257-7.157-.531-1.193-1.368-1.965-2.523-2.484a18.912 18.912 0 00-4.479-1.4c-2.742-.495-5.027-1.792-6.978-3.751-2.096-2.098-3.735-4.53-5.259-7.048-.283-.467-.588-.645-1.131-.61-1.097.074-2.2.045-3.29-.058-.45-.046-.48.08-.3.432.323.645.629 1.308.946 1.959 2.673 5.451 5.403 10.874 7.972 16.377.069.15.092.346.329.421.046-.081.098-.156.132-.242.791-2.294 1.316-4.627 1.259-7.071-.012-.466-.237-1.054.271-1.36.52-.311.981.11 1.397.375 2.06 1.32 4.306 2.149 6.724 2.535.145.023.335.023.457.254zM83.073 209.35c-.27-.052-.277-.306-.352-.49-1.633-3.982-2.742-8.126-3.734-12.298-.728-3.06-.97-6.189-1.022-9.324-.023-1.446-.167-2.95.768-4.247-.26-.121-.49-.034-.71.023-2.142.508-4.208 1.262-6.303 1.902-1.01.311-1.6.934-1.819 1.942-.063.306-.156.611-.19.916-.168 1.579-.156 3.17-.37 4.743-.692 4.996-.97 10.015-.663 15.058.098 1.642.248 3.279.53 4.904.087.489.284.645.786.593 3.81-.409 7.573-1.072 11.319-1.827 1.824-.368 2.2-.806 2.245-2.645.023-.979 0-1.959-.017-2.939-.012-.628-.07-1.25-.075-1.878-.023-1.648-.012-1.637-1.478-.905-.38.19-.513.38-.38.818.501 1.689.957 3.395 1.425 5.095.052.178.19.357.04.559zM215.8 109.103a35.058 35.058 0 00-.219-4.973c-.04-.374-.156-.634-.583-.668-1.564-.127-3.134-.185-4.699-.041-1.777.162-3.538.479-5.333.41-.808-.029-1.097.27-1.132 1.083-.028.663.012 1.337-.046 1.994-.34 4.097-.531 8.2-.762 12.303-.092 1.613-.213 1.256 1.247 1.567 3.186.68 6.407 1.13 9.64 1.545.721.092.773.063.854-.634.098-.853.185-1.712.271-2.57.352-3.366.849-6.725.762-10.016zm-20.202-7.295c-.71 0-1.409.127-2.107.23-.681.104-.86.26-.831.945.028.646.132 1.286.225 1.925.213 1.498.109 3.014.161 4.518.104 3.129.456 6.252.231 9.387-.023.358.093.513.433.542.468.035.941.058 1.408.121 2.2.288 4.393.576 6.587.882.432.057.646.005.663-.507.11-4.305.312-8.61.63-12.903.075-1.037-.122-2.126.415-3.112.15-.282-.121-.311-.306-.363-.681-.19-1.356-.386-2.037-.57-1.801-.502-3.602-.968-5.472-1.095zm-81.371-35.1c-.179.029-.202.132-.242.219-1.432 3.429-3.637 6.246-6.621 8.46-.271.201-.387.46-.445.789-.242 1.406-.508 2.812-.767 4.218-.583 3.158-1.172 6.316-1.334 9.531-.069 1.36-.046 1.395 1.293 1.141 4.168-.795 7.198-2.973 8.601-7.105.762-2.236.97-4.558.958-6.892a37.587 37.587 0 00-.67-6.771c-.23-1.204-.438-2.415-.773-3.59zm61.993 16.521c1.565.092 3.112-.962 4.116-2.887.71-1.366.554-2.835-.312-3.953-.866-1.118-2.136-1.936-3.475-2.535-.19-.087-.415-.104-.629-.127-1.229-.127-2.459-.225-3.677-.42a5.233 5.233 0 00-2.886.356c-.467.196-.733.467-.739 1.055-.011 1.337-.317 2.605-1.298 3.607-.237.242-.075.323.115.427 1.131.628 1.939 1.573 2.615 2.645.15.236.312.45.571.57 1.559.726 3.187 1.205 5.599 1.262zm-59.811 78.268c-.981.357-1.963.68-2.99.835-.473.075-.889.26-1.31.485-.705.38-1.27.91-1.801 1.492-.647.715-1.467 1.239-2.142 1.919-.127.127-.392.236-.277.455.098.19.352.11.543.115.444.006.842-.149 1.241-.328 1.616-.738 3.088-1.7 4.462-2.818.808-.651 1.622-1.308 2.274-2.155zm-76.222 22.918c-.6 1.682-1.143 3.331-1.87 4.915-.07.156-.104.334.144.34.843.012 1.686.104 2.517-.132.23-.064.306-.202.254-.444-.358-1.556-.699-3.118-1.045-4.679zm66.299-83.95c.058.006.11.006.168.012.306-1.066.617-2.127.923-3.199.047-.155.023-.334-.127-.42-.912-.525-1.72-1.193-2.574-1.844.104 1.97.75 3.746 1.61 5.451zM73.74 69.168c.404 2.576.912 5.118 1.778 7.578-.03-1.723-.116-3.44-.202-5.157a.774.774 0 00-.139-.438c-.479-.663-.958-1.326-1.437-1.983z" fill="#fff"/></svg>