<svg width="278" height="166" viewBox="0 0 278 166" fill="none" xmlns="http://www.w3.org/2000/svg">
<path d="M53.3871 190.878C53.1652 190.698 52.9565 190.497 52.7268 190.335C51.7565 189.656 50.921 188.827 50.227 187.864C48.8995 186.031 47.6044 184.174 46.2329 182.377C45.2199 181.048 44.6865 179.444 43.9933 177.942C42.4838 174.679 41.8088 171.208 41.6797 167.633C41.6298 166.294 41.7918 164.969 42.1417 163.658C42.5589 162.089 42.9446 160.51 43.3295 158.935C44.0217 156.105 45.5744 153.843 47.6404 151.895C47.799 151.745 47.9668 151.597 48.1262 151.442C48.3188 151.26 48.325 151.054 48.1649 150.847C47.9304 150.544 47.6951 150.247 47.4444 149.956C42.4939 144.158 37.4567 138.451 32.3739 132.789C26.1661 125.87 19.891 119.01 13.5765 112.188C13.3387 111.933 13.0785 111.699 12.8299 111.452C12.8615 111.264 12.8939 111.073 12.9255 110.886C13.1913 110.692 13.3128 110.396 13.465 110.115C13.6785 109.724 13.9135 109.347 14.1224 108.955C14.7189 107.819 15.5273 107.4 16.8925 107.601C19.4742 107.981 22.0956 108.099 24.7002 108.343C26.6117 108.522 28.5247 108.72 30.4353 108.932C33.1915 109.238 35.9429 109.571 38.7007 109.868C39.2105 109.92 39.5764 110.121 39.9169 110.5C44.1403 115.136 48.3808 119.756 52.6042 124.392C54.3183 126.275 56.0037 128.187 57.7062 130.082C58.2031 130.634 58.2856 130.624 58.6005 129.943C58.9457 129.195 59.2833 128.437 59.5801 127.666C60.2772 125.848 61.0621 124.075 62.0352 122.399C63.3646 120.107 64.3695 117.679 65.1683 115.148C66.2646 111.671 67.8292 108.409 69.6321 105.257C71.158 102.591 73.3105 100.61 75.9042 99.0598C79.3815 96.9836 83.1338 95.6459 87.0538 94.7527C91.0779 93.8347 95.1185 93.0161 99.1115 91.9721C99.9082 91.763 100.425 91.4073 100.759 90.6141C101.825 88.0771 103.572 86.1055 105.881 84.6588C106.775 84.1007 107.39 83.3337 107.787 82.3638C108.195 81.3573 108.489 80.3207 108.68 79.2464C108.991 77.49 109.223 75.7195 109.696 73.992C110.56 70.8212 112.147 68.074 114.227 65.5886C114.735 64.9806 115.25 64.3789 115.786 63.8001C116.106 63.4573 116.186 63.1247 116.029 62.6725C115.116 60.104 114.686 57.41 114.011 54.783C113.69 53.5255 113.542 52.2604 114.276 51.0712C114.441 50.8019 114.352 50.5112 114.309 50.2289C114.164 49.2824 114.015 48.3352 113.851 47.3901C113.512 45.4498 113.688 43.5054 113.774 41.5592C113.925 38.1884 114.509 34.9 115.735 31.7555C117.168 28.0844 119.233 24.8491 122.228 22.2722C123.783 20.9312 125.535 19.9389 127.485 19.3532C130.749 18.3714 134.085 17.7254 137.472 17.3391C138.093 17.2673 138.727 17.2603 139.351 17.2275C140.284 17.3947 141.218 17.5618 142.146 17.728C142.653 18.0502 143.199 18.3118 143.649 18.7201C143.901 18.9437 144.189 19.0192 144.525 18.9976C145.627 18.925 146.676 19.1659 147.598 19.7695C151.187 22.1039 154.794 24.4128 157.613 27.7563C158.652 28.9882 159.554 30.2968 160.072 31.8257C160.331 32.5999 160.808 33.1287 161.426 33.6106C163.341 35.0957 165.097 36.7549 166.568 38.7003C168.368 41.0855 169.575 43.7162 169.249 46.776C168.934 49.7414 167.606 52.1109 164.772 53.3626C164.659 53.4145 164.537 53.4555 164.418 53.4871C164.363 53.5014 164.294 53.489 164.194 53.4856C164.116 53.192 164.365 53.1211 164.53 53.0204C166.455 51.8229 167.118 49.9802 167.04 47.7973C166.963 45.798 166.164 44.0788 164.819 42.633C164.178 41.9448 163.548 41.2246 162.657 40.7807C162.352 41.1744 162.513 41.5743 162.584 41.9147C163.417 45.9147 163.431 49.9752 163.599 54.0248C163.626 54.6272 163.589 55.2376 163.526 55.8383C163.396 57.0007 163.557 58.1332 163.834 59.2574C164.515 62.0399 164.541 64.8158 163.959 67.613C163.551 69.5785 162.83 71.3965 161.702 73.0354C160.75 74.4168 159.772 75.7839 158.585 76.9786C158.074 77.4945 157.751 78.1691 157.382 78.8019C156.172 80.8985 155.185 83.1074 154.424 85.4099C153.842 87.166 153.071 88.7726 151.628 89.9648C151.302 90.2294 151.207 90.5689 151.205 90.9782C151.192 92.7689 151.212 92.7097 152.769 93.379C156.55 95.0007 160.501 96.147 164.281 97.7781C168.295 99.5091 172.164 101.537 176.02 103.591C177.163 104.201 178.366 104.715 179.319 105.638C179.409 105.726 179.527 105.791 179.643 105.836C181.176 106.423 182.191 107.627 182.99 108.98C186.451 114.863 188.565 121.14 188.48 128.07C188.449 130.59 188.604 133.114 188.635 135.635C188.663 137.583 188.387 139.524 188.515 141.474C188.534 141.753 188.451 142.051 188.721 142.336C189.429 141.754 190.033 141.081 190.575 140.349C191.276 139.41 191.96 138.458 192.636 137.499C193.249 136.631 193.923 135.908 195.126 136.2C195.473 136.287 195.627 135.996 195.801 135.781C197.859 133.287 199.761 130.678 201.486 127.932C203.43 124.844 205.276 121.694 206.995 118.474C207.114 118.25 207.234 118.016 207.403 117.834C209.071 116.017 210.579 114.046 212.354 112.33C213.946 110.793 215.978 110.059 218.037 109.449C221.525 108.411 225.015 108.708 228.48 109.69C230.606 110.293 232.724 110.966 234.977 110.675C236.261 110.51 237.522 110.254 238.782 109.979C239.86 109.743 240.944 109.551 242.029 109.35C242.821 109.203 243.597 109.308 244.369 109.5C245.183 109.698 245.74 110.145 245.791 111.056C245.81 111.425 245.909 111.684 246.351 111.604C248.855 111.146 251.371 111.38 253.887 111.474C255.656 111.54 257.393 111.143 259.159 111.083C260.323 111.041 261.492 110.966 262.643 111.225C263.679 111.459 264.521 111.966 264.915 113.044C264.862 113.358 264.808 113.676 264.755 113.989C264.282 114.256 263.772 114.401 263.251 114.525C260.231 115.251 257.12 115.552 254.152 116.524C250.577 117.691 246.9 118.382 243.199 118.996C241.892 119.211 240.584 119.487 239.41 120.125C237.646 121.077 235.749 121.484 233.784 121.571C229.776 121.745 225.834 122.374 221.898 123.11C220.34 123.399 218.829 123.808 217.456 124.637C216.821 125.02 216.293 125.494 215.888 126.12C215.391 126.894 214.901 127.679 214.552 128.537C213.164 131.961 211.438 135.223 209.906 138.573C209.43 139.615 208.986 140.668 208.488 141.702C208.254 142.185 208.336 142.485 208.741 142.851C210.141 144.114 211.289 145.601 212.369 147.149C213.205 148.345 213.262 149.473 212.394 150.667C211.143 152.38 209.994 154.17 208.425 155.629C207.499 156.489 206.69 157.472 205.896 158.458C205.51 158.938 205.361 159.456 205.515 160.062C205.65 160.588 205.78 161.117 205.93 161.635C206.319 162.968 206.293 164.279 205.853 165.588C205.394 166.952 204.764 168.232 204.071 169.486C203.208 171.047 202.379 172.629 201.862 174.339C200.603 178.499 197.761 181.176 194.073 183.094C193.624 183.327 193.177 183.555 192.71 183.751C190.618 184.644 188.602 185.676 186.63 186.812C185.755 187.315 184.837 187.734 183.893 188.085C182.324 188.667 180.716 188.861 179.062 188.541C177.96 188.329 176.864 188.311 175.769 188.481C173.472 188.836 171.532 188.093 169.874 186.529C167.24 184.038 164.629 181.517 162.577 178.48C162.509 178.376 162.42 178.283 162.246 178.073C161.994 178.664 161.843 179.191 161.71 179.727C160.607 184.31 159.573 188.911 158.769 193.562C158.599 194.539 158.44 195.508 158.409 196.505C158.387 197.369 158.234 198.223 157.962 199.042C157.749 199.684 157.587 200.334 157.545 201.001C157.428 203.019 157.044 204.984 156.539 206.932C156.338 207.701 156.232 208.497 156.085 209.28C155.776 209.225 155.462 209.168 155.152 209.113C155.483 207.717 155.804 206.324 156.14 204.928C156.359 204.028 156.56 203.119 156.615 202.199C156.688 200.949 156.861 199.727 157.258 198.535C157.345 198.271 157.357 197.975 157.361 197.667C156.397 199.461 155.357 201.197 154.057 202.835C153.787 202.516 153.968 202.346 154.077 202.178C155.593 199.852 156.776 197.36 157.628 194.707C157.756 194.316 157.863 193.911 157.945 193.506C158.376 191.347 158.798 189.191 159.224 187.031C159.723 184.499 160.369 181.998 161.015 179.501C161.197 178.791 161.36 178.078 161.56 177.372C161.666 176.996 161.527 176.691 161.408 176.357C160.191 172.997 159.457 169.535 159.477 165.953C159.486 164.205 159.633 162.438 159.896 160.712C160.088 159.43 160.605 158.202 160.914 156.937C161.444 154.757 162.281 152.705 163.271 150.704C163.863 149.504 164.274 148.228 164.494 146.898C165.057 143.534 165.631 140.167 166.162 136.796C166.534 134.424 167.248 132.143 167.811 129.824C168.12 128.554 168.471 127.296 168.753 126.021C169.55 122.453 170.799 119.062 172.447 115.815C172.562 115.585 172.61 115.242 172.988 115.228C173.129 115.547 172.912 115.792 172.809 116.034C171.502 119.043 170.368 122.118 169.6 125.315C169.127 127.298 168.673 129.284 168.144 131.257C168.094 131.441 167.991 131.688 168.06 131.811C168.473 132.526 168.018 133.076 167.788 133.676C167.32 134.898 166.912 136.131 166.692 137.431C166.341 139.537 165.99 141.643 165.763 143.776C165.466 146.552 164.848 149.256 163.543 151.74C162.469 153.789 161.885 156.003 161.288 158.214C161.203 158.522 161.118 158.829 161.015 159.129C160.689 160.097 160.406 161.068 160.416 162.111C160.423 163.674 160.091 165.219 160.201 166.791C160.411 169.807 160.975 172.747 161.944 175.605C162.475 177.165 163.405 178.507 164.449 179.764C166.103 181.752 167.916 183.585 169.747 185.393C170.384 186.018 171.063 186.588 171.845 187.031C172.809 187.58 173.834 187.879 174.93 187.757C176.73 187.554 178.509 187.671 180.297 187.904C181.387 188.046 182.429 187.79 183.449 187.447C184.256 187.177 185.044 186.846 185.783 186.419C188.108 185.081 190.525 183.923 192.975 182.834C194.838 182.002 196.469 180.829 197.983 179.471C199.138 178.434 199.979 177.173 200.528 175.729C201.591 172.926 202.835 170.214 204.289 167.602C204.522 167.186 204.688 166.738 204.894 166.308C205.801 164.403 205.66 162.474 204.983 160.536C204.884 160.248 204.751 160.219 204.486 160.321C202.491 161.092 200.529 160.842 198.598 160.047C196.138 159.033 194.053 157.431 192.027 155.728C189.91 153.951 188.221 151.808 186.679 149.527C186.211 148.831 185.872 148.076 185.863 147.198C185.743 147.176 185.639 147.119 185.572 147.15C183.88 147.922 182.177 148.682 180.758 149.927C180.356 150.279 179.956 150.646 179.61 151.056C178.711 152.129 177.74 153.116 176.61 153.941C175.562 154.707 174.966 155.757 174.754 157.045C174.673 157.551 174.56 158.051 174.541 158.558C174.471 160.522 173.727 162.278 172.996 164.041C172.963 164.127 172.91 164.214 172.847 164.279C172.812 164.317 172.739 164.323 172.567 164.384C172.809 163.01 173.466 161.793 173.474 160.339C172.388 160.881 171.751 161.89 170.752 162.704C170.773 162.159 171.002 161.93 171.189 161.693C171.777 160.946 172.395 160.218 173.178 159.669C173.604 159.369 173.785 158.977 173.851 158.473C173.939 157.81 174.046 157.149 174.177 156.488C174.389 155.427 174.839 154.482 175.708 153.818C177.194 152.681 178.49 151.347 179.751 149.968C180.61 149.023 181.702 148.366 182.828 147.786C183.698 147.34 184.572 146.899 185.459 146.494C185.938 146.276 186.305 145.961 186.568 145.507C186.932 144.873 187.3 144.245 187.681 143.619C187.839 143.363 187.892 143.103 187.89 142.804C187.836 137.377 187.967 131.954 187.784 126.528C187.643 122.344 186.632 118.384 185.069 114.538C184.299 112.641 183.421 110.797 182.324 109.068C181.805 108.252 181.206 107.513 180.461 106.908C180.202 106.697 179.966 106.4 179.544 106.56C179.295 106.655 179.142 106.435 178.993 106.273C178.534 105.777 177.973 105.411 177.388 105.099C173.05 102.804 168.74 100.452 164.235 98.4977C161.477 97.3001 158.613 96.3967 155.811 95.3166C154.515 94.8194 153.224 94.2942 151.929 93.7876C151.786 93.7331 151.646 93.6356 151.483 93.7222C151.465 93.7478 151.423 93.7693 151.429 93.7896C151.814 96.0467 150.654 97.786 149.532 99.5031C148.08 101.73 146.004 103.286 143.799 104.674C142.143 105.718 140.388 106.584 138.588 107.351C138.398 107.433 138.213 107.602 137.922 107.434C138.072 107.08 138.423 107.003 138.701 106.851C141.081 105.552 143.44 104.21 145.596 102.543C147.71 100.907 149.361 98.9039 150.407 96.402C150.726 95.6445 150.862 94.893 150.692 94.072C150.52 93.2557 150.567 92.4158 150.53 91.5899C150.497 90.9141 150.409 90.8405 149.802 91.0547C147.579 91.847 145.386 91.6181 143.244 90.7719C142.379 90.4289 141.665 90.4601 140.829 90.8406C138.387 91.9455 135.898 92.9311 133.497 94.1301C132.359 94.6974 131.314 95.3922 130.481 96.3804C129.904 97.0626 129.898 97.1243 130.603 97.6265C131.172 98.0321 131.755 98.4159 132.343 98.7912C132.962 99.1863 133.515 99.6566 134.061 100.145C135.265 101.218 135.749 102.577 135.645 104.178C135.578 105.197 135.53 106.215 135.467 107.235C135.373 108.775 134.784 109.335 133.269 109.343C132.497 109.349 132.479 109.346 132.349 110.195C131.907 113.128 131.487 116.065 131.039 118.997C130.267 124.045 129.431 129.081 128.725 134.135C128.102 138.588 127.562 143.05 127.138 147.534C126.666 152.553 125.956 157.544 125.047 162.505C124.269 166.746 123.907 171.033 123.576 175.331C123.242 179.729 122.468 184.058 121.5 188.358C120.86 191.188 120.079 193.978 119.403 196.797C118.951 198.687 118.467 200.567 118.06 202.47C117.81 202.425 117.561 202.381 117.316 202.337C117.816 200.195 118.297 198.05 118.824 195.917C119.619 192.701 120.469 189.503 121.196 186.269C121.786 183.647 122.125 180.994 122.458 178.341C122.682 176.569 122.792 174.786 122.922 173.002C123.09 170.743 123.286 168.484 123.602 166.241C123.903 164.126 124.273 162.019 124.638 159.911C125.4 155.541 125.878 151.135 126.347 146.722C126.666 143.709 127.003 140.7 127.382 137.693C127.856 133.956 128.571 130.257 129.072 126.53C129.801 121.089 130.784 115.689 131.647 110.272C131.673 110.113 131.686 109.956 131.726 109.799C131.848 109.305 131.624 109.024 131.196 108.822C130.133 108.328 128.999 108.029 127.901 107.625C123.614 106.043 119.478 104.155 115.722 101.487C113.898 100.196 112.263 98.6939 110.859 96.9437C110.054 95.9367 109.475 94.8016 109.051 93.5884C108.776 92.7968 108.686 91.9759 108.79 91.1319C108.865 90.5235 108.804 90.4596 108.197 90.4761C107.791 90.4854 107.384 90.557 106.98 90.6342C105.305 90.9462 103.679 91.4454 102.041 91.8991C96.9386 93.3131 91.7605 94.3859 86.605 95.5784C82.2122 96.5941 78.0734 98.2482 74.3924 100.939C72.8939 102.034 71.6387 103.352 70.6651 104.946C68.4075 108.648 66.6306 112.576 65.3473 116.736C64.8318 118.408 64.0685 119.997 63.6876 121.717C63.6436 121.921 63.6054 122.232 63.1917 122.033C62.9849 121.933 62.9032 122.304 62.8061 122.484C61.977 123.984 61.1909 125.511 60.5724 127.116C60.1487 128.216 59.7464 129.329 59.1782 130.355C58.8086 131.022 58.8753 131.472 59.3891 132.036C61.0641 133.869 62.6881 135.75 64.3298 137.611C64.9808 138.349 65.6411 139.089 66.2751 139.843C66.5641 140.189 66.8715 140.37 67.3355 140.327C67.8719 140.279 68.3975 140.436 68.9287 140.531C69.6124 140.653 70.2952 140.78 70.9781 140.907C72.0436 141.108 73.0248 140.99 73.9184 140.292C74.4386 139.889 75.0485 139.603 75.6192 139.266C76.7909 138.584 78.0312 138.426 79.3568 138.692C80.3006 138.88 80.9989 139.367 81.3619 140.261C81.5808 140.797 81.889 141.141 82.4235 141.386C83.377 141.827 83.9206 142.637 84.0602 143.699C84.1021 144.015 84.0768 144.333 84.0894 144.653C84.0997 144.959 83.8384 145.351 84.1326 145.553C84.4315 145.756 84.8395 145.819 85.2068 145.87C85.5187 145.912 85.5022 145.615 85.5162 145.391C85.571 144.278 85.6458 143.158 85.672 142.045C85.7829 137.106 85.1785 132.231 84.2311 127.386C82.8185 120.14 81.6171 112.855 80.017 105.647C79.8945 105.105 79.6563 104.571 79.7346 103.91C80.1291 104.082 80.134 104.391 80.2061 104.64C81.3753 108.763 82.2176 112.962 83.0104 117.172C83.5645 120.091 84.1047 123.007 84.8074 125.918C84.7836 125.355 84.7505 124.79 84.7459 124.225C84.7407 123.636 84.5514 123.039 84.7519 122.443C85.0458 122.534 85.0396 122.74 85.0557 122.926C85.5863 128.492 86.2472 134.046 86.3825 139.642C86.4314 141.747 86.384 143.859 86.1588 145.954C86.1131 146.365 86.1819 146.691 86.4617 147.006C87.027 147.633 87.0515 148.389 86.8818 149.168C86.8669 149.228 86.8513 149.293 86.8225 149.35C86.3063 150.463 86.2242 151.484 87.2449 152.428C87.7307 152.877 87.781 153.565 87.6696 154.225C87.5898 154.698 87.4738 155.159 87.2801 155.601C86.5558 157.269 85.7724 158.893 84.6653 160.348C84.2307 160.92 84.2422 160.937 84.6875 161.484C89.3386 167.223 93.9943 172.963 98.6491 178.708C99.8103 180.145 100.972 181.577 102.138 183.015C102.216 183.116 102.305 183.209 102.363 183.321C102.543 183.661 102.422 183.9 102.047 183.891C101.735 183.883 101.424 183.808 101.115 183.748C94.9439 182.585 88.7626 181.482 82.5687 180.426C82.2869 180.376 82.0066 180.345 81.7264 180.285C81.2345 180.182 80.9795 180.368 80.8249 180.861C79.4455 185.337 77.6268 189.652 76.2521 194.129C76.1677 194.403 76.0387 194.66 75.9275 194.924C75.678 194.88 75.4286 194.835 75.1838 194.791C75.7485 193.138 76.3002 191.478 76.8788 189.827C77.9229 186.857 78.9939 183.897 80.038 180.927C80.2734 180.266 80.203 180.147 79.5286 180.026C78.3192 179.805 77.1058 179.607 75.89 179.423C75.301 179.332 75.287 179.358 75.2065 180.004C75.1162 180.764 75.0698 181.546 74.7564 182.246C73.6357 184.74 72.5419 187.243 71.2898 189.669C70.6381 190.936 69.5991 191.762 68.2803 192.273C67.4252 192.602 66.5171 192.738 65.6773 193.089C61.5863 192.346 57.4844 191.612 53.3871 190.878ZM125.222 65.9479C124.917 65.6426 124.954 65.336 124.924 65.0608C124.44 60.4919 122.532 56.5451 119.701 53.0164C119.064 52.2228 118.347 51.4822 117.439 50.9967C115.895 50.1659 114.433 51.0705 114.469 52.8312C114.479 53.3054 114.545 53.7894 114.657 54.2529C115.193 56.4888 115.719 58.7324 116.319 60.951C116.832 62.8453 117.638 64.6137 118.859 66.1723C119.396 66.8564 120.014 67.4249 120.81 67.8085C121.409 68.0941 121.886 68.006 122.377 67.6071C122.68 67.3579 122.892 66.9766 123.415 66.8146C123.244 67.6275 122.867 68.1962 122.266 68.5416C121.756 68.831 121.579 69.2283 121.526 69.7682C121.45 70.5304 121.405 71.3032 121.242 72.045C120.575 75.0631 120.068 78.1195 119.205 81.088C118.781 82.5544 118.375 84.0334 117.699 85.4114C117.242 86.3463 117.221 86.357 117.957 87.1251C118.483 87.6771 119.03 88.2136 119.601 88.716C121.252 90.1587 122.926 91.5765 124.588 93.0021C125.894 94.118 127.268 95.14 128.642 96.1667C129.022 96.4517 129.35 96.5635 129.692 96.1186C130.788 94.7004 132.294 93.8423 133.864 93.0826C135.881 92.1039 137.971 91.3071 140.034 90.4476C140.362 90.3135 140.765 90.2652 140.973 89.8494C140.812 89.7291 140.697 89.6217 140.563 89.5446C138.579 88.4134 136.719 87.0827 134.826 85.8087C131.161 83.3353 128.395 80.0735 126.382 76.1272C126.289 75.9467 126.082 75.7603 126.308 75.5212C126.667 75.624 126.736 75.9738 126.892 76.2331C128.426 78.7586 130.198 81.0904 132.462 82.9851C135.439 85.4798 138.654 87.6316 142.066 89.4667C143.243 90.1018 144.504 90.501 145.825 90.7087C149.367 91.2612 152.183 89.5775 153.383 86.168C153.52 85.7781 153.653 85.3874 153.79 84.9975C155.12 81.1777 156.897 77.6162 159.603 74.5873C159.983 74.1639 160.344 73.7177 160.671 73.2508C162.278 70.9747 163.222 68.4303 163.529 65.6515C163.774 63.4109 163.603 61.1873 163.064 58.9943C162.754 57.7338 162.734 56.4677 162.879 55.1875C162.913 54.9043 162.972 54.6113 162.953 54.3284C162.746 51.2406 162.9 48.1307 162.469 45.0508C162.437 44.8139 162.467 44.5541 162.201 44.3234C161.546 45.7484 160.714 46.9584 159.333 47.6701C158.008 48.3534 155.858 48.4069 155.157 47.7126C155.509 47.6841 155.815 47.6473 156.127 47.6309C157.415 47.5579 158.213 46.8333 158.649 45.6584C158.85 45.1161 158.908 44.5481 158.897 43.963C158.87 41.7604 157.958 39.944 156.468 38.3999C155.298 37.1831 153.988 36.1195 152.664 35.0824C152.202 34.7201 151.727 34.6302 151.16 34.7456C149.649 35.0436 148.415 35.7818 147.395 36.9438C145.857 38.6974 144.79 40.7618 143.602 42.7515C142.428 44.7149 141.301 46.7108 139.679 48.3432C138.171 49.8611 136.422 50.9456 134.268 51.2153C133.64 51.2957 133.03 51.4177 132.436 51.639C132.126 51.7523 131.8 51.8818 131.459 51.7581C131.492 51.5038 131.649 51.4499 131.795 51.4038C133.331 50.9029 134.429 49.8658 135.354 48.5615C137.22 45.9365 138.095 42.8112 139.611 40.0078C138.876 40.7244 138.235 41.506 137.713 42.3715C136.45 44.4683 134.854 46.2213 132.844 47.6155C130.64 49.139 129.186 51.2691 128.402 53.8518C127.94 55.374 127.565 56.9213 127.121 58.4514C126.428 60.8336 125.549 63.163 125.396 65.6802C125.399 65.7435 125.311 65.8145 125.222 65.9479ZM144.531 20.1168C144.141 20.0613 143.975 19.8051 143.78 19.6063C142.924 18.73 141.883 18.269 140.694 18.0704C139.111 17.8062 137.546 17.9116 135.991 18.1873C133.573 18.6168 131.155 19.0659 128.777 19.6809C126.487 20.2734 124.415 21.2999 122.617 22.872C119.668 25.4572 117.674 28.7002 116.317 32.3659C115.746 33.912 115.288 35.4975 115.082 37.2003C115.535 36.7706 115.476 36.0468 116.06 35.7176C116.087 35.8671 116.123 35.9362 116.11 35.9868C115.885 36.7515 115.666 37.517 115.428 38.2745C114.264 42.0421 114.105 45.8549 114.947 49.7214C115.049 50.1879 115.231 50.2928 115.664 50.1534C116.222 49.9739 116.783 50.0358 117.327 50.2779C117.486 50.3498 117.662 50.4968 117.884 50.2475C117.682 49.7535 117.457 49.2311 117.251 48.7026C116.824 47.6237 116.829 47.6199 116.949 47.1642C117.107 47.2407 117.163 47.3905 117.219 47.5355C118.156 49.8769 119.6 51.8946 121.123 53.8686C122.934 56.2173 124.303 58.7903 124.981 61.7117C125.025 61.9027 125.018 62.1424 125.282 62.2669C126.017 59.6611 126.727 57.1229 127.446 54.5818C127.811 53.2929 128.28 52.0371 128.96 50.8865C129.812 49.4486 130.9 48.2216 132.245 47.2432C134.177 45.835 135.828 44.1739 137.101 42.103C138.066 40.5358 139.29 39.1501 140.635 37.8921C141.725 36.873 142.881 35.9473 144.232 35.3025C144.517 35.1656 144.791 34.9207 145.169 35.051C145.079 35.3579 144.849 35.4274 144.66 35.5286C142.493 36.6971 140.973 38.4539 139.973 40.7135C139.226 42.4015 138.445 44.0689 137.676 45.7435C136.983 47.2532 136.175 48.6892 135.078 49.9387C134.948 50.0889 134.689 50.1871 134.783 50.4739C135.028 50.5177 135.224 50.4033 135.423 50.3233C137.35 49.5647 138.885 48.2782 140.167 46.6619C141.292 45.244 142.207 43.6826 143.137 42.1236C144.24 40.2681 145.284 38.373 146.728 36.752C147.814 35.5344 149.062 34.6254 150.707 34.3849C150.887 34.3594 151.088 34.3567 151.212 34.1861C151.261 33.9492 150.865 33.8687 151.039 33.5479C151.527 33.6449 151.949 33.9327 152.354 34.2124C154.085 35.4044 155.69 36.7473 157.135 38.2832C157.658 38.8445 158.116 39.4614 158.477 40.1429C159.655 42.3782 160.076 44.6512 158.713 46.9711C158.699 46.9975 158.75 47.0644 158.783 47.1476C159.248 47.014 159.606 46.702 159.954 46.3884C161.37 45.0999 161.867 43.425 161.797 41.557C161.722 39.3843 160.813 37.5539 159.399 35.9465C159.232 35.7574 158.932 35.6169 159.008 35.1632C160.153 35.8791 161.009 36.8131 161.448 37.9617C162.201 39.928 162.237 39.5152 163.878 40.903C164.336 41.2934 164.768 41.7179 165.184 42.1587C166.478 43.5423 167.339 45.1519 167.618 47.0525C167.742 47.923 167.719 48.7913 167.6 49.6663C167.721 49.5676 167.795 49.4699 167.842 49.3579C168.984 46.6515 168.757 43.9986 167.478 41.3983C166.256 38.9142 164.381 36.9688 162.365 35.1523C160.709 33.6604 158.894 32.3762 157.085 31.0835C156.817 30.8911 156.485 30.7448 156.248 30.2059C157.466 30.6554 158.348 31.3531 159.304 31.9773C159.381 31.6009 159.232 31.4151 159.141 31.2205C158.604 30.0881 157.864 29.0881 157.065 28.1304C154.281 24.8028 150.646 22.571 147.121 20.1997C146.544 19.8121 145.874 19.5765 145.175 19.4899C144.629 19.4258 144.629 19.4258 144.531 20.1168ZM14.2689 111.864C14.5404 112.172 14.7236 112.384 14.9161 112.596C17.9509 115.901 20.9912 119.203 24.0198 122.516C29.238 128.222 34.4052 133.977 39.5267 139.776C43.426 144.19 47.2642 148.656 51.0575 153.162C51.6363 153.849 51.6624 153.863 52.3349 153.348C53.6728 152.329 55.1283 152.108 56.7118 152.623C57.682 152.937 58.6492 153.24 59.595 152.571C59.6437 152.536 59.7154 152.534 59.7755 152.516C60.4537 152.305 60.4544 152.301 60.3981 151.592C60.3782 151.371 60.3545 151.145 60.3053 150.929C60.0242 149.635 59.9734 148.33 60.0613 147.02C60.1923 145.174 60.8637 143.622 62.469 142.598C62.8955 142.328 63.3142 142.046 63.7445 141.781C64.3114 141.439 64.8822 141.103 65.456 140.776C65.7819 140.594 65.8329 140.376 65.5914 140.087C65.4688 139.94 65.3399 139.801 65.2119 139.658C63.5709 137.793 61.9346 135.929 60.2936 134.064C53.5611 126.419 46.6986 118.896 39.7975 111.404C39.355 110.925 38.8951 110.717 38.2325 110.724C30.7064 110.793 23.1915 111.134 15.6821 111.64C15.2528 111.673 14.8077 111.632 14.2689 111.864ZM234.748 118.934C235.626 118.609 236.525 118.5 237.399 118.257C239.882 117.559 242.362 116.847 244.936 116.517C245.966 116.388 246.983 116.17 248.002 115.972C249.237 115.731 250.472 115.494 251.731 115.363C252.356 115.296 252.976 115.176 253.593 115.046C253.874 114.99 254.15 114.851 254.214 114.526C254.287 114.148 254.025 113.923 253.747 113.767C253.139 113.422 252.506 113.145 251.787 113.141C250.78 113.135 249.773 113.181 248.773 113.296C246.71 113.533 244.641 113.756 242.559 113.739C241.171 113.727 239.787 113.778 238.404 113.853C237.621 113.896 236.828 113.889 236.043 113.859C235.026 113.822 233.829 113.357 233.326 112.838C233.651 112.718 233.953 112.873 234.252 112.936C235.651 113.249 237.06 113.299 238.48 113.207C238.918 113.179 239.361 113.147 239.8 113.139C242.884 113.084 245.972 113.03 249.032 112.605C249.841 112.494 250.665 112.487 251.481 112.45C252.559 112.407 253.629 112.266 254.703 112.165C254.287 112.037 253.881 112.046 253.477 112.013C250.734 111.801 248.007 111.828 245.291 112.33C244.176 112.535 243.048 112.646 241.92 112.762C240.918 112.862 239.908 112.922 238.907 112.709C238.713 112.67 238.495 112.665 238.364 112.458C238.619 112.272 238.844 112.289 239.057 112.298C240.511 112.341 241.949 112.165 243.388 112.013C243.795 111.97 244.203 111.923 244.602 111.84C245.116 111.73 245.265 111.438 245.127 110.932C245.003 110.481 244.694 110.256 244.267 110.132C243.237 109.837 242.21 109.913 241.178 110.109C239.32 110.46 237.497 110.968 235.621 111.225C233.819 111.471 232.054 111.357 230.29 110.838C228.749 110.384 227.19 109.975 225.6 109.7C222.107 109.103 218.763 109.516 215.541 110.987C214.081 111.656 212.822 112.573 211.785 113.809C210.683 115.12 209.561 116.409 208.369 117.636C207.637 118.392 207.07 119.269 206.648 120.244C206.205 121.263 205.708 122.263 205.134 123.211C202.148 128.123 199.125 133.008 195.37 137.372C194.784 138.052 194.795 138.074 195.326 138.848C196.375 140.386 197.65 141.713 199.02 142.956C200.757 144.53 202.885 145.345 205.005 146.177C205.433 146.346 205.738 146.207 205.923 145.783C206.025 145.55 206.135 145.319 206.241 145.088C207.423 142.485 208.601 139.876 209.797 137.276C210.978 134.707 212.331 132.216 213.411 129.6C213.973 128.245 214.63 126.946 215.419 125.709C215.841 125.042 216.381 124.551 217.036 124.143C218.285 123.364 219.64 122.869 221.078 122.611C225.196 121.864 229.319 121.123 233.524 120.994C235.127 120.944 236.744 120.809 238.197 120.009C239.766 119.148 241.458 118.68 243.201 118.361C245.028 118.028 246.863 117.73 248.682 117.357C250.688 116.95 252.62 116.24 254.607 115.748C256.589 115.255 258.535 114.581 260.601 114.465C260.971 114.444 261.555 114.621 261.656 114.109C261.742 113.686 261.252 113.429 260.921 113.192C260.662 113.005 260.382 112.864 260.067 112.783C259.269 112.578 258.462 112.423 257.636 112.497C256.568 112.59 255.504 112.694 254.442 112.812C254.253 112.831 253.995 112.751 253.88 113.039C254.014 113.145 254.141 113.24 254.257 113.343C255.229 114.182 255.115 115.024 253.932 115.492C253.468 115.674 252.967 115.796 252.467 115.851C250.586 116.059 248.742 116.466 246.889 116.843C244.917 117.246 242.902 117.401 240.959 117.998C239.549 118.43 238.093 118.738 236.649 119.057C236.026 119.201 235.372 119.267 234.748 118.934ZM63.0323 147.914C63.2261 147.809 63.302 147.726 63.3775 147.73C64.2487 147.756 65.0588 147.496 65.8498 147.18C67.5338 146.508 69.2644 146.095 71.0963 146.153C71.7919 146.176 72.4866 146.065 73.1371 145.82C74.1588 145.434 74.9512 144.8 75.1841 143.646C75.3815 142.674 75.0993 142.176 74.1542 141.939C73.5739 141.796 72.9719 141.669 72.3825 141.665C71.2993 141.654 70.2539 141.448 69.1985 141.244C68.7974 141.168 68.3909 141.095 67.9898 141.018C67.183 140.864 66.4166 141.006 65.7038 141.394C64.5363 142.024 63.4207 142.74 62.3695 143.554C61.6468 144.114 61.203 144.854 61.0096 145.773C60.6866 147.291 60.6494 148.808 60.9041 150.342C60.9815 150.814 61.082 151.29 61.1016 151.766C61.1248 152.474 61.0925 153.2 60.5033 153.702C59.2468 154.774 58.6822 156.2 58.4576 157.784C58.1351 160.088 57.9289 162.408 57.8867 164.743C57.8287 168.101 58.8748 171.093 60.856 173.762C61.7317 174.945 62.8251 175.825 64.3163 176.097C65.6505 176.341 65.6636 176.348 66.1252 175.023C66.179 174.874 66.2197 174.717 66.2735 174.568C67.3593 171.577 68.3836 168.555 70.1484 165.883C70.2181 165.78 70.325 165.654 70.3139 165.551C70.2454 164.97 70.6719 164.868 71.0515 164.734C71.6279 164.534 72.2319 164.536 72.8266 164.565C73.992 164.624 75.1552 164.669 76.3158 164.785C78.801 165.033 80.8368 164.25 82.3684 162.226C83.0363 161.343 83.764 160.499 84.4196 159.605C85.4355 158.211 86.1293 156.639 86.7924 155.051C87.2065 154.065 87.1133 153.123 86.3587 152.294C85.9813 151.879 85.8783 151.841 85.5905 152.306C84.4951 154.085 83.1877 155.741 82.4289 157.725C82.3424 157.956 82.2895 158.269 81.8902 158.323C81.9449 157.21 82.3448 156.279 82.8678 155.409C83.5328 154.289 84.2323 153.19 84.9142 152.083C85.4518 151.211 85.8601 150.286 86.1009 149.284C86.4333 147.907 86.3136 147.601 85.1838 146.767C84.2821 146.105 83.9049 146.196 83.4546 147.2C82.3854 149.558 80.9196 151.672 79.4845 153.8C79.3574 153.989 79.2576 154.27 78.928 154.221C78.7859 153.935 78.9664 153.712 79.0774 153.506C79.395 152.921 79.7264 152.34 80.087 151.783C81.0013 150.37 81.8895 148.944 82.6354 147.429C83.0916 146.504 83.3561 145.529 83.4398 144.498C83.5006 143.772 83.3524 143.1 82.8686 142.526C82.1235 141.641 81.7743 141.68 81.2946 142.717C80.0288 145.449 78.0527 147.625 75.9561 149.698C75.8192 149.833 75.681 150.087 75.3915 149.857C75.4742 149.424 75.7958 149.154 76.0567 148.849C77.2081 147.498 78.3793 146.171 79.4262 144.734C80.0276 143.907 80.4852 143.001 80.8813 142.064C81.2594 141.178 80.7949 139.87 79.9342 139.528C79.0466 139.176 78.1073 139.018 77.1518 139.237C76.9783 139.278 76.6947 139.295 76.6977 139.503C76.703 140.063 76.2182 140.116 75.9244 140.362C75.5657 140.654 75.1119 140.833 74.8531 141.182C74.8691 141.397 74.9821 141.461 75.0781 141.541C75.9948 142.312 76.2077 143.165 75.7663 144.257C75.3334 145.326 74.5462 146.014 73.4868 146.398C72.6503 146.701 71.7738 146.819 70.8863 146.805C69.4195 146.783 68.0056 146.983 66.6319 147.537C65.9936 147.794 65.3195 147.981 64.6477 148.155C64.1517 148.302 63.6199 148.352 63.0323 147.914ZM43.3143 170.099C43.0232 169.681 43.1569 169.397 43.2112 169.132C43.4022 168.226 43.6294 167.332 43.8204 166.426C44.3728 163.86 45.2353 161.402 46.1931 158.971C46.711 157.652 47.5528 156.612 48.7317 155.859C49.3713 155.453 50.0064 155.046 50.646 154.641C50.9287 154.46 51.0544 154.251 50.7968 153.945C50.241 153.291 49.6868 152.628 49.1355 151.975C48.9132 151.713 48.6938 151.659 48.4162 151.923C46.6849 153.579 45.1742 155.396 44.4208 157.743C43.9259 159.293 43.631 160.898 43.1784 162.451C42.3193 165.396 42.2846 168.334 42.7835 171.354C43.3884 175.014 44.7372 178.384 46.648 181.497C48.0101 183.717 49.668 185.763 51.2333 187.851C52.8215 189.972 55.0563 190.97 57.5673 191.318C59.5947 191.599 61.6476 191.673 63.663 192.082C64.2242 192.197 64.8003 192.223 65.3584 192.159C67.8651 191.885 69.9698 191.004 71.0592 188.443C71.919 186.423 72.898 184.458 73.8193 182.469C73.8854 182.331 74.0069 182.204 73.9368 182.027C73.783 181.952 73.7123 182.088 73.6242 182.159C72.371 183.183 70.9111 183.346 69.4194 182.992C66.5046 182.301 63.8148 181.039 61.3528 179.301C59.0897 177.71 57.1995 175.772 55.877 173.289C54.092 169.938 53.4469 166.319 53.3086 162.573C53.2485 160.9 53.4157 159.262 53.947 157.666C54.2833 156.661 54.7968 155.847 55.739 155.312C56.5491 154.854 57.2244 154.209 57.9827 153.439C57.2482 153.307 56.6568 153.23 56.0757 153.092C54.8534 152.806 53.7752 153.076 52.7897 153.839C51.8691 154.556 50.9491 155.297 49.9237 155.846C48.2133 156.759 47.1649 158.176 46.5193 159.998C45.6227 162.517 44.8477 165.077 44.0727 167.638C43.8406 168.42 43.7254 169.243 43.3143 170.099ZM116.768 83.7698C118.606 81.7904 119.092 79.2508 119.562 76.6072C118.417 76.6238 117.432 76.9341 116.475 77.3315C114.539 78.1415 113.299 79.5098 112.92 81.6733C112.603 83.4625 112.127 85.2134 111.334 86.8643C110.798 87.9827 110.337 89.134 109.871 90.2844C109.437 91.3633 109.446 92.4638 109.885 93.5546C110.206 94.3591 110.6 95.1237 111.078 95.8454C112.579 98.1144 114.554 99.8946 116.754 101.436C120.443 104.024 124.493 105.882 128.681 107.427C130.16 107.972 131.641 108.531 133.258 108.507C134.293 108.495 134.569 108.323 134.658 107.293C134.762 106.054 134.834 104.809 134.892 103.566C134.93 102.778 134.7 102.057 134.218 101.416C133.848 100.926 133.436 100.495 132.939 100.141C131.902 99.4061 130.857 98.6888 129.824 97.9545C125.967 95.2105 122.347 92.1573 118.809 89.0127C117.952 88.252 117.131 87.4542 116.478 86.4988C116.02 85.8288 115.7 85.1063 115.634 84.2848C115.55 83.2288 116.035 81.8794 116.746 81.279C116.902 81.6491 116.743 81.9724 116.664 82.2958C116.583 82.6378 116.448 82.9606 116.371 83.3034C116.228 83.9479 116.307 84.5789 116.613 85.1638C116.75 85.4245 116.944 85.4592 117.105 85.1797C117.347 84.7651 117.476 84.311 117.621 83.8166C117.35 83.7342 117.132 84.0616 116.768 83.7698ZM193.949 137.026C193.447 137.264 193.292 137.617 193.087 137.932C192.257 139.21 191.425 140.502 190.383 141.597C189.133 142.915 188.064 144.339 187.121 145.895C186.489 146.934 186.502 147.871 187.122 148.845C187.566 149.541 188.052 150.216 188.549 150.879C191.099 154.266 194.255 156.937 197.954 158.93C199.603 159.818 201.374 160.207 203.253 159.961C203.852 159.88 204.307 159.634 204.648 159.112C205.571 157.701 206.681 156.43 207.898 155.279C209.451 153.808 210.629 152.043 211.885 150.33C212.577 149.384 212.586 148.489 211.912 147.52C211.035 146.26 210.084 145.072 209.018 143.971C208.8 143.743 208.571 143.519 208.335 143.308C208.103 143.103 207.895 143.071 207.739 143.404C207.316 144.331 206.893 145.253 206.467 146.174C206.295 146.538 206.403 146.775 206.761 146.94C207.277 147.177 207.793 147.419 208.295 147.692C209.331 148.263 210.41 148.692 211.596 148.799C211.793 148.815 212.049 148.793 212.119 149.085C211.569 149.411 211.568 149.415 211.091 149.364C210.334 149.281 209.606 149.083 208.925 148.72C207.248 147.827 205.531 147.009 203.744 146.371C200.747 145.294 198.267 143.496 196.241 141.036C195.271 139.851 194.235 138.711 193.949 137.026ZM101.088 183.034C101.08 182.657 100.874 182.528 100.739 182.365C96.6963 177.366 92.6485 172.366 88.596 167.365C87.175 165.607 85.7485 163.853 84.3221 162.098C83.83 161.49 83.763 161.492 83.2459 162.074C82.8232 162.548 82.4305 163.042 81.991 163.503C80.8511 164.701 79.4746 165.356 77.8018 165.398C76.7931 165.425 75.7888 165.341 74.7827 165.325C73.8289 165.308 73.8289 165.308 74.1192 166.266C74.1739 166.45 74.2286 166.633 74.2879 166.817C74.9389 168.852 75.139 170.936 75.0661 173.058C75.0128 174.557 74.9549 176.055 75.1158 177.554C75.2279 178.581 75.2124 178.588 76.2064 178.761C78.2265 179.114 80.2659 179.296 82.2884 179.663C88.184 180.738 94.0852 181.78 99.9894 182.833C100.335 182.9 100.677 182.961 101.088 183.034ZM59.9477 153.159C59.541 153.144 59.2518 153.391 58.9674 153.61C58.0654 154.302 57.2315 155.097 56.2706 155.686C55.2077 156.344 54.6953 157.265 54.4538 158.441C53.4182 163.446 54.1832 168.214 56.4069 172.772C57.316 174.631 58.6114 176.203 60.1931 177.518C62.1332 179.133 64.2658 180.426 66.6134 181.347C67.8802 181.849 69.1619 182.29 70.5243 182.424C72.1724 182.584 73.3843 181.861 74.1209 180.374C74.5389 179.533 74.5911 178.66 74.5001 177.762C74.3321 176.136 74.3782 174.511 74.4197 172.885C74.4842 170.53 74.1387 168.236 73.3429 166.017C73.0649 165.239 72.7712 165.09 71.9834 165.19C71.5795 165.243 71.2874 165.451 71.0357 165.758C70.5919 166.3 70.2174 166.883 69.8935 167.505C68.5878 170.023 67.6159 172.678 66.6832 175.355C66.6107 175.558 66.4911 175.788 66.6921 175.978C66.8847 176.162 67.1149 176.039 67.3193 175.984C68.531 175.657 69.5852 175.05 70.4811 174.17C71.2517 173.411 71.884 172.541 72.4065 171.589C72.5176 171.382 72.5684 171.025 72.9395 171.082C72.9692 171.16 72.9968 171.193 72.9882 171.216C71.9158 174.325 69.8619 176.314 66.596 176.857C64.3486 177.231 62.3851 176.57 60.887 174.818C58.8331 172.411 57.5311 169.638 57.2826 166.432C57.0495 163.388 57.3681 160.375 57.8591 157.383C58.0932 155.941 58.6518 154.633 59.7209 153.601C59.8284 153.499 59.9683 153.404 59.9477 153.159ZM112.341 77.5501C112.407 77.5812 112.477 77.6178 112.543 77.649C112.561 77.7101 112.607 77.7761 112.589 77.8259C111.614 80.5286 110.139 82.838 107.632 84.3507C105.979 85.3463 104.388 86.4253 103.175 87.9766C102.526 88.805 102.002 89.7088 101.538 90.6523C101.466 90.7937 101.401 90.9555 101.485 91.1055C101.609 91.3302 101.82 91.2331 101.994 91.1919C102.424 91.0954 102.849 90.9786 103.277 90.8673C105.073 90.4035 106.852 89.8449 108.737 89.8693C109.145 89.8749 109.273 89.599 109.404 89.3043C110.553 86.7245 111.81 84.1879 112.218 81.3211C112.413 79.9391 113.061 78.7249 114.195 77.8389C114.978 77.2368 115.813 76.7406 116.751 76.4314C117.532 76.1713 118.32 75.9606 119.14 75.8954C119.559 75.8644 119.837 75.7118 119.926 75.241C120.288 73.296 120.654 71.3519 120.928 69.3959C120.988 68.9537 120.85 68.6735 120.427 68.4967C119.463 68.0926 118.777 67.3383 118.13 66.543C117.626 65.9226 117.251 65.2143 116.853 64.5262C116.555 64.0101 116.499 64.0002 116.118 64.4282C114.556 66.1776 113.096 68.0077 112.015 70.1227C110.771 72.5602 110.115 75.1754 109.73 77.8731C109.517 79.3915 109.216 80.8895 108.673 82.3297C108.631 82.4379 108.579 82.5779 108.796 82.6746C109.603 82.0384 110.232 81.216 110.824 80.3582C111.419 79.4863 111.877 78.5178 112.341 77.5501ZM13.8509 111.042C20.5889 110.595 27.1699 110.261 33.7659 110.063C32.5254 109.885 31.2856 109.73 30.0457 109.604C27.9826 109.394 25.917 109.198 23.8515 109.001C21.3462 108.76 18.8464 108.514 16.3395 108.282C15.9275 108.242 15.4945 108.242 15.2094 108.605C14.6649 109.293 14.1626 110.013 13.8509 111.042ZM258.265 111.728C258.483 111.82 258.508 111.839 258.541 111.845C260.049 112.014 261.465 112.364 262.33 113.81C262.445 114 262.635 114.034 262.828 113.986C263.194 113.907 263.576 113.845 263.922 113.71C264.401 113.521 264.467 113.244 264.163 112.818C263.75 112.248 263.178 111.947 262.5 111.816C261.159 111.557 259.819 111.573 258.265 111.728Z" fill="white" stroke="#055687"/>
</svg>
