<svg width="195" height="249" viewBox="0 0 195 249" fill="none" xmlns="http://www.w3.org/2000/svg">
<path d="M120.013 79.9114C126.337 89.7727 159.339 94.9678 166.811 101.887C171.542 107.462 186.527 157.851 186.129 165.423C188.513 170.405 189.262 174.161 188.667 177.567L193.399 182.299C195.681 198.306 192.977 207.062 186.129 209.784" stroke="white" stroke-miterlimit="10"/>
<path d="M154.774 199.608C152.182 208.869 161.883 211.93 165.616 214.516C177.421 212.875 186.081 214.367 183.793 199.578" stroke="white" stroke-miterlimit="10"/>
<path d="M188.074 203.216C188.074 203.216 189.263 211.74 180.531 211.687" stroke="white" stroke-miterlimit="10"/>
<path d="M165.617 214.516C167.555 209.339 175.627 204.905 173.333 182.549" stroke="white" stroke-miterlimit="10"/>
<path d="M119.109 77.3376C116.113 82.7944 111.786 87.0682 106.365 90.379C115.673 95.1106 110.395 99.6935 113.735 103.426C116.024 97.1018 124.786 91.4312 119.109 77.3376Z" stroke="white" stroke-miterlimit="10"/>
<path d="M121.5 82.812C126.279 113.935 137.329 153.226 141.959 177.823" stroke="white" stroke-miterlimit="10"/>
<path d="M78.2795 75.3104C75.8364 82.2829 66.6825 87.0025 64.7388 93.2736C66.8787 94.3792 68.5549 94.8606 70.6234 95.4075" stroke="white" stroke-miterlimit="10"/>
<path d="M73.2033 93.1724C70.5284 95.8294 67.1284 97.9455 63.2944 99.7406C78.1666 126.115 91.2437 154.569 104.529 189.384" stroke="white" stroke-miterlimit="10"/>
<path d="M78.1246 75.7148C76.3295 81.2429 78.7666 87.0027 80.1219 91.6808C92.878 129.943 103.69 174.744 106.93 208.055" stroke="white" stroke-miterlimit="10"/>
<path d="M121.564 83.246C124.626 86.2002 129.518 88.3401 133.048 90.9793L130.861 95.7524" stroke="white" stroke-miterlimit="10"/>
<path d="M127.314 94.3617L141.372 99.8303C139.565 124.754 140.058 148.733 141.039 173.65" stroke="white" stroke-miterlimit="10"/>
<path d="M79.6238 72.9567C78.1794 81.32 93.2656 82.4613 103.87 91.532" stroke="white" stroke-miterlimit="10"/>
<path d="M103.869 91.5321C96.1062 96.4122 99.9877 102.636 96.2489 108.164C90.8219 103.082 88.0341 97.7021 81.561 92.0314C80.0214 85.5047 75.4861 81.4746 79.6232 72.9626" stroke="white" stroke-miterlimit="10"/>
<path d="M109.272 92.1919L102.258 92.6912" stroke="white" stroke-miterlimit="10"/>
<path d="M112.435 99.9845C111.371 100.591 110.521 101.423 109.896 102.481C107.156 103.711 104.404 103.991 101.628 102.832C100.766 101.827 99.7023 101.084 98.3887 100.662" stroke="white" stroke-miterlimit="10"/>
<path d="M109.902 102.481C118.177 142.937 124.323 202.984 128.674 246.727" stroke="white" stroke-miterlimit="10"/>
<path d="M101.634 102.832C99.6427 112.295 107.697 174.987 110.699 209.671" stroke="white" stroke-miterlimit="10"/>
<path d="M165.514 104.769C170.192 112.342 170.264 128.035 169.895 148.488" stroke="white" stroke-miterlimit="10"/>
<path d="M72.3709 83.573C53.3854 93.678 50.4906 97.1018 39.5415 101.037" stroke="white" stroke-miterlimit="10"/>
<path d="M50.3891 96.0854C32.4319 100.318 26.8385 98.5523 28.2829 114.037C22.7489 122.483 20.0503 129.271 19.3667 135.745" stroke="white" stroke-miterlimit="10"/>
<path d="M7.87109 168.61C9.04803 158.903 12.2995 148.227 19.373 135.745" stroke="white" stroke-miterlimit="10"/>
<path d="M11.854 161.536C4.73291 175.178 1.79651 183.345 1 203.263C5.79691 213.303 10.5879 213.719 20.4729 213.119" stroke="white" stroke-miterlimit="10"/>
<path d="M34.8579 102.481C38.7454 107.51 42.6625 136.767 44.2258 157.851" stroke="white" stroke-miterlimit="10"/>
<path d="M44.2266 157.851C47.7098 179.66 49.3028 175.98 53.2854 196.547" stroke="white" stroke-miterlimit="10"/>
<path d="M45.9738 167.563C45.9738 167.563 39.2153 176.539 35.8926 191.072" stroke="white" stroke-miterlimit="10"/>
<path d="M20.4736 213.125C42.7819 220.442 57.9691 229.454 78.9281 237.229C74.797 229.061 81.817 211.039 88.7894 205.214" stroke="white" stroke-miterlimit="10"/>
<path d="M88.7893 205.208C84.5868 203.615 79.6651 202.551 73.4535 202.42C68.9419 199.454 61.8624 199.18 53.291 200.476" stroke="white" stroke-miterlimit="10"/>
<path d="M59.4131 199.816L52.1851 196.588L47.6556 196.493C47.6556 196.493 36.3975 189.919 25.7456 190.02" stroke="white" stroke-miterlimit="10"/>
<path d="M78.249 225.762L91.7778 234.435L95.9685 234.589" stroke="white" stroke-miterlimit="10"/>
<path d="M91.0249 230.595C95.061 233.745 98.6334 236.593 101.528 240.207C103.365 240.7 104.845 239.024 105.76 237.467C105.309 235.077 101.873 232.141 100.381 229.799" stroke="white" stroke-miterlimit="10"/>
<path d="M104.417 225.019L109.742 231.647C110.111 232.324 110.046 232.913 109.843 233.49C109.398 234.845 108.506 235.861 107.258 236.622C106.616 236.866 105.98 236.747 105.362 236.331" stroke="white" stroke-miterlimit="10"/>
<path d="M108.154 219.396L113.081 226.564L113.527 228.158C113.325 229.792 112.737 231.088 111.691 231.991L109.878 231.926" stroke="white" stroke-miterlimit="10"/>
<path d="M109.849 212.923C112.661 215.61 114.711 218.136 116.168 220.543C116.97 222.636 115.591 224.467 113.136 224.877L111.739 224.681" stroke="white" stroke-miterlimit="10"/>
<path d="M87.7246 206.182C92.9257 206.093 98.1982 202.616 103.322 205.909C105.884 207.764 109.373 209.345 113.629 210.688" stroke="white" stroke-miterlimit="10"/>
<path d="M113.367 210.599C115.18 211.045 118.312 210.04 119.055 210.385C119.311 214.32 117.266 215.842 112.778 215.978" stroke="white" stroke-miterlimit="10"/>
<path d="M79.4204 237.87C79.4204 237.87 82.9809 234.601 83.8012 229.323" stroke="white" stroke-miterlimit="10"/>
<path d="M173.38 196.119C171.347 198.223 169.718 200.779 168.398 203.656C167.435 205.951 164.665 208.935 161.925 210.379C158.026 208.126 154.656 203.46 154.757 198.925" stroke="white" stroke-miterlimit="10"/>
<path d="M163.458 175.207L170.597 162.487C171.298 160.496 170.692 159.628 168.308 160.294L151.718 166.452C150.321 167.016 149.335 167.765 148.788 168.705L143.432 178.637" stroke="white" stroke-miterlimit="10"/>
<path d="M165.67 204.856C162.55 203.733 159.792 201.48 157.051 198.93C151.571 198.258 143.855 196.392 139.92 195.049C136.586 190.044 132.651 187.072 135.451 183.446" stroke="white" stroke-miterlimit="10"/>
<path d="M150.733 194.55L142.613 193.01C137.882 189.818 135.944 184.046 134.25 181.104C134.143 179.065 134.803 178.09 136.687 178.863" stroke="white" stroke-miterlimit="10"/>
<path d="M158.346 190.864C154.696 190.276 151.272 190.317 147.985 189.319C144.318 185.681 138.873 182.15 136.977 180.409C136.21 176.634 138.035 175.76 142.956 178.316C147.29 181.3 151.326 183.143 156.901 183.844" stroke="white" stroke-miterlimit="10"/>
<path d="M163.721 183.939C159.287 182.792 158.294 177.02 154.11 174.536C153.504 169.709 158.687 169.953 162.075 173.638L165.558 177.621C166.616 177.912 167.686 177.912 168.744 177.472" stroke="white" stroke-miterlimit="10"/>
<path d="M164.72 175.725C164.696 173.288 165.546 170.928 167.234 168.633C168.423 171.041 170.396 171.849 172.483 173.389C173.951 179.214 173.226 185.788 172.09 192.511" stroke="white" stroke-miterlimit="10"/>
<path d="M143.807 196.214C147.112 216.145 152.669 233.442 153.716 256" stroke="white" stroke-miterlimit="10"/>
<path d="M167.263 214.302C167.263 214.302 173.926 235.879 177.166 252.356" stroke="white" stroke-miterlimit="10"/>
<path d="M53.1891 226.351L51.0908 252.006" stroke="white" stroke-miterlimit="10"/>
<path d="M111.693 231.998L111.491 246.531L119.26 255.049L128.883 246.222" stroke="white" stroke-miterlimit="10"/>
<path d="M107.263 236.628C107.263 236.628 108.059 249.325 108.059 253.308" stroke="white" stroke-miterlimit="10"/>
<path d="M127.805 238.025L136.383 235.534L133.898 224.876L126.67 226.838" stroke="white" stroke-miterlimit="10"/>
<path d="M128.227 239.987L138.54 236.622L135.931 224.068L135.55 222.238L126.866 224.883" stroke="white" stroke-miterlimit="10"/>
<path d="M135.817 223.521C139.812 222.796 144.27 222.683 149.221 223.224" stroke="white" stroke-miterlimit="10"/>
<path d="M138.35 235.725C142.683 234.779 147.029 234.56 151.391 234.768" stroke="white" stroke-miterlimit="10"/>
<path d="M134.398 227.016C134.398 227.016 130.689 226.785 126.766 227.795" stroke="white" stroke-miterlimit="10"/>
<path d="M127.681 236.836C127.681 236.836 129.928 236.598 131.468 236.961" stroke="white" stroke-miterlimit="10"/>
<path d="M85.3472 102.13C85.3472 102.13 92.5693 110.696 99.0424 138.383" stroke="white" stroke-miterlimit="10"/>
<path d="M122.295 146.099C122.295 146.099 123.745 157.755 130.212 168.312" stroke="white" stroke-miterlimit="10"/>
<path d="M123.984 201.415C123.984 201.415 130.047 215.931 130.79 223.688" stroke="white" stroke-miterlimit="10"/>
<path d="M139.13 223.07C137.234 204.803 126.981 191.714 124.086 174.28" stroke="white" stroke-miterlimit="10"/>
<path d="M125.785 193.907C126.974 193.907 127.949 192.832 127.949 191.518C127.949 190.198 126.974 189.128 125.785 189.128C124.59 189.128 123.615 190.198 123.615 191.518C123.615 192.826 124.59 193.907 125.785 193.907Z" stroke="white" stroke-miterlimit="10"/>
<path d="M139.021 210.183C139.984 214.421 142.511 216.805 141.91 222.897" stroke="white" stroke-miterlimit="10"/>
<path d="M143.558 214.718C144.984 217.256 145.353 220.02 145.097 222.915" stroke="white" stroke-miterlimit="10"/>
<path d="M2.69531 199.929C5.388 193.01 12.4199 191.97 18.6315 188.879" stroke="white" stroke-miterlimit="10"/>
<path d="M7.12207 185.639C17.8155 179.481 24.996 171.796 39.1906 167.165" stroke="white" stroke-miterlimit="10"/>
<path d="M21.6632 192.012C21.6632 192.012 14.3876 197.04 10.7617 204.161" stroke="white" stroke-miterlimit="10"/>
<path d="M173.332 182.548C177.855 179.113 184.786 181.353 191.36 182.251" stroke="white" stroke-miterlimit="10"/>
<path d="M188.074 184.492C188.074 184.492 192.401 187.25 194.19 192.766" stroke="white" stroke-miterlimit="10"/>
<path d="M148.937 201.172C148.937 201.172 151.825 211.924 155.457 220.335" stroke="white" stroke-miterlimit="10"/>
<path d="M171.026 209.707C172.149 209.434 173.219 209.868 173.421 210.682C173.623 211.496 172.88 212.382 171.757 212.655C170.634 212.929 169.564 212.495 169.362 211.687C169.159 210.866 169.908 209.981 171.026 209.707Z" stroke="white" stroke-miterlimit="10"/>
<path d="M145.198 211.924C141.067 201.867 135.04 199.079 129.767 182.846" stroke="white" stroke-miterlimit="10"/>
<path d="M85.6035 64.8369C92.1777 72.0174 104.328 79.079 109.552 76.7905C120.359 71.5657 124.787 67.8268 124.983 46.6598" stroke="white" stroke-miterlimit="10"/>
<path d="M79.2725 56.4261C80.2651 64.4804 83.6652 70.7634 89.4785 75.2987" stroke="white" stroke-miterlimit="10"/>
<path d="M118.717 78.033C118.717 78.033 118.183 71.4053 120.857 68.3203" stroke="white" stroke-miterlimit="10"/>
<path d="M79.5574 73.4675C79.4266 64.1412 77.0846 57.6146 78.2794 47.0103" stroke="white" stroke-miterlimit="10"/>
<path d="M76.5314 41.6373C74.225 38.695 72.418 38.4275 71.4551 42.63C73.3513 53.8941 73.5474 58.6672 78.2076 58.6256" stroke="white" stroke-miterlimit="10"/>
<path d="M125.827 43.7475C128.133 40.8052 129.94 40.5377 130.903 44.7402C129.007 56.0043 128.811 60.7774 124.15 60.7358" stroke="white" stroke-miterlimit="10"/>
<path d="M73.4416 39.4616C69.6135 24.0187 71.9971 12.0651 87.6896 7.57731C97.9551 -2.24833 109.332 -1.04761 121.797 11.0606C122.1 11.6966 122.171 12.3267 121.963 12.9508C134.862 20.3928 133.602 31.8769 128.924 41.5658" stroke="white" stroke-miterlimit="10"/>
<path d="M125.232 44.7221C125.619 34.8311 124.037 26.2597 121.107 19.4774C109.991 15.8931 98.8581 15.5365 87.6891 18.0865C85.3234 21.7719 84.2356 26.2359 84.0573 31.229C82.3751 31.6391 81.0139 33.4283 79.8726 36.2101L79.3793 47.712C79.4506 44.6924 78.2737 42.0294 76.4429 39.5448" stroke="white" stroke-miterlimit="10"/>
<path d="M61.3995 104.627C61.3995 104.627 54.9263 109.751 49.5469 119.814" stroke="white" stroke-miterlimit="10"/>
<path d="M112.189 114.453L102.602 128.421" stroke="white" stroke-miterlimit="10"/>
<path d="M117.76 150.183L106.514 166.458" stroke="white" stroke-miterlimit="10"/>
<path d="M122.284 186.257L110.224 202.199" stroke="white" stroke-miterlimit="10"/>
<path d="M126.278 223.034L111.566 240.724" stroke="white" stroke-miterlimit="10"/>
<path d="M112.849 118.501L103 132.773" stroke="white" stroke-miterlimit="10"/>
<path d="M118.201 154.587L106.955 170.553" stroke="white" stroke-miterlimit="10"/>
<path d="M122.79 190.662L110.587 206.218" stroke="white" stroke-miterlimit="10"/>
<path d="M126.535 226.808L111.491 246.531" stroke="white" stroke-miterlimit="10"/>
<path d="M111.568 240.724L107.567 241.8" stroke="white" stroke-miterlimit="10"/>
<path d="M146.238 142.218L164.373 134.912V138.681L146.238 145.035V142.218Z" stroke="white" stroke-miterlimit="10"/>
</svg>
