<svg width="339" height="219" viewBox="0 0 339 219" fill="none" xmlns="http://www.w3.org/2000/svg">
<path d="M271.461 218.964C271.04 218.733 270.572 218.781 270.115 218.757C268.769 218.698 267.589 218.247 266.533 217.399C258.149 210.675 249.799 203.909 241.593 196.971C241.065 196.526 240.573 196.046 240.08 195.565C239.363 194.86 239.025 193.988 238.966 192.992C238.912 192.102 239.066 191.901 239.932 191.782C240.46 191.711 241 191.664 241.533 191.64C243.787 191.557 246.04 191.545 248.299 191.438C252.118 191.254 255.943 191.254 259.767 191.106C264.695 190.916 269.629 190.78 274.556 190.62C279.027 190.478 283.499 190.312 287.97 190.169C290.377 190.092 292.785 190.003 295.192 189.962C296.799 189.932 296.799 189.932 298.139 190.549C297.404 189.303 296.034 188.574 294.261 188.497C292.963 188.438 291.664 188.426 290.365 188.319C288.557 188.165 286.802 187.815 285.106 187.204C282.959 186.433 280.747 186.143 278.488 185.923C276.039 185.686 273.596 185.787 271.153 185.692C265.65 185.479 260.135 185.597 254.632 185.414C249.93 185.259 245.222 185.39 240.525 185.2C235.592 184.998 230.658 185.164 225.724 184.963C220.981 184.773 216.237 184.904 211.499 184.738C209.394 184.666 207.295 184.595 205.189 184.595C204.009 184.595 203.962 184.672 204.146 185.87C204.454 187.868 204.454 187.874 206.464 188.195C214.956 189.541 223.447 190.887 231.945 192.233C233.795 192.523 235.651 192.772 237.495 193.093C238.711 193.306 239.244 194.225 238.918 195.358C238.782 195.832 238.462 196.123 238.053 196.378C233.54 199.183 229.027 201.999 224.521 204.816C219.658 207.858 214.796 210.9 209.933 213.954C209.186 214.422 208.433 214.879 207.591 215.157C207.188 215.294 206.85 215.537 206.512 215.798C205.486 216.587 204.312 216.818 203.043 216.622C196.206 215.584 189.363 214.547 182.526 213.515C176.554 212.614 170.583 211.718 164.612 210.829C158.296 209.886 151.987 208.955 145.672 208.012C138.681 206.968 131.689 205.907 124.692 204.869C118.798 203.992 112.892 203.15 106.998 202.236C105.26 201.97 103.505 201.857 101.768 201.614C101.542 201.584 101.317 201.537 101.092 201.501C97.9784 201.009 96.2943 199.088 95.5886 196.105C94.6636 192.162 93.6792 188.224 92.7127 184.287C92.345 182.775 92.3332 182.781 90.7203 182.763C87.8502 182.739 84.9802 182.798 82.1161 182.674C77.1825 182.46 72.2489 182.638 67.3153 182.437C62.5714 182.247 57.8276 182.407 53.0896 182.211C48.9625 182.039 44.8294 182.134 40.7023 182.004C39.6527 181.974 38.7929 182.265 37.9271 182.84C28.5224 189.078 19.1059 195.293 9.68932 201.507C9.27423 201.78 0.504034 207.33 0 207.431C0 207.123 0 206.82 0 206.512C0.96656 206.12 10.1696 200.256 11.0295 199.693C19.942 193.822 28.8486 187.946 37.7433 182.045C38.615 181.464 39.4748 181.203 40.5244 181.227C43.8154 181.298 47.1065 181.209 50.3916 181.334C55.5505 181.529 60.7213 181.381 65.8743 181.583C70.3869 181.761 74.8995 181.624 79.4121 181.79C83.1953 181.933 86.9845 181.945 90.7677 181.974C92.1256 181.986 92.1434 181.956 91.8114 180.616C89.3564 170.625 86.8896 160.639 84.4347 150.653C82.7802 143.934 81.1318 137.21 79.4892 130.486C79.1571 129.11 78.6827 127.776 78.4752 126.364C78.1965 124.502 79.1334 123.139 80.9894 122.765C82.3474 122.492 83.7349 122.409 85.0988 122.581C86.8125 122.795 88.5322 122.795 90.2459 122.907C94.2129 123.168 98.1859 123.269 102.159 123.453C106.968 123.678 111.783 123.898 116.586 124.17C119.486 124.33 122.391 124.437 125.285 124.621C127.307 124.751 129.341 124.71 131.351 124.947C131.986 125.024 132.342 124.858 132.573 124.236C133.249 122.445 134.002 120.69 134.672 118.899C134.98 118.08 135.247 117.227 135.396 116.367C135.787 114.06 136.439 111.824 137.133 109.595C137.59 108.13 137.708 106.588 138.1 105.112C139.125 101.258 140.632 97.5751 142.339 93.9817C143.081 92.4281 143.869 90.8982 144.462 89.2793C145.091 87.5775 145.957 86.0179 147.208 84.6837C148.311 83.5155 149.372 82.3059 150.481 81.1495C152.082 79.4773 154.098 78.6057 156.351 78.2854C158.854 77.9297 161.273 77.1766 163.776 76.8326C164.428 76.7437 164.529 76.299 164.63 75.7949C164.95 74.2057 164.997 72.5928 164.807 70.9977C164.635 69.5627 164.748 68.1692 165.045 66.7816C165.442 64.9078 165.744 63.0221 166.029 61.1364C166.325 59.1677 167.043 57.2939 167.458 55.3489C167.511 55.0939 167.612 54.8093 167.778 54.6195C168.958 53.3091 168.899 51.6665 168.976 50.0773C169.101 47.5216 169.154 44.9599 169.243 42.3982C169.35 39.3621 169.901 36.3972 170.66 33.4679C171.55 30.0227 172.19 26.5241 172.955 23.0551C173.672 19.8174 175.072 16.8229 176.881 14.0537C180.682 8.23652 185.9 4.12715 192.328 1.55954C194.872 0.545543 197.54 0.065228 200.297 0.177895C201.341 0.219403 202.361 0.379509 203.274 0.913192C203.648 1.1326 203.944 1.22154 204.282 0.871683C204.751 0.379508 205.427 0.272772 206.008 0C207.004 0 207.994 0 208.99 0C215.412 1.63663 219.652 5.95947 222.777 11.4861C225.63 16.5323 227.705 21.9285 229.199 27.5321C231.251 35.229 232.585 43.0683 233.629 50.9608C234.263 55.7462 234.453 60.5553 234.477 65.3762C234.495 69.3196 234.667 73.251 234.993 77.1766C235.005 77.3307 235.016 77.479 235.04 77.6332C235.218 78.9199 235.283 78.9733 236.594 79.1571C238.717 79.4536 240.792 79.9992 242.868 80.5091C245.844 81.2326 248.916 81.4105 251.893 82.122C253.867 82.5905 255.794 83.2072 257.662 84.0077C260.609 85.2648 262.371 87.5063 263.367 90.5068C265.834 97.9547 267.939 105.509 270.038 113.058C270.904 116.165 271.918 119.189 273.193 122.142C274.088 124.218 274.521 126.453 275.381 128.547C276.863 132.158 278.292 135.787 279.585 139.463C279.875 140.294 280.326 141.053 280.765 141.823C281.305 142.772 281.216 143.312 280.415 144.059C279.591 144.824 278.583 145.298 277.592 145.796C276.662 146.265 276.626 146.306 276.97 147.291C278.197 150.831 279.431 154.371 280.682 157.905C281.583 160.443 283.214 162.435 285.414 163.948C288.883 166.337 292.275 168.816 295.299 171.775C295.435 171.911 295.578 172.036 295.732 172.154C296.396 172.67 296.562 172.682 297.232 172.16C298.59 171.099 299.948 170.043 301.282 168.958C302.421 168.027 303.66 167.268 305.089 166.907C305.765 166.735 305.996 166.373 306.109 165.727C307.064 160.111 308.072 154.501 309.021 148.886C309.572 145.642 310.218 142.422 310.651 139.161C310.811 137.951 311.843 137.311 313.219 137.477C314.434 137.619 315.027 138.313 314.85 139.635C314.488 142.327 314.037 145.002 313.616 147.682C312.673 153.689 311.73 159.696 310.776 165.697C310.663 166.403 310.758 166.984 311.434 167.363C311.63 167.476 311.831 167.624 311.956 167.808C313.071 169.445 314.814 169.996 316.569 170.536C316.824 170.613 317.079 170.708 317.334 170.785C319.552 171.455 320.69 173.014 320.809 175.256C320.922 177.468 321.758 179.282 323.222 180.919C324.314 182.14 325.274 183.498 326.027 184.963C326.377 185.645 326.822 185.941 327.563 185.864C327.753 185.846 327.943 185.864 328.138 185.864C336.321 185.965 351.549 186.202 359.738 186.303C359.738 186.534 359.738 186.76 359.738 186.991C359.513 187.015 352.237 186.932 352.012 186.932C348.187 186.908 344.356 186.967 340.538 186.819C336.369 186.653 332.2 186.736 328.032 186.647C326.923 186.623 326.905 186.647 326.62 187.702C326.413 188.467 326.075 189.143 325.422 189.606C324.818 190.033 324.551 190.572 324.462 191.326C324.319 192.523 323.91 193.638 322.796 194.332C321.426 195.18 320.044 196.004 318.556 196.609C316.587 197.404 314.731 197.143 313.065 195.791C312.501 195.334 311.926 194.883 311.398 194.385C310.894 193.911 310.384 193.786 309.726 194.035C308.766 194.397 307.775 194.332 306.779 194.178C306.382 194.113 305.848 193.828 305.641 194.308C305.391 194.901 306.05 195.032 306.411 195.233C315.514 200.268 324.628 205.29 333.736 210.313C334.809 210.906 335.889 211.475 336.926 212.127C337.697 212.608 337.774 213.141 337.223 213.853C336.197 215.181 334.904 216.011 333.155 216.118C331.245 216.237 329.336 216.254 327.427 216.349C322.505 216.61 317.583 216.919 312.661 217.18C308.92 217.375 305.172 217.488 301.436 217.725C299.835 217.826 298.228 217.856 296.627 217.95C291.895 218.235 287.163 218.449 282.425 218.609C280.629 218.668 278.832 218.751 277.041 218.84C276.78 218.852 276.519 218.947 276.264 219C274.675 218.964 273.068 218.964 271.461 218.964ZM206.927 211.665C206.951 210.864 206.903 210.064 206.785 209.263C206.203 205.409 205.652 201.549 205.089 197.688C204.282 192.126 203.482 186.564 202.675 181.008C201.875 175.487 201.062 169.96 200.256 164.44C199.372 158.385 198.489 152.337 197.617 146.283C197.095 142.654 196.496 139.03 196.069 135.384C195.915 134.055 195.553 132.757 195.044 131.511C194.634 130.509 193.935 129.786 192.956 129.323C191.865 128.807 190.703 128.624 189.505 128.57C187.364 128.481 185.23 128.392 183.089 128.28C179.389 128.084 175.689 127.859 171.982 127.675C168.051 127.479 164.114 127.367 160.182 127.123C158.54 127.023 156.897 126.993 155.254 126.898C151.513 126.685 147.777 126.477 144.035 126.287C141.746 126.169 139.446 126.157 137.163 125.973C135.556 125.849 133.955 125.843 132.354 125.754C128.653 125.546 124.953 125.333 121.247 125.143C118.839 125.018 116.432 125.001 114.03 124.823C112.423 124.704 110.822 124.692 109.221 124.603C105.598 124.396 101.975 124.182 98.346 123.998C95.98 123.88 93.6022 123.886 91.2421 123.678C89.1844 123.5 87.1149 123.571 85.0573 123.34C83.729 123.192 82.3829 123.233 81.0606 123.536C79.6789 123.85 79.0682 124.746 79.3054 126.139C79.4299 126.857 79.59 127.562 79.7679 128.268C82.6794 140.151 85.5969 152.035 88.5085 163.918C90.5365 172.202 92.5644 180.486 94.5984 188.764C95.2447 191.403 95.8674 194.047 96.5849 196.662C97.1423 198.69 98.3875 200.119 100.564 200.487C102.633 200.837 104.721 201.11 106.796 201.424C112.69 202.302 118.59 203.173 124.485 204.057C129.323 204.78 134.156 205.527 138.995 206.245C145.381 207.2 151.774 208.137 158.16 209.091C164.511 210.04 170.856 211.013 177.201 211.967C184.797 213.112 192.393 214.244 199.989 215.383C201.086 215.549 202.177 215.721 203.28 215.857C205.444 216.124 206.749 215.063 206.915 212.904C206.957 212.507 206.927 212.086 206.927 211.665ZM214.659 120.867C215.104 120.049 215.739 119.61 216.255 119.071C219.64 115.537 220.435 111.498 218.188 106.974C217.606 105.812 217.002 104.655 216.432 103.487C215.412 101.406 214.778 99.2118 214.47 96.9169C214.06 93.8631 214.132 90.8152 214.559 87.7672C214.594 87.5122 214.742 87.2513 214.499 86.8955C213.835 87.0556 213.301 87.4411 212.922 88.0222C212.311 88.9473 211.7 89.8782 211.149 90.8329C209.459 93.7623 208.297 96.8458 208.558 100.315C208.575 100.516 208.641 100.783 208.22 100.925C207.68 99.0042 207.555 97.0592 207.579 95.0846C207.603 93.0803 208.303 91.2243 208.89 89.3268C208.338 89.226 207.941 89.3683 207.532 89.4394C205.456 89.7893 203.387 90.0976 201.264 89.8308C200.357 89.7181 199.443 89.6173 198.53 89.5106C197.659 89.4098 197.659 89.4157 197.617 90.323C197.605 90.5127 197.617 90.7084 197.599 90.8982C197.463 92.6712 196.994 94.3612 196.295 95.9859C196.158 96.3002 196.069 96.7035 195.548 96.7983C195.53 96.3002 195.69 95.9148 195.803 95.5175C196.33 93.6793 196.224 91.8054 196.058 89.9375C196.016 89.4928 195.975 88.971 195.5 88.7397C194.711 88.3543 193.899 88.0103 193.093 87.6605C192.755 87.5182 192.583 87.702 192.553 88.0281C192.529 88.295 192.535 88.5618 192.529 88.8287C192.482 90.5542 192.612 92.268 192.796 93.9817C193.17 97.4032 194.302 100.534 196.556 103.191C197.771 104.626 199.2 105.841 200.683 106.998C200.867 107.14 201.187 107.205 201.11 107.685C197.676 106.577 194.711 104.827 192.239 102.147C192.12 102.621 192.114 103.031 192.12 103.434C192.156 105.171 191.901 106.867 191.432 108.533C190.454 112.026 188.533 114.825 185.402 116.74C183.095 118.158 180.61 119.166 177.948 119.604C175.44 120.019 173.032 120.713 170.702 121.704C168.502 122.64 166.456 123.821 164.807 125.594C164.588 125.831 164.232 126.003 164.292 126.43C164.624 126.708 165.021 126.584 165.389 126.602C166.231 126.643 167.073 126.637 167.915 126.679C171.769 126.88 175.623 127.1 179.478 127.295C181.767 127.408 184.067 127.414 186.35 127.61C187.951 127.752 189.558 127.687 191.148 127.96C193.792 128.41 195.518 129.786 196.218 132.437C196.834 134.773 197.131 137.151 197.445 139.546C198.234 145.535 199.165 151.507 200.031 157.484C200.831 163.011 201.62 168.531 202.42 174.058C202.835 176.934 203.25 179.81 203.695 182.68C203.861 183.753 203.891 183.759 204.905 183.783C207.888 183.854 210.87 183.925 213.853 183.984C218.022 184.067 222.19 184.073 226.359 184.162C232.668 184.305 238.978 184.322 245.287 184.453C246.894 184.488 246.918 184.459 246.858 182.881C246.704 178.867 246.603 174.864 246.799 170.844C246.971 167.334 247.072 163.817 247.261 160.301C247.463 156.559 247.605 152.817 247.73 149.07C247.908 143.525 248.109 137.987 248.181 132.442C248.24 128.084 248.507 123.726 248.519 119.367C248.519 119.005 248.447 118.614 248.863 118.324C248.975 123.992 249.046 129.655 248.827 135.324C249.159 133.172 249.414 131.013 249.699 128.855C250.535 122.522 251.709 116.242 252.853 109.963C253.304 107.478 253.755 104.999 254.223 102.515C254.306 102.082 254.318 101.596 254.816 101.026C254.644 103.315 254.33 105.314 253.986 107.3C252.308 117.096 250.612 126.892 249.521 136.783C249.349 138.337 249.064 139.878 249.722 141.414C250.452 143.11 251.406 144.676 252.32 146.265C252.557 146.68 252.859 146.775 253.262 146.52C253.844 146.152 254.431 145.79 255.018 145.429C260.165 142.274 265.78 140.122 271.348 137.874C271.449 137.833 271.568 137.815 271.651 138.011C271.313 138.307 270.874 138.438 270.465 138.621C266.522 140.388 262.543 142.084 258.706 144.077C257.04 144.943 255.433 145.903 253.861 146.923C252.954 147.51 252.966 147.522 253.357 148.577C253.85 149.906 254.371 151.216 254.988 152.497C255.753 154.092 255.711 154.098 257.147 152.977C260.111 150.659 263.213 148.554 266.723 147.154C270.382 145.696 274.064 144.302 277.747 142.891C278.008 142.79 278.286 142.571 278.672 142.826C278.352 143.205 277.907 143.336 277.515 143.543C277.177 143.727 276.822 143.875 276.495 144.065C276.039 144.332 276.223 144.729 276.359 145.079C276.519 145.482 276.828 145.411 277.112 145.239C277.996 144.705 278.897 144.195 279.739 143.596C280.48 143.069 280.516 142.778 280.012 141.948C279.265 140.732 278.755 139.41 278.286 138.076C277.521 135.87 276.709 133.688 275.796 131.535C274.835 129.282 273.975 126.993 273.311 124.627C273.115 123.927 272.861 123.245 272.6 122.569C270.957 118.324 269.237 114.107 267.043 110.105C266.931 109.897 266.705 109.696 266.954 109.304C267.785 110.265 268.229 111.398 269.036 112.495C269.036 112.18 269.06 112.068 269.03 111.967C267.298 106.019 265.585 100.066 263.823 94.124C263.302 92.3628 262.697 90.6313 261.902 88.971C260.894 86.86 259.299 85.4309 257.152 84.5473C254.775 83.563 252.326 82.8099 249.788 82.4185C246.574 81.9264 243.366 81.4164 240.223 80.5803C239.155 80.2957 238.064 80.0822 236.967 79.8924C235.396 79.6256 235.325 79.7205 235.526 81.2859C236.066 85.4961 236.819 89.6766 237.436 93.8749C237.975 97.5455 238.497 101.216 237.999 104.946C237.62 107.757 236.973 110.496 235.141 112.708C232.983 115.311 230.462 117.547 227.278 118.893C224.064 120.251 220.684 120.814 217.221 120.956C216.426 121.022 215.62 121.087 214.659 120.867ZM234.815 111.664C235.206 111.641 235.236 111.368 235.337 111.184C235.989 110.004 236.434 108.747 236.748 107.436C237.685 103.576 237.454 99.6921 236.902 95.814C236.137 90.4001 235.111 85.0276 234.548 79.5841C234.251 76.6963 233.913 73.8025 233.777 70.9088C233.605 67.3568 233.617 63.7989 233.57 60.241C233.522 56.8729 233.226 53.5166 232.775 50.184C231.969 44.2364 230.931 38.3185 229.65 32.4539C228.055 25.1306 225.796 18.0622 221.971 11.5454C219.634 7.56052 216.598 4.32877 212.584 2.02207C211.131 1.18596 209.566 0.687859 207.911 0.563333C206.595 0.462526 205.296 0.598912 204.318 1.66035C204.075 1.92719 203.855 2.01021 203.541 1.7493C202.729 1.07923 201.744 0.960631 200.736 0.907262C197.374 0.717508 194.19 1.43502 191.16 2.84631C186.73 4.90396 182.858 7.73841 179.733 11.5098C176.786 15.0617 174.681 19.0584 173.672 23.6007C173.026 26.5122 172.641 29.483 171.781 32.3472C169.943 38.4845 169.96 44.7998 169.783 51.1032C169.777 51.287 169.783 51.4886 170.079 51.5716C170.542 51.1625 170.986 50.7711 170.974 50.0002C170.951 48.0849 171.117 46.1755 171.615 44.3195C172.415 41.3308 173.24 38.3422 174.076 35.3595C174.242 34.7606 174.319 34.1795 174.206 33.5568C173.987 32.3471 174.04 31.1197 174.111 29.8922C174.135 29.4593 174.177 29.0087 174.497 28.6647C174.722 28.813 174.722 28.9672 174.704 29.1154C174.586 30.42 174.71 31.7067 174.847 33.0054C175.131 35.6916 176.003 38.1406 177.651 40.299C178.725 41.7044 179.721 43.1572 179.887 44.9954C179.905 45.1971 179.97 45.3987 180.201 45.3987C180.45 45.4046 180.646 45.2623 180.699 45.0073C180.741 44.782 180.759 44.5507 180.759 44.3254C180.776 42.3863 181.18 40.5362 181.939 38.7514C182.704 36.9546 183.386 35.1223 184.21 33.3611C186.356 28.7833 189.588 25.2314 194.172 22.9721C197.072 21.543 200.191 20.7366 203.233 19.7285C204.027 19.4617 204.881 19.3609 205.711 19.7107C206.049 19.853 206.375 19.8174 206.719 19.7166C207.123 19.598 207.538 19.4794 207.953 19.4557C211.819 19.2719 215.021 20.6713 217.352 23.743C218.692 25.5101 219.931 27.3483 221.301 29.0976C222.671 30.8469 223.501 32.8393 223.797 35.0571C224.218 38.2177 224.361 41.3723 224.04 44.5507C223.94 45.5173 223.892 46.4898 223.803 47.6461C223.91 47.3614 223.963 47.2547 223.987 47.148C225.292 41.1529 226.311 35.146 225.784 28.9612C225.351 23.9031 224.218 19.0762 221.568 14.6822C221.485 14.5399 221.301 14.3857 221.568 14.1426C222.255 14.8779 222.783 15.7081 223.234 16.5857C226.223 22.4503 226.987 28.7359 226.644 35.2053C226.394 39.9551 225.398 44.5982 224.355 49.2234C223.222 54.2638 222.439 59.3575 221.941 64.5046C221.55 68.5546 220.654 72.5039 219.415 76.376C219.344 76.6073 219.344 76.9097 218.875 76.9987C219.735 72.8004 220.809 68.6969 221.081 64.463C220.482 65.2932 220.002 66.159 219.474 66.9951C219.077 67.6177 218.792 68.2581 218.638 68.9875C217.731 73.3696 216.041 77.4553 213.883 81.363C212.685 83.5393 211.534 85.7452 210.425 87.9688C209.251 90.3289 208.392 92.8016 208.261 95.4701C208.682 94.5331 208.961 93.5369 209.4 92.606C210.384 90.5187 211.683 88.627 212.999 86.7473C214.333 84.8379 215.839 83.0412 216.753 80.8649C216.883 80.5506 217.085 80.2601 217.298 79.9932C217.411 79.845 217.5 79.5366 217.861 79.756C217.476 80.6633 217.055 81.5587 216.705 82.4837C215.288 86.267 214.891 90.2044 215.021 94.2189C215.116 97.1245 215.715 99.9115 216.871 102.568C217.939 105.029 219.486 107.276 220.156 110.182C220.732 107.935 220.411 105.907 220.643 103.902C221.147 104.626 221.176 105.456 221.224 106.268C221.354 108.664 220.963 111 220.346 113.301C219.593 116.106 218.253 118.549 215.792 120.251C215.685 120.322 215.513 120.399 215.656 120.607C216.142 120.553 216.628 120.506 217.12 120.441C219.931 120.091 222.736 119.723 225.434 118.828C228.879 117.683 231.785 115.809 233.587 112.536C234.637 110.633 235.099 108.539 235.402 106.411C235.449 106.078 235.349 105.675 235.882 105.391C235.924 107.62 235.426 109.636 234.815 111.664ZM181.565 50.1544C182.265 50.0832 182.674 50.018 183.089 50.0061C184.72 49.9706 185.384 50.9727 184.749 52.4907C184.566 52.9236 184.293 53.2913 183.901 53.5522C183.486 53.825 183.065 54.0977 182.621 54.3112C182.128 54.5484 181.945 54.8627 182.093 55.4082C182.235 55.93 182.502 56.2028 183.059 56.1554C183.326 56.1316 183.593 56.1257 183.86 56.1435C184.554 56.1909 184.69 56.3392 184.791 57.0389C184.909 57.8335 184.773 58.5688 184.281 59.2092C183.99 59.5828 183.913 59.9208 184.139 60.3596C185.562 63.1644 187.062 65.9455 189.274 68.1988C192.808 71.7923 197.125 74.1286 201.993 75.3976C203.322 75.7416 204.685 75.9728 206.079 75.8483C208.297 75.6467 210.313 74.8877 212.169 73.678C215.632 71.4128 217.986 68.1988 219.931 64.6409C220.613 63.3957 221.218 62.097 221.449 60.6976C221.787 58.6696 222.018 56.6179 222.267 54.578C222.416 53.3268 222.499 52.0697 222.629 50.8126C222.878 48.3399 223.192 45.879 223.382 43.4003C223.548 41.2656 223.358 39.1309 223.216 36.9902C223.003 33.7881 222.042 30.9359 219.913 28.5046C218.929 27.3839 218.063 26.1683 217.292 24.8874C215.685 22.219 213.189 20.867 210.236 20.2207C209.406 20.0369 208.581 20.0072 207.733 20.1732C206.915 20.3274 206.097 20.4519 205.243 20.2266C204.614 20.0606 203.944 20.1673 203.322 20.3867C200.873 21.2584 198.37 21.9759 195.969 22.984C191.225 24.9705 187.685 28.2437 185.354 32.8275C184.139 35.2172 183.178 37.7196 182.223 40.216C181.743 41.4731 181.553 42.8014 181.488 44.1475C181.458 44.6871 181.583 45.0903 182.093 45.3927C183.012 45.9324 183.208 46.7803 182.953 47.7765C182.763 48.6008 182.348 49.3183 181.565 50.1544ZM298.086 182.858C298.572 182.561 298.898 182.775 299.219 182.84C300.387 183.077 301.561 183.225 302.753 183.131C304.419 183 305.949 181.571 306.151 179.911C306.299 178.689 306.044 177.616 304.793 177.029C304.378 176.833 303.986 176.566 303.553 176.436C301.341 175.778 299.106 175.315 296.781 175.772C296.2 175.884 295.595 175.95 294.991 175.754C295.109 175.357 295.406 175.368 295.655 175.327C298.08 174.906 300.499 174.639 302.895 175.499C303.073 175.564 303.269 175.588 303.452 175.623C304.289 175.789 304.36 175.766 304.514 174.918C304.905 172.777 305.279 170.63 305.641 168.478C305.783 167.624 305.629 167.5 304.828 167.749C303.678 168.11 302.711 168.798 301.78 169.539C300.434 170.607 299.094 171.692 297.742 172.753C296.538 173.702 295.174 174.177 293.49 174.177C293.888 173.667 294.386 173.667 294.783 173.489C295.518 173.157 295.584 172.991 295.014 172.463C294.06 171.579 293.087 170.719 292.109 169.86C289.683 167.743 287.039 165.922 284.388 164.102C282.437 162.756 280.48 161.416 278.666 159.88C278.156 159.447 277.676 158.996 277.456 158.326C278.808 159.067 279.84 160.241 281.417 161.036C280.818 159.992 280.338 159.168 280.03 158.255C278.589 153.98 277 149.758 275.671 145.447C275.41 144.61 275.375 144.581 274.551 144.895C272.694 145.601 270.844 146.33 268.982 147.036C264.903 148.577 261.197 150.772 257.781 153.458C257.04 154.039 257.022 154.074 257.36 154.887C259.305 159.518 260.799 164.297 261.849 169.207C262.347 171.526 263.379 173.595 264.488 175.647C264.873 176.353 265.324 177.017 265.834 177.64C267.939 180.219 270.512 182.241 273.287 184.032C274.011 184.494 274.794 184.785 275.642 184.862C276.667 184.957 277.681 185.141 278.719 185.206C280.937 185.342 283.125 185.663 285.224 186.457C287.685 187.388 290.253 187.744 292.874 187.714C293.123 187.714 293.413 187.827 293.645 187.513C293.366 186.86 292.571 186.469 292.512 185.669C292.808 185.562 292.933 185.734 293.04 185.876C294.19 187.376 295.726 188.218 297.57 188.562C298.033 188.645 298.021 188.681 298.157 189.369C298.187 189.505 298.305 189.63 298.412 189.736C299.058 190.389 299.734 191.017 300.499 191.521C300.784 191.711 301.098 191.859 301.418 191.99C301.626 192.073 301.887 192.108 302.017 191.853C302.124 191.64 301.952 191.509 301.816 191.367C300.535 190.027 300.452 188.586 301.798 187.4C302.652 186.641 302.83 185.757 302.913 184.761C302.978 184.008 302.954 183.979 302.225 183.937C301.881 183.919 301.537 183.937 301.193 183.907C300.12 183.812 299.112 183.528 298.086 182.858ZM246.099 193.982C246.425 194.261 246.752 194.563 247.095 194.842C254.282 200.671 261.475 206.488 268.656 212.323C269.19 212.756 269.736 212.969 270.429 212.969C272.001 212.963 273.56 212.803 275.126 212.756C278.488 212.649 281.844 212.483 285.206 212.323C290.935 212.05 296.657 211.813 302.385 211.606C305.706 211.487 309.026 211.327 312.347 211.173C317.044 210.959 321.74 210.811 326.436 210.639C327.112 210.615 327.8 210.633 328.619 210.331C328.126 210.028 327.759 209.779 327.373 209.56C321.859 206.417 316.344 203.274 310.829 200.131C309.032 199.111 307.248 198.08 305.439 197.077C304.739 196.692 304.656 196.745 304.318 197.457C304.039 198.044 303.785 198.643 303.488 199.218C303.34 199.497 303.28 199.971 302.842 199.888C302.504 199.823 302.516 199.396 302.474 199.111C302.344 198.163 302.201 197.214 302.172 196.265C302.148 195.488 301.869 194.978 301.181 194.611C300.037 194 298.904 193.354 297.795 192.678C297.108 192.262 296.39 192.114 295.607 192.185C292.138 192.482 288.658 192.393 285.183 192.571C280.984 192.784 276.78 192.873 272.576 193.01C266.883 193.188 261.191 193.383 255.498 193.514C252.515 193.585 249.544 193.834 246.556 193.781C246.425 193.786 246.259 193.763 246.099 193.982ZM175.872 81.8078C175.422 81.6358 175.351 81.446 175.256 81.2859C173.589 78.3981 172.658 75.3146 173.014 71.9643C173.204 70.1853 173.05 68.4538 172.813 66.7104C172.67 65.6727 172.73 64.6528 173.074 63.6507C173.24 63.1703 173.459 62.7375 173.874 62.4232C175.76 60.9882 177.752 59.82 180.243 59.8971C180.699 59.9089 181.162 59.8615 181.618 59.8378C182.087 59.8141 182.526 59.6777 182.929 59.4583C183.646 59.0669 184.079 58.4561 184.162 57.6378C184.222 57.0152 183.979 56.7128 183.391 56.8195C182.034 57.0626 180.729 56.7661 179.407 56.5645C178.256 56.3866 177.124 56.4756 176.027 56.9203C175.107 57.2939 174.194 57.7149 173.24 57.9758C171.212 58.5154 170.121 59.9149 169.462 61.7828C169.326 62.1801 169.201 62.5833 169.083 62.9865C168.697 64.3089 168.253 65.6134 167.606 66.835C167.209 67.5821 166.93 68.3708 166.818 69.2188C166.794 69.4204 166.824 69.7109 166.403 69.6813C166.171 68.9282 166.248 68.1632 166.586 67.4695C167.523 65.5363 168.158 63.4906 168.887 61.4744C169.581 59.5532 170.749 58.0648 172.836 57.4836C173.352 57.3413 173.815 57.0745 174.218 56.695C175.268 55.7047 176.513 55.0584 177.865 54.5899C178.778 54.2756 179.703 54.1096 180.676 54.1036C181.873 54.0977 182.917 53.653 183.777 52.8169C184.222 52.384 184.382 51.5657 184.145 51.1209C183.866 50.6051 183.362 50.7414 182.917 50.7296C181.69 50.6999 180.474 50.9075 179.264 51.0617C177.978 51.2277 176.667 51.1684 175.41 51.5953C173.293 52.3247 171.431 53.5403 169.504 54.6195C169.089 54.8508 168.881 55.3964 168.288 55.3964C168.098 55.3964 168.033 55.6632 168.015 55.8529C167.79 57.7623 166.96 59.5294 166.711 61.427C166.474 63.2474 166.13 65.0501 165.78 66.8528C165.501 68.2818 165.394 69.7169 165.596 71.1875C165.768 72.4327 165.768 73.7017 165.531 74.9588C165.062 77.4078 164.991 79.8924 164.813 82.3711C164.754 83.2072 164.724 84.067 164.843 84.8913C165.193 87.2988 164.297 89.2437 162.714 90.9337C162.145 91.5445 161.771 92.2205 161.505 92.9795C160.959 94.5331 160.413 96.0868 159.678 97.5574C157.401 102.106 154.916 106.547 152.165 110.828C149.182 115.465 145.868 119.865 142.541 124.253C142.28 124.597 141.906 124.9 141.877 125.404C142.049 125.439 142.161 125.475 142.274 125.475C145.939 125.647 149.609 125.765 153.268 125.997C155.023 126.103 156.784 126.139 158.534 126.24C159.488 126.293 160.437 126.43 161.392 126.412C162.329 126.394 162.37 126.364 162.667 125.433C162.969 124.485 163.254 123.536 163.556 122.587C165.543 116.349 167.772 110.206 170.82 104.394C172.119 101.916 173.495 99.4964 175.428 97.4328C175.92 96.9051 176.341 96.3002 176.697 95.6657C177.373 94.462 178.173 93.3412 178.974 92.2264C179.626 91.3192 180.349 90.489 181.358 89.9494C182.217 89.4928 182.71 88.7279 183 87.8265C183.421 86.5101 183.641 85.1462 183.724 83.7705C183.795 82.6261 183.901 81.452 183.403 80.0822C183.125 81.452 182.905 82.5727 182.668 83.6875C182.52 84.3991 182.413 85.1284 182.158 85.8045C181.737 86.9015 180.794 87.0319 180.023 86.1484C179.454 85.4961 179.181 84.6956 178.974 83.8773C178.565 82.2466 178.126 80.6218 177.782 78.9733C176.768 74.0693 175.801 69.1535 174.811 64.2436C174.734 63.8463 174.746 63.4135 174.408 63.117C173.933 63.2949 173.868 63.6981 173.738 64.042C173.429 64.8959 173.477 65.7676 173.595 66.6511C173.809 68.2403 174.088 69.8355 173.856 71.4484C173.506 73.8974 173.88 76.2456 174.722 78.5464C175.096 79.5604 175.445 80.604 175.872 81.8078ZM183.718 61.3084C183.563 61.7413 183.712 61.9844 183.765 62.2394C184.133 63.8819 184.518 65.5186 184.862 67.167C185.247 69.0231 185.253 70.8791 184.838 72.7411C184.506 74.2354 184.239 75.7416 183.931 77.2359C183.795 77.8881 183.801 78.5167 184.002 79.1571C184.915 82.0805 184.536 84.9802 183.789 87.868C183.48 89.0718 182.781 90.0028 181.696 90.6195C180.913 91.0642 180.308 91.6809 179.786 92.4043C179.003 93.4895 178.238 94.5865 177.551 95.7369C177.183 96.3595 176.803 96.9999 176.317 97.5277C174.094 99.953 172.498 102.776 171.028 105.681C167.909 111.848 165.685 118.353 163.657 124.941C163.586 125.167 163.384 125.41 163.592 125.677C163.817 125.641 163.924 125.475 164.042 125.339C165.875 123.299 168.146 121.923 170.666 120.927C172.196 120.322 173.732 119.741 175.268 119.148C178.76 117.79 181.589 115.62 183.528 112.358C183.712 112.05 183.848 111.676 184.435 111.38C183.125 114.92 180.753 117.209 177.752 118.97C180.118 118.407 182.377 117.636 184.477 116.426C186.902 115.027 188.758 113.117 189.902 110.544C191.225 107.567 191.569 104.442 191.296 101.228C191.248 100.688 191.059 100.184 190.816 99.7039C189.624 97.3439 189.096 94.8118 188.847 92.2027C188.811 91.8114 188.734 91.3903 189.007 90.9337C189.375 91.2836 189.292 91.6868 189.345 92.0367C189.772 94.6933 190.389 97.2846 191.669 99.6802C192.95 102.07 194.907 103.766 197.392 105.278C197.19 104.987 197.143 104.893 197.072 104.821C193.875 101.756 192.411 97.925 191.972 93.5903C191.723 91.1472 191.824 88.6982 191.752 86.2551C191.664 83.4147 191.331 80.6159 190.229 77.9593C189.594 76.4353 188.746 75.03 187.898 73.6187C187.726 73.334 187.447 73.0494 187.584 72.4446C188.788 73.7136 189.487 75.1249 190.383 76.3938C191.308 77.7043 192.233 79.0207 193.093 80.3787C193.935 81.701 194.676 83.0827 195.287 84.5295C195.897 85.9646 196.342 87.4589 196.787 88.9532C196.728 88.1467 196.627 87.3521 196.467 86.5635C195.648 82.5549 194.095 78.8132 192.09 75.2731C190.169 71.8812 188.331 68.4419 186.078 65.2458C185.206 64.042 184.536 62.7019 183.718 61.3084ZM138.289 125.285C138.633 125.285 138.983 125.238 139.321 125.291C140.305 125.451 140.964 125.06 141.545 124.259C143.543 121.508 145.654 118.834 147.629 116.058C152.877 108.688 157.585 101.003 160.912 92.5467C161.261 91.6572 161.665 90.7914 162.352 90.0858C163.746 88.6567 164.357 86.9726 164.078 84.9683C163.948 84.0196 163.959 83.053 164.066 82.1042C164.203 80.9242 164.208 79.7383 164.256 78.5523C164.297 77.5976 164.185 77.5086 163.218 77.6391C162.993 77.6687 162.768 77.728 162.542 77.7814C160.455 78.2439 158.374 78.7658 156.257 79.08C154.009 79.4062 152.147 80.4439 150.635 82.1398C149.793 83.0827 148.939 84.0077 148.068 84.9209C146.917 86.1247 146.028 87.4885 145.423 89.0481C144.854 90.5068 144.284 91.9715 143.543 93.359C141.782 96.6442 140.418 100.113 139.38 103.659C138.331 107.247 137.507 110.911 136.629 114.546C136.066 116.894 135.514 119.225 134.565 121.455C134.204 122.297 133.854 123.145 133.545 124.01C133.255 124.835 133.35 125.001 134.168 125.024C135.544 125.072 136.908 125.339 138.289 125.285ZM249.141 142.055C248.845 142.618 248.833 143.003 248.809 143.383C248.542 147.119 248.465 150.86 248.305 154.602C248.121 158.99 247.854 163.378 247.688 167.766C247.546 171.55 247.54 175.333 247.588 179.116C247.605 180.492 247.617 181.867 247.688 183.243C247.748 184.34 247.926 184.483 249.005 184.506C252.824 184.583 256.642 184.649 260.467 184.72C263.521 184.779 266.581 184.69 269.635 184.898C270.773 184.975 271.918 184.909 273.299 184.909C272.481 184.388 271.894 184.032 271.331 183.641C269.16 182.122 267.292 180.272 265.395 178.434C263.699 176.792 262.703 174.853 262.015 172.676C261.748 171.84 261.517 170.992 261.291 170.144C260.681 167.814 260.117 165.477 259.477 163.153C258.771 160.609 257.805 158.154 256.856 155.693C256.708 155.314 256.607 154.804 256.103 154.774C255.166 154.715 254.804 154.045 254.49 153.345C253.844 151.916 253.185 150.499 252.664 149.016C251.81 146.591 250.274 144.516 249.141 142.055ZM240.407 192.494C242.595 194.308 244.587 195.969 246.591 197.623C253.494 203.322 260.408 208.996 267.281 214.736C268.609 215.845 270.008 216.308 271.704 216.201C275.096 215.988 278.5 215.857 281.892 215.656C286.469 215.389 291.047 215.08 295.625 214.814C298.981 214.618 302.344 214.511 305.7 214.28C307.188 214.179 308.677 214.132 310.165 214.043C314.778 213.77 319.398 213.467 324.011 213.201C327.367 213.005 330.73 212.863 334.086 212.679C334.649 212.649 335.207 212.542 335.758 212.477C335.764 212.222 335.604 212.175 335.473 212.104C334.104 211.339 332.734 210.58 331.358 209.821C323.027 205.207 314.695 200.594 306.358 195.992C305.99 195.791 305.445 195.233 305.184 195.69C304.834 196.301 305.652 196.437 306.032 196.651C310.177 199.034 314.334 201.394 318.49 203.76C322.149 205.842 325.808 207.917 329.455 210.01C329.769 210.188 330.303 210.319 330.214 210.752C330.101 211.262 329.526 211.084 329.14 211.161C329.028 211.184 328.909 211.173 328.796 211.179C327.652 211.202 326.502 211.208 325.357 211.262C320.963 211.457 316.575 211.689 312.187 211.878C309.477 211.997 306.755 212.009 304.051 212.187C302.142 212.311 300.233 212.323 298.323 212.412C294.083 212.608 289.849 212.833 285.61 213.017C282.781 213.141 279.947 213.129 277.13 213.337C274.877 213.503 272.617 213.39 270.376 213.675C269.676 213.764 269.143 213.533 268.597 213.088C263.082 208.593 257.55 204.122 252.029 199.639C249.74 197.783 247.457 195.921 245.174 194.065C245.002 193.923 244.735 193.798 244.783 193.543C244.848 193.205 245.174 193.241 245.435 193.217C245.589 193.205 245.743 193.211 245.892 193.205C249.485 193.075 253.073 192.903 256.666 192.814C261.867 192.689 267.061 192.517 272.256 192.328C276.074 192.191 279.899 192.126 283.724 192.031C283.878 192.025 284.032 192.019 284.181 192.013C288.189 191.877 292.204 191.741 296.212 191.592C296.853 191.569 297.404 191.729 297.95 192.055C298.964 192.666 299.995 193.247 301.039 193.816C301.294 193.952 301.638 194.409 301.893 193.97C302.106 193.597 301.644 193.407 301.359 193.223C301.229 193.14 301.092 193.075 300.956 193.004C299.983 192.47 298.987 191.978 298.05 191.385C297.232 190.869 296.39 190.709 295.435 190.733C290.431 190.851 285.426 191.041 280.415 191.207C275.944 191.355 271.473 191.474 267.002 191.646C261.618 191.853 256.227 191.99 250.837 192.15C247.588 192.245 244.338 192.328 241.089 192.417C240.946 192.417 240.798 192.446 240.407 192.494ZM236.813 193.947C236.446 193.591 236.131 193.597 235.835 193.549C231.684 192.909 227.527 192.268 223.376 191.616C217.488 190.691 211.6 189.76 205.711 188.835C204.816 188.693 204.62 188.835 204.727 189.695C205.017 191.972 205.361 194.237 205.688 196.508C205.765 197.03 206.043 197.303 206.601 197.344C207.514 197.415 208.421 197.54 209.334 197.647C212.483 198.008 215.632 198.364 218.787 198.726C219.623 198.821 220.459 198.922 221.289 199.034C221.473 199.058 221.657 199.159 221.704 199.372C221.751 199.598 221.603 199.734 221.443 199.841C221.158 200.031 220.856 200.202 220.56 200.369C216.521 202.628 212.483 204.881 208.439 207.134C207.449 207.686 207.354 207.864 207.496 208.961C207.532 209.228 207.609 209.483 207.644 209.749C207.721 210.283 207.988 210.384 208.433 210.117C208.599 210.016 208.759 209.921 208.925 209.827C216.338 205.61 223.744 201.394 231.156 197.172C233.018 196.123 234.868 195.061 236.813 193.947ZM190.234 70.2446C190.193 70.2861 190.146 70.3276 190.104 70.3691C190.312 70.719 190.513 71.0689 190.727 71.4187C193.804 76.4769 196.502 81.6892 197.451 87.6368C197.593 88.5144 197.748 88.6093 198.631 88.7753C201.833 89.3801 205.012 89.2556 208.196 88.5737C209.02 88.3958 209.536 88.0459 209.916 87.275C210.983 85.1166 212.098 82.9759 213.26 80.8649C215.063 77.6035 216.545 74.2117 217.476 70.5945C217.535 70.3691 217.761 70.132 217.506 69.8295C217.292 70.0727 217.097 70.298 216.895 70.5233C215.513 72.071 214.013 73.4823 212.228 74.5615C209.257 76.3583 206.115 77.0876 202.669 76.299C198.542 75.3502 194.789 73.6305 191.403 71.0866C191.017 70.7961 190.626 70.5233 190.234 70.2446ZM239.879 193.33C239.784 194.006 240.134 194.51 240.531 194.961C240.934 195.417 241.397 195.826 241.865 196.218C245.714 199.426 249.55 202.646 253.428 205.818C257.9 209.477 262.406 213.082 266.895 216.717C267.98 217.595 269.184 218.016 270.595 218.01C274.23 217.998 277.859 218.069 281.488 217.838C284.347 217.654 287.223 217.672 290.081 217.512C291.877 217.411 293.668 217.352 295.465 217.263C299.628 217.061 303.785 216.83 307.947 216.616C309.667 216.527 311.381 216.45 313.1 216.355C316.569 216.154 320.044 215.928 323.513 215.745C326.033 215.614 328.553 215.555 331.074 215.442C331.951 215.407 332.829 215.341 333.706 215.246C334.898 215.122 335.924 214.345 336.286 213.331C334.554 213.414 332.841 213.473 331.127 213.574C327.694 213.77 324.26 214.001 320.827 214.191C317.506 214.375 314.185 214.517 310.865 214.707C306.245 214.974 301.632 215.282 297.019 215.543C293.585 215.739 290.146 215.851 286.713 216.088C285.26 216.189 283.813 216.231 282.36 216.32C278.814 216.527 275.262 216.699 271.716 216.984C269.753 217.138 268.182 216.521 266.682 215.27C258.113 208.107 249.497 201.003 240.893 193.881C240.626 193.638 240.389 193.3 239.879 193.33ZM180.984 84.1797C180.895 84.1678 180.8 84.15 180.711 84.1382C180.747 83.8061 180.753 83.4681 180.824 83.136C181.138 81.6002 181.429 80.0585 181.796 78.5345C182.389 76.0736 182.721 73.5772 183.024 71.0748C183.427 67.6889 182.383 64.4868 181.696 61.2432C181.595 60.7747 181.286 60.668 180.859 60.6442C179.418 60.579 178.055 60.8221 176.75 61.4685C175.131 62.269 175.09 62.2927 175.457 64.0954C176.216 67.843 176.975 71.5907 177.728 75.3324C178.304 78.1787 178.992 81.0013 179.703 83.818C179.863 84.4525 180.047 85.081 180.48 85.5851C180.895 86.0713 181.292 86.0298 181.524 85.4487C181.701 84.9921 181.796 84.494 181.891 84.0077C182.632 80.2601 183.374 76.5065 184.097 72.7529C184.388 71.2467 184.5 69.7406 184.251 68.1988C183.854 65.7795 183.249 63.4135 182.65 61.0415C182.615 60.8933 182.621 60.6442 182.33 60.6976C182.17 61.0119 182.342 61.2965 182.401 61.5871C182.769 63.3067 183.16 65.0204 183.498 66.746C183.718 67.8727 183.872 68.9994 183.747 70.1616C183.368 73.6602 182.804 77.1291 181.909 80.5388C181.577 81.7485 181.286 82.9641 180.984 84.1797ZM310.645 167.666C310.319 168.537 310.212 169.249 310.254 169.966C310.272 170.275 310.295 170.565 310.201 170.868C309.679 172.516 309.471 174.218 309.341 175.944C309.27 176.892 309.121 177.847 308.659 178.707C307.989 179.952 307.301 181.186 306.435 182.318C305.332 183.753 304.935 185.479 304.579 187.204C304.496 187.602 304.549 188.046 304.627 188.456C304.757 189.191 305.006 189.885 305.824 190.128C306.613 190.359 307.236 189.997 307.811 189.505C307.924 189.404 308.024 189.286 308.125 189.173C309.418 187.768 310.699 186.35 312.009 184.957C313.782 183.077 315.146 180.919 316.403 178.677C316.931 177.734 316.972 176.797 316.551 175.819C315.745 173.951 314.778 172.178 313.503 170.583C312.679 169.575 311.784 168.644 310.645 167.666ZM306.572 191.076C307.176 191.474 307.74 191.426 308.238 191.492C309.643 191.675 311.066 191.788 312.418 191.201C315.698 189.784 318.283 187.507 320.388 184.666C321.183 183.593 321.361 182.395 321.094 181.073C320.673 179.015 320.186 176.969 320.026 174.864C319.937 173.678 319.374 172.647 318.336 172C317.269 171.33 316.012 171.152 314.832 170.613C314.79 171.176 315.087 171.407 315.259 171.686C315.982 172.86 316.646 174.058 317.198 175.327C317.803 176.732 317.672 178.013 316.937 179.377C315.128 182.71 312.667 185.52 310.082 188.236C309.068 189.298 308.19 190.543 306.572 191.076ZM307.271 179.697C307.752 179.045 308.018 178.422 308.125 177.734C308.267 176.827 308.422 175.926 308.564 175.019C309.851 166.794 311.137 158.569 312.424 150.345C312.667 148.797 312.922 147.255 313.148 145.702C313.207 145.298 313.361 144.812 312.982 144.516C312.43 144.083 311.754 144.13 311.108 144.249C310.586 144.344 310.586 144.836 310.503 145.245C310.444 145.547 310.384 145.844 310.331 146.146C309.121 153.143 307.912 160.147 306.696 167.144C306.251 169.705 305.824 172.267 305.35 174.817C305.202 175.629 305.243 176.293 305.955 176.857C306.506 177.296 306.773 177.942 306.915 178.636C306.987 178.956 306.957 179.318 307.271 179.697ZM207.644 214.268C208.433 214.037 208.996 213.645 209.572 213.284C216.699 208.83 223.833 204.377 230.96 199.924C233.066 198.607 235.177 197.291 237.276 195.969C237.655 195.731 238.094 195.524 238.147 194.984C238.201 194.468 237.958 194.243 237.489 194.439C237.175 194.569 236.878 194.747 236.576 194.919C227.752 199.959 218.929 205 210.105 210.052C207.419 211.588 208.077 210.805 207.615 213.776C207.609 213.889 207.633 214.001 207.644 214.268ZM321.959 180.699C322.493 183.219 321.36 185.064 319.742 186.718C318.994 187.483 318.224 188.23 317.429 188.942C315.929 190.276 314.245 191.314 312.377 192.061C312.169 192.144 311.825 192.067 311.778 192.434C313.225 192.98 314.387 193.229 315.952 192.95C319.184 192.375 322.262 191.397 324.782 189.143C325.903 188.141 326.211 187.133 325.577 185.763C324.705 183.878 323.4 182.277 321.959 180.699ZM174.669 36.4328C173.791 39.4866 172.789 42.499 172.57 45.6774C172.516 46.4364 172.546 47.2073 172.617 47.9663C172.688 48.7431 172.913 48.832 173.554 48.4229C174.04 48.1145 174.479 47.7587 174.805 47.2725C175.196 46.6854 175.653 46.4245 176.448 46.7032C177.402 47.0412 178.055 46.3593 177.847 45.3631C177.533 43.8688 177.183 42.3804 176.833 40.8979C176.756 40.5659 176.637 40.2279 176.465 39.9373C175.801 38.8166 175.22 37.6662 174.669 36.4328ZM168.887 54.2875C169.794 53.7479 170.684 53.1845 171.603 52.6686C173.269 51.7317 174.965 50.8541 176.91 50.6584C177.746 50.5754 178.582 50.5102 179.413 50.4034C180.877 50.2137 182.283 48.6423 182.342 47.1598C182.383 46.128 181.844 45.6774 180.848 45.9205C180.628 45.9739 180.409 46.045 180.195 46.128C178.879 46.6321 177.557 47.1361 176.246 47.6579C175.534 47.9426 174.87 48.3102 174.224 48.7194C171.982 50.1247 170.482 52.2476 168.887 54.2875ZM323.643 191.154C319.771 192.861 316.03 194.652 311.671 193.437C312.27 194.083 312.91 194.605 313.545 195.127C315.093 196.407 316.8 196.544 318.573 195.725C319.712 195.198 320.785 194.528 321.906 193.947C322.985 193.389 323.549 192.517 323.643 191.154ZM304.876 183.433C303.82 183.486 303.832 184.233 303.725 184.832C302.996 188.835 302.729 192.867 302.96 196.929C302.978 197.22 302.877 197.546 303.138 197.777C303.34 197.801 303.435 197.67 303.488 197.54C304.312 195.601 304.976 193.609 305.54 191.581C305.664 191.124 305.457 190.875 305.089 190.65C304.194 190.098 303.873 189.215 303.785 188.224C303.707 187.412 303.808 186.623 304.081 185.852C304.348 185.07 304.597 184.281 304.876 183.433ZM195.595 87.9155C194.83 84.8438 193.448 82.2228 191.859 79.6374C191.747 79.762 191.699 79.7975 191.705 79.8153C192.132 81.8671 192.488 83.9306 192.535 86.0357C192.541 86.3619 192.66 86.6346 192.956 86.8007C193.745 87.2395 194.551 87.6486 195.595 87.9155ZM209.5 201.489C211.463 201.792 213.39 202.195 215.365 202.195C216.112 202.195 216.646 201.715 217.185 201.246C215.454 200.944 213.746 200.825 212.062 200.54C211.001 200.369 210.23 200.718 209.5 201.489ZM213.972 203.15C213.906 202.906 213.746 202.871 213.604 202.853C211.86 202.652 210.117 202.456 208.374 202.266C207.941 202.219 207.544 202.355 207.176 202.58C206.951 202.717 206.672 202.841 206.755 203.179C206.82 203.446 207.051 203.499 207.289 203.523C208.688 203.683 210.093 203.837 211.493 204.003C212.483 204.122 213.254 203.701 213.972 203.15ZM312.638 141.764C313.717 141.782 313.729 141.77 313.93 140.661C313.996 140.288 314.079 139.914 314.102 139.54C314.156 138.681 313.919 138.349 313.201 138.236C312.282 138.088 311.742 138.384 311.547 139.191C311.428 139.671 311.357 140.157 311.286 140.643C311.149 141.574 311.268 141.717 312.187 141.764C312.335 141.77 312.489 141.764 312.638 141.764ZM219.812 199.817C219.718 199.71 219.67 199.609 219.617 199.604C217.725 199.372 215.839 199.07 213.93 199.005C213.301 198.981 212.803 199.266 212.264 199.811C214.327 200.06 216.219 200.291 218.116 200.505C218.804 200.594 219.356 200.321 219.812 199.817ZM211.855 198.702C210.206 198.518 208.558 198.323 206.903 198.151C206.565 198.115 206.168 198.115 206.126 198.596C206.085 199.064 206.435 199.141 206.796 199.183C207.929 199.325 209.056 199.467 210.188 199.604C210.882 199.693 211.41 199.36 211.855 198.702ZM310.159 193.081C310.165 192.808 310.005 192.683 309.833 192.618C308.795 192.233 307.686 192.191 306.607 192.031C306.168 191.966 306.091 192.411 306.02 192.737C305.937 193.099 306.139 193.306 306.477 193.401C307.757 193.763 308.997 193.792 310.159 193.081ZM210.734 204.958C210.722 204.869 210.716 204.78 210.704 204.685C209.619 204.567 208.54 204.442 207.455 204.336C207.271 204.318 207.081 204.359 206.986 204.567C206.707 205.178 207.182 205.96 207.876 206.055C209.05 206.221 209.85 205.492 210.734 204.958ZM209.376 200.463C209.352 200.398 209.323 200.339 209.299 200.274C208.658 200.185 208.018 200.09 207.378 200.019C206.607 199.936 206.358 200.066 206.328 200.54C206.298 201.033 206.553 201.246 207.217 201.353C207.496 201.394 207.751 201.377 207.994 201.24C208.457 200.979 208.919 200.718 209.376 200.463ZM177.527 41.6451C177.616 43.0267 178.025 44.355 178.345 45.7011C178.381 45.8553 178.499 45.9679 178.683 45.9146C178.855 45.8671 178.914 45.707 178.891 45.5588C178.636 44.1949 178.576 42.7718 177.527 41.6451ZM312.08 142.399C311.73 142.399 311.464 142.351 311.22 142.488C311.001 142.618 310.936 142.831 310.96 143.069C310.977 143.229 311.078 143.341 311.25 143.359C311.849 143.424 312.442 143.513 313.041 143.543C313.361 143.561 313.486 143.294 313.515 143.015C313.539 142.743 313.361 142.618 313.112 142.577C312.739 142.511 312.371 142.446 312.08 142.399ZM176.821 55.8292C177.705 55.7462 178.571 55.6513 179.43 55.8885C179.573 55.93 179.733 55.9241 179.887 55.9241C180.338 55.9241 180.379 55.6513 180.278 55.3074C180.154 54.8864 179.81 54.8449 179.454 54.8745C178.493 54.9575 177.64 55.3311 176.821 55.8292ZM301.994 190.383C302.272 189.636 302.48 188.877 302.314 187.874C301.543 188.782 301.401 189.541 301.994 190.383Z" fill="white"/>
</svg>
