<svg width="221" height="229" viewBox="0 0 221 229" fill="none" xmlns="http://www.w3.org/2000/svg">
<path d="M221 137.536C220.833 138.325 220.925 139.132 220.856 139.933C220.579 143.022 219.915 146.047 219.338 149.084C218.934 151.211 218.87 153.354 218.951 155.515C218.991 156.547 219.141 157.607 218.853 158.65C218.772 158.933 218.887 159.273 218.905 159.584C219.049 162.096 218.547 164.54 218.062 166.977C217.485 169.858 217.185 172.78 216.781 175.69C216.353 178.773 215.69 181.827 214.864 184.824C213.923 188.23 211.193 190.189 207.655 190.362C204.52 190.512 201.605 189.705 198.841 188.391C193.236 185.729 187.452 183.504 181.749 181.09C178.869 179.868 176.242 178.174 173.622 176.485C169.027 173.518 164.248 170.838 159.676 167.836C157.725 166.556 155.82 165.208 153.939 163.825C153.431 163.45 153.425 163.445 153.298 164.09C152.369 168.735 151.503 173.397 151.128 178.128C151.064 178.969 151.012 179.81 150.989 180.652C150.937 182.882 150.972 185.118 150.845 187.348C150.724 189.434 151.26 191.428 151.497 193.462C151.924 197.15 153.229 200.51 155.105 203.691C156.334 205.771 157.292 207.984 158.124 210.249C159.642 214.392 161.535 218.374 163.318 222.402C164.271 224.551 165.16 226.73 165.783 229C165.506 229 165.235 229 164.958 229C164.184 226.464 163.105 224.044 161.991 221.647C159.89 217.152 158.072 212.548 156.248 207.938C155.561 206.203 154.672 204.567 153.731 202.959C151.843 199.726 151.018 196.188 150.568 192.523C150.314 190.465 149.875 188.431 149.586 186.374C149.384 184.922 149.304 183.452 149.177 181.989C149.159 181.822 149.136 181.643 149.402 181.343C149.621 182.934 149.823 184.386 150.025 185.844C150.048 185.838 150.077 185.838 150.1 185.832C150.106 185.757 150.112 185.677 150.112 185.602C149.898 178.883 150.799 172.279 152.138 165.721C153.096 161.019 154.071 156.322 154.631 151.551C154.764 150.421 154.966 149.286 154.943 148.162C154.874 144.722 155.209 141.299 155.203 137.859C155.191 132.154 154.504 126.529 153.46 120.94C152.715 116.975 151.797 113.045 150.874 109.121C150.827 108.925 150.7 108.723 150.856 108.504C151.099 108.55 151.076 108.758 151.122 108.913C152.888 114.952 154.435 121.043 155.284 127.29C155.641 129.912 155.907 132.54 155.913 135.191C155.919 137.38 155.959 139.576 155.947 141.766C155.919 148.076 155.22 154.311 153.985 160.488C153.864 161.082 153.789 161.687 153.633 162.275C153.523 162.696 153.679 162.926 154.002 163.157C156.484 164.914 158.949 166.701 161.564 168.245C167.186 171.564 172.756 174.976 178.303 178.422C180.323 179.678 182.494 180.658 184.71 181.51C189.576 183.401 194.344 185.521 199.106 187.653C201.605 188.771 204.203 189.618 206.991 189.572C209.069 189.538 210.997 189.036 212.492 187.457C213.479 186.414 214.062 185.158 214.345 183.775C214.933 180.859 215.776 177.989 216.076 175.022C216.457 171.236 217.179 167.507 217.883 163.773C218.466 160.702 218.189 157.653 217.502 154.622C217.387 154.109 217.19 153.596 217.277 153.037C217.681 153.573 217.825 154.213 218.102 154.91C218.212 154.092 218.056 153.383 218.079 152.674C218.154 150.346 218.674 148.099 219.118 145.828C219.632 143.212 220.042 140.579 220.111 137.911C220.146 136.602 220.059 135.289 220.013 133.975C219.955 132.309 219.863 130.65 219.822 128.984C219.788 127.63 219.58 126.299 219.384 124.956C219.297 124.357 218.939 124.126 218.414 123.93C216.388 123.181 214.27 122.934 212.145 122.697C209.08 122.352 206.067 121.729 203.031 121.193C200.076 120.675 197.103 120.271 194.119 119.96C193.594 119.908 193.057 119.96 192.532 119.908C191.96 119.851 191.787 120.116 191.723 120.634C191.533 122.173 191.389 123.712 191.475 125.262C191.608 127.688 191.741 130.108 191.995 132.523C192.358 136.003 193.415 139.299 194.627 142.555C195.418 144.687 196.197 146.82 196.976 148.957C197.034 149.113 197.126 149.274 196.976 149.626C195.516 146.554 194.24 143.546 193.143 140.469C193.086 140.481 193.034 140.486 193.028 140.498C192.537 143.005 191.319 145.298 190.858 147.816C190.54 149.534 190.355 151.274 190.327 153.009C190.252 157.325 189.819 161.606 189.23 165.876C189.201 166.067 189.201 166.067 188.959 166.43C188.808 165.9 188.964 165.427 188.987 164.96C189.074 163.341 189.218 161.722 189.293 160.097C189.438 157.048 189.524 153.994 189.674 150.94C189.749 149.47 189.963 148.018 190.321 146.589C190.39 146.307 190.482 146.047 190.159 145.805C188.029 144.221 186.326 142.152 184.237 140.527C181.94 138.74 180.231 136.464 178.615 134.09C177.264 132.108 175.532 130.529 173.558 129.151C172.069 128.108 170.58 127.054 169.218 125.832C169.131 125.757 169.021 125.688 169.079 125.417C170.124 125.976 171.036 126.674 172.069 127.221C171.475 126.38 170.903 125.521 170.274 124.703C168.825 122.824 167.423 120.917 166.13 118.923C164.808 116.883 162.897 115.413 161.102 113.84C159.907 112.791 158.66 111.806 157.442 110.786C156.363 109.887 155.526 108.775 154.712 107.64C153.113 105.398 151.243 103.393 149.39 101.37C148.848 100.776 148.178 100.39 147.295 100.229C147.774 101.036 148.409 101.698 148.622 102.649C148.265 102.563 148.213 102.303 148.091 102.119C147.306 100.903 146.262 100.142 144.83 99.6988C141.661 98.7191 138.475 97.8202 135.208 97.2093C135.058 97.1805 134.908 97.1632 134.706 97.2554C135.185 97.5378 135.652 97.8374 136.143 98.0968C136.836 98.4598 137.546 98.7998 138.25 99.1456C138.833 99.4337 138.862 99.6815 138.336 100.056C136.974 101.024 135.473 101.768 134.013 102.563C133.205 103.001 132.385 103.433 131.566 103.848C131.214 104.026 131.225 104.153 131.56 104.343C132.755 105.023 133.938 105.715 135.121 106.406C135.341 106.533 135.548 106.683 135.768 106.81C137.303 107.691 138.036 109.034 138.238 110.774C139.093 117.989 139.254 125.227 139.029 132.476C138.723 142.186 137.401 151.781 135.612 161.318C133.574 172.163 130.752 182.824 127.97 193.497C127.156 196.603 126.353 199.714 125.534 202.821C125.424 203.247 125.407 203.662 125.488 204.094C126.711 211.176 127.929 218.259 129.147 225.341C129.153 225.358 129.159 225.381 129.159 225.398C129.17 225.681 129.326 226.061 128.928 226.136C128.512 226.217 128.506 225.802 128.46 225.531C128.247 224.373 128.056 223.214 127.86 222.056C126.186 212.329 124.512 202.602 122.838 192.88C122.671 191.918 122.492 190.95 122.347 189.987C122.284 189.572 122.122 189.538 121.816 189.768C121.124 190.287 120.414 190.777 119.738 191.313C118.295 192.465 116.702 193.364 114.924 193.842C111.969 194.643 109.129 195.807 106.18 196.626C103.709 197.311 101.204 197.761 98.6295 197.611C96.6958 197.502 94.866 197.801 93.0651 198.568C90.9756 199.455 88.6955 199.841 86.6118 200.775C86.202 200.959 85.7748 201.115 85.365 201.299C83.8527 201.985 84.1124 201.628 84.124 203.264C84.1355 204.538 84.2279 205.806 84.2971 207.079C84.3433 207.926 84.2798 208.762 84.1759 209.597C84.0316 210.761 83.3447 211.47 82.2076 211.735C80.1642 212.208 78.0863 212.542 76.0256 212.905C75.1482 213.061 75.1424 213.049 75.1309 213.919C75.1251 214.351 75.1251 214.784 75.1309 215.21C75.154 216.945 74.3516 218.161 72.8105 218.91C71.1654 219.711 69.4049 220.108 67.6039 220.287C63.3094 220.702 59.0091 221.013 54.7204 221.486C53.3755 221.635 52.0363 221.808 50.6856 221.947C50.1892 221.998 50.1835 222.246 50.2931 222.632C50.8819 224.741 51.4649 226.862 52.0421 228.977C51.8055 228.977 51.5688 228.977 51.3379 228.977C50.7434 226.868 50.1431 224.759 49.5658 222.644C49.4619 222.252 49.3176 222.114 48.8847 222.16C45.3521 222.506 41.8195 222.828 38.2927 223.151C33.9405 223.554 29.5825 223.866 25.2014 223.721C21.7843 223.606 18.4018 223.214 15.0827 222.356C12.289 221.63 9.63379 220.489 6.89777 219.59C5.13148 219.008 3.78079 217.821 2.77643 216.242C2.40124 215.648 1.97987 215.078 1.54118 214.524C0.808111 213.614 0.202027 212.646 0 211.464C0 210.957 0 210.444 0 209.937C0.334787 208.185 0.883151 206.497 1.50655 204.82C1.8702 203.852 1.68549 202.763 1.85288 201.737C2.17035 199.738 2.1184 197.715 2.29157 195.709C2.60326 192.016 3.26129 188.391 4.41573 184.847C5.78374 180.669 6.42446 176.313 7.14021 171.985C8.60635 163.105 10.7016 154.374 13.3338 145.765C16.2545 136.211 19.4754 126.76 22.9618 117.39C23.7526 115.264 24.3298 113.056 25.0629 110.907C26.3558 107.138 28.6474 104.09 31.7355 101.56C32.6591 100.805 33.6115 100.356 34.714 100.079C38.5583 99.1052 42.2813 97.7337 46.0794 96.6158C47.4705 96.2066 48.8732 95.8263 50.3105 95.6073C50.5991 95.5612 50.8992 95.5093 51.1878 95.5324C51.7824 95.5785 52.2037 95.5497 52.1576 94.7429C52.1287 94.2646 52.5558 93.9419 52.9483 93.7114C54.7839 92.605 56.0538 90.9108 57.5257 89.424C57.797 89.1532 57.6642 89.0552 57.3814 88.9457C52.0767 86.8021 49.5023 82.5954 48.6077 77.1958C48.0362 73.721 48.7116 70.3326 49.6524 66.996C50.4952 64.011 51.5803 61.1066 52.8964 58.306C54.5357 54.8139 55.6035 51.1373 56.7291 47.4665C58.9341 40.2921 60.8389 33.037 62.9689 25.851C64.0887 22.065 65.6587 18.4461 67.7771 15.098C71.0442 9.91744 75.5407 6.06802 80.8627 3.1118C83.5814 1.602 86.4502 0.541684 89.5498 0.149828C90.0751 0.0864389 90.6119 0.167115 91.1256 0C91.3219 0 91.5182 0 91.7144 0C92.2801 0.0633886 92.84 0.126777 93.4056 0.190166C94.4331 0.305418 95.3451 0.668462 96.0724 1.42336C96.2225 1.57895 96.3552 1.75759 96.5804 1.46946C97.3827 0.42067 98.5602 0.178641 99.7724 0.0922015C101.885 -0.0576261 103.865 0.501346 105.741 1.41184C111.155 4.03958 115.196 8.13103 118.215 13.2713C120.725 17.5471 122.474 22.1457 123.594 26.9517C125.274 34.1607 127.358 41.2718 128.991 48.4923C130.642 55.7935 132.57 63.0198 134.284 70.3037C135.087 73.721 135.756 77.167 135.531 80.711C135.3 84.3011 134.302 87.6434 132.068 90.5362C131.121 91.7637 129.978 92.7606 128.645 93.5443C128.431 93.6711 128.212 93.7979 127.97 93.9419C128.143 94.1897 128.379 94.1551 128.57 94.2012C130.094 94.547 131.537 95.1002 132.824 95.9992C133.251 96.2931 133.736 96.3507 134.215 96.4256C138.146 97.0134 141.967 98.0622 145.725 99.33C146.469 99.5777 147.197 99.8313 147.97 99.9696C148.963 100.142 149.661 100.828 150.337 101.526C152.6 103.871 154.643 106.395 156.64 108.971C157.696 110.331 159.197 111.212 160.467 112.353C162.216 113.927 164.109 115.338 165.65 117.131C166.049 117.592 166.43 118.07 166.747 118.583C168.456 121.314 170.678 123.683 172.312 126.449C173.056 127.711 173.934 128.737 175.14 129.561C177.229 130.995 178.719 133.001 180.11 135.075C181.351 136.931 182.834 138.562 184.589 139.945C186.332 141.322 187.798 142.999 189.478 144.445C190.592 145.408 190.581 145.408 191.135 144.025C191.648 142.728 192.087 141.414 192.462 140.072C192.624 139.507 192.63 138.965 192.451 138.4C191.591 135.675 191.215 132.868 191.048 130.022C190.938 128.224 190.84 126.426 190.794 124.622C190.754 123.106 191.089 121.62 191.077 120.11C191.071 119.597 191.4 119.309 191.908 119.315C192.393 119.32 192.566 119.101 192.572 118.64C192.589 116.485 192.497 114.336 192.41 112.181C192.37 111.143 192.353 110.106 192.347 109.069C192.341 107.363 192.254 105.669 192.047 103.969C191.949 103.151 191.822 102.275 192.555 101.6C192.71 101.456 192.618 101.266 192.572 101.099C192.295 100.096 191.92 99.134 191.394 98.2235C190.944 97.4513 190.24 97.0191 189.461 96.6619C188.387 96.1721 187.256 95.8378 186.148 95.4517C184.526 94.887 183.007 94.1321 181.587 93.164C180.45 92.386 179.192 91.8213 177.887 91.3718C176.473 90.882 175.111 90.2827 173.795 89.5854C172.525 88.9112 171.186 88.4156 169.806 88.018C168.958 87.7759 168.104 87.5339 167.342 87.0787C166.557 86.6119 165.997 85.9434 165.916 85.0329C165.772 83.4367 165.119 82.0594 164.311 80.7225C163.936 80.1002 163.769 79.5239 163.982 78.7344C164.155 78.0832 163.884 77.3168 163.821 76.5965C163.751 75.7782 163.676 74.9599 163.642 74.1359C163.601 73.1505 163.93 72.2803 164.588 71.5485C165.535 70.4997 166.482 69.4566 167.457 68.4367C168.358 67.4916 169.397 67.0882 170.782 67.2841C173.46 67.6587 176.162 67.8489 178.828 68.3099C179.573 68.4366 180.133 68.0045 180.219 67.2553C180.318 66.4082 180.156 65.6245 179.567 64.956C178.263 63.4693 176.993 61.948 175.746 60.4093C173.68 57.8507 171.965 55.0732 170.314 52.2437C169.564 50.9587 168.704 49.737 168.081 48.377C167.601 47.3398 167.249 46.2679 167.082 45.1327C166.966 44.3605 167.082 43.6632 167.549 43.0121C167.988 42.3955 168.398 42.2283 169.114 42.4934C169.714 42.7182 170.205 43.0985 170.609 43.5998C171.128 44.2453 171.55 44.9541 171.89 45.7032C173.258 48.694 175.273 51.2007 177.634 53.4481C179.169 54.9118 180.572 56.4908 181.951 58.0985C182.8 59.084 183.671 60.0521 184.745 60.83C183.931 59.0724 183.111 57.3206 182.095 55.6725C181.149 54.1396 180.185 52.6125 179.296 51.0451C178.24 49.1838 177.431 47.2072 176.67 45.2076C176.462 44.6717 176.416 44.107 176.571 43.5307C176.866 42.43 177.703 42.0439 178.684 42.6375C179.579 43.1792 180.294 43.9456 181.01 44.6947C181.345 45.0463 181.645 45.4439 181.922 45.8473C184.808 50.1173 187.596 54.4508 190.09 58.9687C190.644 59.9714 191.262 60.9395 191.977 61.8673C191.862 60.9453 191.735 60.029 191.625 59.107C191.487 57.9372 191.377 56.7674 191.429 55.5918C191.487 54.1915 190.973 52.8949 190.754 51.5465C190.563 50.3594 190.609 49.2069 191.037 48.0774C191.164 47.7432 191.314 47.4262 191.545 47.1554C192.289 46.2794 193.166 46.3486 193.726 47.3455C194.483 48.694 194.812 50.1923 195.221 51.6675C196.087 54.7851 196.561 57.9948 197.357 61.1239C198.246 64.616 199.198 68.0909 200.78 71.3583C201.75 73.3579 202.263 75.5247 202.887 77.6511C203.62 80.1405 204.549 82.5493 205.733 84.8543C206.899 87.1305 207.845 89.4644 208.445 91.9653C208.907 93.8785 209.744 95.6995 210.004 97.6761C210.189 99.0706 210.454 100.459 210.639 101.854C210.72 102.442 210.968 102.632 211.562 102.592C212.7 102.517 213.837 102.615 214.974 102.701C215.805 102.764 216.169 103.11 216.267 103.946C216.711 107.795 216.671 111.639 216.232 115.488C215.984 117.667 215.782 119.851 215.54 122.029C215.499 122.375 215.597 122.501 215.938 122.594C216.959 122.859 217.97 123.187 218.991 123.469C219.315 123.562 219.476 123.752 219.569 124.063C220.117 125.872 220.44 127.722 220.521 129.607C220.625 132.015 220.902 134.407 220.913 136.821C220.913 136.937 220.96 137.052 220.983 137.167C221 137.305 221 137.421 221 137.536ZM70.4669 132.211C69.428 131.278 68.4986 130.471 67.5982 129.624C64.7005 126.898 61.8144 124.155 58.9226 121.418C58.2992 120.824 57.6642 120.237 57.0697 119.609C56.5386 119.05 56.556 118.519 57.0408 117.926C57.3179 117.586 57.6758 117.344 58.0336 117.096C60.8563 115.171 63.5345 113.062 66.2706 111.017C66.4322 110.896 66.7439 110.809 66.6919 110.584C66.64 110.348 66.3283 110.423 66.1263 110.394C62.1839 109.852 58.2414 109.317 54.299 108.775C53.5082 108.665 53.185 108.383 53.1042 107.64C52.9541 106.297 52.8271 104.954 52.729 103.606C52.5616 101.301 52.4115 98.9957 52.273 96.6907C52.2499 96.3334 52.1229 96.1721 51.7593 96.126C50.9973 96.0222 50.2758 96.2066 49.5543 96.3737C44.0707 97.6646 38.818 99.7622 33.346 101.105C33.0285 101.18 32.7976 101.399 32.5494 101.595C29.1669 104.315 26.7888 107.726 25.5824 111.904C24.3298 116.237 22.8117 120.473 21.2359 124.697C18.7135 131.474 16.5777 138.383 14.4247 145.281C11.6598 154.138 9.50681 163.139 8.00604 172.296C7.30183 176.583 6.64957 180.9 5.31042 185.049C4.30028 188.189 3.70575 191.405 3.03618 194.615C3.00155 194.77 2.97845 194.926 2.96691 195.081C2.84569 197.565 2.86878 200.054 2.49359 202.521C2.44741 202.809 2.35506 203.184 2.8861 203.166C3.02463 203.16 3.08813 203.316 2.99 203.426C2.49359 203.99 2.41855 204.751 2.07799 205.379C1.44882 206.537 1.1833 207.799 0.906239 209.056C0.536818 210.715 0.686897 212.277 1.82402 213.66C2.50514 214.49 3.12853 215.377 3.74616 216.259C4.51386 217.348 5.51245 218.149 6.72461 218.673C8.01758 219.238 9.31632 219.797 10.6382 220.293C17.0568 222.707 23.7353 223.197 30.5118 222.915C33.5307 222.788 36.538 222.517 39.5453 222.246C42.2178 222.004 44.8961 221.756 47.5687 221.474C50.9396 221.123 54.3106 220.713 57.6873 220.373C61.0641 220.033 64.4466 219.768 67.8175 219.417C69.4799 219.244 71.1019 218.846 72.6027 218.063C73.6994 217.492 74.2535 216.605 74.2651 215.371C74.2708 214.766 74.2766 214.156 74.3285 213.55C74.3574 213.21 74.2016 213.199 73.9534 213.228C72.6257 213.372 71.3039 213.522 69.9763 213.654C69.5723 213.695 69.4972 213.885 69.5953 214.248C69.7512 214.812 69.8782 215.389 70.0167 215.959C70.0571 216.115 70.1726 216.282 70.0052 216.426C69.8724 216.397 69.8205 216.317 69.7801 216.224C69.249 215.106 68.7295 213.988 68.4986 212.761C68.2504 211.413 68.1061 210.053 68.0022 208.681C67.6501 204.036 67.8291 199.409 68.3312 194.787C68.539 192.863 68.8969 190.95 68.9662 189.008C69.0181 187.509 69.4106 186.132 70.2245 184.853C69.1913 184.876 68.1927 185.066 67.2172 185.366C64.7352 186.132 62.1954 186.633 59.6037 186.806C57.1043 186.973 54.6685 187.406 52.3076 188.276C50.7087 188.863 49.0406 189.106 47.332 189.042C46.5874 189.013 45.8428 189.025 45.0982 188.996C44.2496 188.967 43.4935 189.186 42.7431 189.601C40.4458 190.875 38.3735 192.442 36.4514 194.217C36.3244 194.332 36.2263 194.54 35.9088 194.43C37.1672 192.857 38.5871 191.543 40.3072 190.368C38.8065 190.298 37.4385 190.304 36.082 190.506C33.3864 190.909 30.7023 191.376 27.9663 191.485C24.5953 191.618 21.3109 192.252 18.0901 193.243C17.9284 193.295 17.7437 193.456 17.559 193.278C17.5648 193.082 17.7206 193.053 17.8361 193.013C19.8044 192.281 21.7958 191.618 23.8623 191.22C25.6401 190.88 27.441 190.794 29.2477 190.708C31.8048 190.587 34.2926 189.999 36.8324 189.734C37.2422 189.693 37.4558 189.532 37.6116 189.163C38.4486 187.175 39.147 185.135 39.6954 183.049C39.7762 182.732 39.7647 182.438 39.6954 182.121C36.8093 168.954 34.3388 155.711 32.18 142.411C32.0645 141.697 32.0184 140.971 31.7817 140.279C31.6143 139.795 31.6951 139.611 32.1973 139.513C36.4283 138.66 40.6536 137.801 44.8904 136.966C45.3925 136.868 45.5715 136.718 45.4791 136.159C44.469 129.878 42.8816 123.74 41.0345 117.661C40.9653 117.43 40.7921 117.188 40.9422 116.894C41.225 117.085 41.2539 117.355 41.3347 117.58C43.4704 123.527 45.179 129.595 46.166 135.848C46.2988 136.689 46.3045 136.683 47.1646 136.51C53.6121 135.248 60.0655 134.021 66.5419 132.897C67.8002 132.684 69.0701 132.459 70.4669 132.211ZM115.831 154.91C115.802 154.778 115.773 154.639 115.75 154.507C114.907 150.225 114.064 145.938 113.222 141.656C112.321 137.104 111.415 132.551 110.526 127.999C110.434 127.515 110.289 127.336 109.724 127.405C103.611 128.154 97.5097 128.944 91.4085 129.785C82.5886 131.001 73.8033 132.425 65.0353 133.969C54.5472 135.819 44.088 137.801 33.6519 139.927C32.307 140.204 32.4917 139.997 32.6995 141.287C34.5639 152.749 36.6015 164.177 39.0143 175.54C39.932 179.868 40.9018 184.19 41.8253 188.518C41.9408 189.059 42.137 189.152 42.6103 188.904C43.7301 188.316 44.9423 188.218 46.166 188.339C48.3537 188.552 50.4605 188.224 52.5327 187.521C54.3741 186.893 56.2385 186.409 58.201 186.282C61.1218 186.092 64.0079 185.659 66.8247 184.812C67.8233 184.513 68.8392 184.207 69.884 184.3C71.3847 184.432 72.7297 183.879 74.1092 183.47C75.2925 183.118 76.4758 182.749 77.6649 182.438C78.3979 182.242 79.1599 182.046 79.8814 182.542C80.0661 182.669 80.2624 182.548 80.4413 182.479C82.3461 181.787 84.1817 180.957 85.948 179.966C88.0202 178.802 89.9019 177.459 90.8197 175.148C91.6682 173.011 93.0304 171.241 94.6755 169.657C96.1821 168.21 97.4981 166.603 98.514 164.776C99.2298 163.491 100.263 162.586 101.562 161.941C103.38 161.042 105.077 159.953 106.612 158.627C107.236 158.091 107.894 157.596 108.54 157.083C109.499 156.328 110.578 155.971 111.807 155.948C113.002 155.924 114.203 155.878 115.352 155.481C115.623 155.383 115.883 155.285 115.831 154.91ZM127.254 93.429C127.456 93.4982 127.537 93.3887 127.629 93.3311C130.861 91.3257 132.934 88.4617 133.967 84.814C135.029 81.0798 134.81 77.3341 134.128 73.5826C133.355 69.3183 132.224 65.1404 131.144 60.951C129.851 55.9203 128.83 50.8319 127.681 45.7723C126.648 41.2026 125.326 36.7135 124.143 32.1841C122.913 27.4646 121.764 22.7277 119.825 18.2213C117.389 12.5682 113.966 7.68155 108.892 4.07992C106.641 2.48368 104.24 1.13523 101.429 0.801001C99.7262 0.59931 98.0349 0.582023 96.7535 2.04572C96.5515 2.27623 96.3726 2.19555 96.1532 2.02267C95.374 1.40607 94.5197 0.968117 93.5038 0.835577C91.1026 0.524397 88.7475 0.749138 86.4733 1.51556C79.789 3.75722 74.3574 7.79104 70.0514 13.3289C67.1999 16.9939 65.4105 21.2237 63.9732 25.5975C62.3974 30.4035 61.3238 35.3478 59.8288 40.1769C58.2992 45.1154 56.7695 50.0597 54.9802 54.9061C53.5775 58.7094 51.8459 62.3859 50.6856 66.2814C49.6293 69.837 48.8789 73.4386 49.4735 77.1612C50.3509 82.6126 53.2774 86.5082 58.4666 88.6C58.5705 88.6403 58.6917 88.7613 58.836 88.6058C57.2024 87.2285 55.8287 85.6611 54.8243 83.7882C53.8199 81.9154 53.3004 79.9042 53.133 77.8009C53.4159 77.9449 53.4043 78.2158 53.4563 78.452C53.9123 80.4113 54.5934 82.2842 55.7132 83.9726C57.341 86.4275 59.5055 88.2715 62.0626 89.7122C64.4581 91.0606 67.0556 91.7579 69.7339 92.2304C69.8436 92.2477 70.0918 92.3399 70.0687 92.1613C69.9994 91.6254 70.3284 91.9193 70.4669 91.9653C71.1308 92.2189 71.8003 92.4552 72.4988 92.5589C75.3271 92.9911 78.1786 92.9738 81.0127 92.7548C84.124 92.5186 87.1024 91.6484 89.9827 90.4498C90.6581 90.1674 91.3277 89.8735 91.9972 89.5854C91.8241 89.4932 91.6913 89.499 91.5643 89.5335C87.2583 90.5016 83.5929 89.2569 80.3893 86.3583C77.6937 83.9208 76.0487 80.8435 74.8711 77.4666C74.0919 75.2365 73.7802 72.8969 73.1857 70.6264C72.3198 67.3533 71.8869 64.0167 71.6964 60.6514C71.4829 56.8365 71.5637 53.0217 71.8811 49.2069C72.291 44.3086 73.3992 39.5891 75.2348 35.0309C75.3041 34.8522 75.3271 34.6159 75.7023 34.5295C75.2348 36.2583 74.6749 37.8833 74.3112 39.6525C74.698 39.5026 74.9635 39.3759 75.2463 39.3009C77.5206 38.6843 78.9059 37.14 79.766 35.0309C80.7126 32.7201 81.1051 30.294 81.336 27.8276C81.3591 27.5625 81.2898 27.2571 81.6361 26.9459C81.7689 28.0235 81.7054 28.9859 81.6361 29.954C81.5669 30.9048 81.4341 31.8441 81.3187 32.7834C81.3937 32.6567 81.4341 32.5299 81.4688 32.3973C82.121 29.931 82.3808 27.3896 82.9695 24.9117C83.6276 22.1342 84.5453 19.4891 86.5598 17.3627C87.6796 16.1814 88.9668 15.2824 90.635 15.098C91.3334 15.0173 91.9857 15.2075 92.5629 15.6627C90.7274 15.2767 89.215 15.8529 87.8932 17.0515C89.0419 16.6309 90.2079 16.4349 91.4085 16.7173C93.7924 17.2878 96.2052 17.4261 98.6526 17.2878C100.211 17.2014 101.775 17.1956 103.443 17.6336C102.734 16.8095 101.839 16.5156 100.944 16.0604C101.135 15.9797 101.169 15.9509 101.204 15.9566C101.302 15.9624 101.4 15.9739 101.492 15.997C103.38 16.5099 104.696 17.7949 105.764 19.322C107.617 21.9728 108.217 25.05 108.575 28.1906C108.817 30.317 109.146 32.4262 110.168 34.3509C110.797 35.5437 111.611 36.5925 112.76 37.5722C111.19 34.5814 110.538 32.6912 110.832 32.0228C111.034 32.1553 111.063 32.3801 111.138 32.576C111.594 33.7227 112.073 34.858 112.662 35.9471C113.325 37.1803 114.226 38.2464 115.028 39.3759C116.581 41.5541 117.204 44.0378 117.285 46.6771C117.343 48.6191 117.187 50.5495 117.083 52.4858C116.864 56.6406 116.01 60.6687 114.826 64.6391C114.722 64.9906 114.711 65.3191 114.803 65.6764C115.242 67.3821 115.652 69.0993 115.94 70.8397C116.593 74.7467 116.881 78.6595 115.986 82.5665C115.265 85.7072 113.914 88.4329 110.872 90.0061C108.546 91.2104 106.139 91.9769 103.478 91.7233C103.218 91.7003 102.959 91.5389 102.658 91.6772C102.676 91.8731 102.826 91.9826 102.93 92.1152C103.513 92.8355 104.182 93.4636 104.881 94.0629C106.612 95.5324 108.529 96.6331 110.78 97.0941C113.695 97.6876 116.564 97.4283 119.386 96.6042C124.968 94.9734 129.245 91.7925 131.514 86.2719C131.589 86.0933 131.612 85.8455 132.027 85.736C130.977 88.7095 129.655 91.3776 127.254 93.429ZM72.5276 56.0932C72.4584 59.0551 72.6373 62.2188 73.0529 65.3709C73.1568 66.1777 73.1049 67.0363 73.5609 67.7624C75.2752 70.4651 77.3359 72.8623 79.8352 74.8735C82.0056 76.6195 84.3087 78.187 86.5829 79.7947C90.508 82.5666 94.6871 82.5896 98.8026 80.4171C101.798 78.8324 104.379 76.5677 107.103 74.5508C110.168 72.2745 112.286 69.2838 113.585 65.7167C115.859 59.447 116.61 52.9353 116.535 46.3083C116.506 43.767 115.634 41.4792 114.134 39.4277C113.966 39.203 113.77 39.0243 113.522 38.8918C110.953 37.5145 109.4 35.3478 108.546 32.6106C107.975 30.7838 107.842 28.8822 107.588 27.0036C107.259 24.5602 106.693 22.2091 105.475 20.0193C104.742 18.6996 103.686 18.1407 102.266 18.0024C100.696 17.8468 99.1317 17.8814 97.5674 17.9736C95.3913 18.1003 93.2613 17.7719 91.1545 17.2878C89.7114 16.9593 88.3781 17.3512 87.1082 17.9505C86.3463 18.3078 86.0576 19.1318 85.6305 19.8061C85.4862 20.0366 85.3765 20.2901 85.2553 20.5379C84.1817 22.8141 83.7545 25.2748 83.2812 27.7124C82.8772 29.7869 82.6174 31.8902 81.8959 33.8956C80.9608 36.5061 79.1079 38.2925 76.7298 39.5775C76.1872 39.8714 75.5638 40.0386 74.9577 40.1941C74.2766 40.367 73.9938 40.7762 73.8495 41.4504C72.822 46.2161 72.4757 51.0278 72.5276 56.0932ZM125.032 201.426C125.216 201.247 125.216 201.063 125.257 200.902C126.492 196.061 127.698 191.215 128.962 186.38C132.564 172.573 135.727 158.679 137.32 144.474C137.892 139.374 138.198 134.257 138.308 129.123C138.435 123.164 138.088 117.223 137.505 111.293C137.326 109.484 136.657 108.106 135.029 107.248C134.908 107.184 134.798 107.104 134.677 107.029C131.473 105.052 128.264 103.081 125.124 101.007C124.956 100.897 124.679 100.84 124.702 100.534C124.956 100.511 125.112 100.644 125.28 100.742C126.832 101.623 128.385 102.499 129.932 103.398C130.267 103.594 130.55 103.646 130.913 103.45C133.043 102.321 135.185 101.203 137.263 99.9811C137.407 99.8947 137.638 99.8486 137.615 99.6354C137.598 99.4683 137.384 99.4394 137.251 99.3703C135.67 98.6154 134.192 97.6876 132.76 96.6849C131.525 95.8205 130.151 95.2788 128.72 94.8236C127.185 94.3395 125.834 94.6392 124.5 95.3999C121.505 97.1114 118.284 98.0852 114.832 98.2696C114.301 98.2984 114.22 98.5001 114.284 98.9612C114.445 100.166 114.578 101.37 114.717 102.574C115.161 106.441 115.588 110.313 116.05 114.18C116.362 116.802 116.725 119.424 117.06 122.046C117.805 127.889 118.607 133.727 119.236 139.587C119.692 143.811 120.073 148.041 120.385 152.277C120.448 153.089 120.321 153.954 120.65 154.714C120.956 155.423 121.014 156.115 120.841 156.829C120.697 157.434 120.714 158.034 120.777 158.639C120.864 159.417 120.87 159.434 121.649 159.307C123.242 159.054 124.235 159.935 125.107 161.082C125.897 162.131 125.747 163.157 125.089 164.194C125.014 164.309 124.968 164.442 124.893 164.551C124.616 164.926 124.616 165.156 125.164 165.248C125.603 165.317 125.955 165.588 126.215 165.951C126.498 166.349 126.775 166.752 127.052 167.162C127.421 167.709 127.519 168.308 127.381 168.959C127.15 170.043 126.757 171.063 126.169 172.002C125.978 172.313 125.903 172.492 126.382 172.584C127.133 172.722 127.623 173.23 127.935 173.898C128.437 174.987 128.351 176.071 127.831 177.131C127.312 178.197 126.636 179.159 125.822 180.012C125.539 180.312 125.528 180.439 125.944 180.658C127.75 181.608 128.148 183.049 127.161 184.835C127.098 184.956 127.029 185.077 126.948 185.187C125.984 186.587 124.893 187.861 123.427 188.76C123.052 188.99 122.948 189.238 123.023 189.676C123.461 192.125 123.871 194.574 124.293 197.029C124.518 198.499 124.772 199.939 125.032 201.426ZM107.011 167.409C106.959 167.259 106.924 167.219 106.936 167.19C106.976 167.081 107.022 166.977 107.08 166.873C107.484 166.09 108.084 165.479 108.771 164.943C109.36 164.482 109.931 163.981 110.364 163.381C111.08 162.379 112.05 161.9 113.216 161.699C114.382 161.497 115.513 161.174 116.546 160.586C117.995 159.762 119.317 158.794 120.09 157.256C120.35 156.737 120.483 156.184 120.368 155.608C120.246 155.008 119.9 154.778 119.3 154.899C118.417 155.083 117.533 155.291 116.708 155.659C115.265 156.299 113.741 156.599 112.183 156.564C110.711 156.535 109.504 157.025 108.425 157.959C106.33 159.774 104.136 161.445 101.614 162.644C100.5 163.174 99.6743 164.004 99.0682 165.081C98.1908 166.643 97.1576 168.101 95.8531 169.334C93.8328 171.241 92.1646 173.379 91.0968 175.967C90.5311 177.338 89.521 178.387 88.2742 179.2C85.7517 180.848 83.1081 182.242 80.1989 183.107C78.9579 183.475 78.7616 183.717 78.6923 184.991C78.5884 186.95 78.6519 188.904 78.8366 190.857C79.1945 194.615 80.0026 198.28 81.1109 201.887C81.284 202.446 81.4514 202.446 81.9074 202.215C83.9392 201.184 86.023 200.279 88.1703 199.519C89.798 198.942 91.5182 198.643 93.0997 197.951C94.7563 197.231 96.4591 196.914 98.2601 197.018C100.852 197.162 103.374 196.764 105.879 196.107C108.258 195.479 110.491 194.436 112.875 193.848C115.525 193.191 117.937 192.079 120.056 190.344C120.904 189.647 121.834 189.059 122.792 188.512C124.425 187.59 125.632 186.236 126.561 184.634C127.375 183.245 127.179 182.34 125.949 181.424C125.285 180.928 124.905 180.923 124.275 181.453C123.288 182.288 122.319 183.141 121.337 183.988C121.205 184.104 121.106 184.317 120.858 184.253C120.8 184.029 120.979 183.925 121.083 183.804C122.03 182.732 122.994 181.678 124.108 180.767C125.459 179.661 126.561 178.341 127.294 176.745C127.756 175.736 127.768 174.722 127.104 173.789C126.619 173.109 125.603 172.918 125.147 173.431C123.421 175.373 121.303 176.895 119.444 178.687C119.323 178.802 119.225 179.038 118.965 178.9C118.988 178.612 119.225 178.468 119.381 178.278C120.795 176.612 122.474 175.223 123.998 173.668C124.985 172.659 125.701 171.495 126.284 170.21C126.959 168.723 126.619 167.484 125.626 166.314C125.078 165.663 124.252 165.6 123.629 166.159C121.36 168.182 119.057 170.158 116.627 171.991C116.5 172.083 116.391 172.279 116.165 172.117C116.194 171.881 116.385 171.76 116.529 171.604C118.082 169.905 119.975 168.579 121.655 167.023C122.832 165.934 124.148 164.972 124.749 163.399C124.858 163.105 125.014 162.828 124.985 162.5C124.893 161.434 123.427 160.033 122.347 159.993C121.274 159.953 120.246 160.229 119.219 160.483C118.578 160.644 118.018 160.944 117.539 161.41C116.95 161.987 116.367 162.569 115.75 163.11C113.955 164.678 112.044 166.072 109.833 167.006C109.227 167.265 108.587 167.455 107.946 167.236C107.594 167.115 107.305 166.989 107.011 167.409ZM187.031 63.913C186.644 63.8035 186.488 63.5269 186.298 63.2964C186.049 62.9967 185.853 62.651 185.547 62.3974C181.83 59.3202 178.996 55.3786 175.463 52.1285C175.088 51.7827 174.776 51.3736 174.447 50.9875C173.125 49.4143 172.161 47.6164 171.273 45.7839C170.897 45.0059 170.499 44.2337 169.853 43.6402C169.42 43.2426 168.935 42.7297 168.317 43.0236C167.705 43.3117 167.648 43.9917 167.671 44.6198C167.711 45.7551 168.092 46.8038 168.542 47.8296C169.189 49.2875 170.112 50.5841 170.897 51.9614C173.345 56.2776 176.231 60.2653 179.573 63.9303C180.41 64.8465 180.976 65.9069 181.258 67.1113C181.287 67.2438 181.333 67.5607 181.195 67.4685C180.589 67.0709 180.762 67.7048 180.687 67.8546C180.15 68.938 180.023 69.0417 178.776 68.8804C177.882 68.7651 176.993 68.6038 176.104 68.4424C174.286 68.1197 172.421 68.2061 170.615 67.82C169.616 67.6068 168.86 67.8834 168.167 68.575C167.053 69.6814 166.049 70.8857 165.004 72.0556C164.484 72.6433 164.277 73.3349 164.259 74.1071C164.236 75.323 164.398 76.5273 164.484 77.7375C164.508 78.0775 164.617 78.2273 164.992 78.1754C165.298 78.1293 165.639 78.1121 165.928 78.1985C166.447 78.3541 166.741 78.1293 167.024 77.7548C167.359 77.3111 167.59 76.8155 167.74 76.2853C168.052 75.1789 168.19 74.0609 168.057 72.9142C168.04 72.7701 167.948 72.5511 168.144 72.505C168.34 72.4532 168.346 72.6894 168.392 72.8278C168.427 72.92 168.45 73.0179 168.461 73.1101C168.508 73.4789 168.658 73.5135 168.958 73.3118C169.356 73.0467 169.824 72.9488 170.286 72.8508C171.446 72.5972 172.583 72.9257 173.732 72.9661C175.844 73.041 177.662 73.6115 179.336 75.0003C180.439 75.9107 181.033 76.925 181.316 78.2504C181.616 79.6622 180.849 80.7801 180.289 81.9327C180.092 82.336 179.509 82.5665 179.077 82.8259C176.554 84.3069 173.997 83.938 171.428 82.9526C171.238 82.8777 171.071 82.7048 170.828 82.774C170.776 83.212 171.18 83.5462 171.088 84.1052C170.493 83.5001 170.147 82.8547 169.795 82.215C169.304 81.3391 168.739 80.5208 167.982 79.8466C167.307 79.2415 166.522 78.867 165.633 78.6998C165.166 78.6134 164.762 78.7748 164.49 79.1436C164.248 79.4778 164.432 79.8178 164.611 80.1347C164.756 80.3883 164.906 80.6418 165.062 80.8896C165.841 82.1286 166.459 83.4194 166.557 84.9235C166.609 85.6784 167.053 86.2258 167.717 86.5946C168.323 86.9288 168.975 87.1421 169.639 87.3265C171.042 87.7125 172.421 88.162 173.708 88.8535C175.18 89.643 176.704 90.3115 178.28 90.8647C179.504 91.2969 180.67 91.8616 181.749 92.5877C183.51 93.7633 185.42 94.6046 187.435 95.2443C188.352 95.5382 189.247 95.8782 190.107 96.3161C191.198 96.8751 192.087 97.653 192.716 98.7076C192.786 98.8171 192.912 98.9323 192.826 99.0764C192.728 99.2378 192.601 98.9496 192.491 99.0591C192.693 99.6872 192.918 100.292 193.08 100.92C193.184 101.33 193.369 101.462 193.79 101.381C195.135 101.116 196.48 101.128 197.819 101.445C199.002 101.727 200.209 101.923 201.363 102.292C203.764 103.058 206.183 103.283 208.676 102.874C210.108 102.643 210.114 102.713 209.894 101.307C209.427 98.31 209.086 95.2846 207.88 92.4552C207.787 92.242 207.736 92.0057 207.695 91.7752C207.297 89.7583 206.518 87.8854 205.582 86.0645C204.295 83.5692 203.181 81.0049 202.379 78.308C201.577 75.6284 200.861 72.9488 199.66 70.3844C198.327 67.5319 197.438 64.4777 196.728 61.4005C195.851 57.603 195.187 53.7593 194.148 49.9963C193.934 49.2241 193.726 48.4462 193.374 47.7201C193.005 46.9479 192.358 46.896 191.868 47.6106C191.498 48.1523 191.308 48.7689 191.227 49.4201C191.077 50.6187 191.337 51.7597 191.677 52.8892C191.931 53.742 192.058 54.6007 192.076 55.4939C192.145 59.2453 192.837 62.9276 193.444 66.6157C193.472 66.8058 193.617 67.0133 193.386 67.2668C192.982 66.7021 192.612 66.1201 192.589 65.4977C192.532 63.9533 191.729 62.7778 190.881 61.608C190.788 61.4812 190.713 61.3429 190.632 61.2046C187.718 56.122 184.71 51.097 181.437 46.2276C180.641 45.0463 179.648 44.0436 178.528 43.1734C177.795 42.6029 177.276 42.8277 177.079 43.6978C176.872 44.6083 177.27 45.3862 177.605 46.1757C178.644 48.5903 179.821 50.9299 181.293 53.1197C183.377 56.2142 184.866 59.6429 186.713 62.8757C186.886 63.1696 187.002 63.5096 187.031 63.913ZM72.6604 105.773C72.695 105.807 72.7297 105.842 72.7643 105.876C72.7527 105.928 72.7585 105.997 72.7296 106.032C72.6142 106.164 72.493 106.291 72.3718 106.418C69.0181 109.91 65.145 112.791 61.2834 115.684C60.1693 116.52 59.0207 117.304 57.9124 118.151C57.3468 118.583 57.3525 118.825 57.8316 119.286C58.3511 119.787 58.8937 120.271 59.4305 120.761C63.3037 124.34 67.044 128.057 70.9691 131.577C71.3674 131.929 71.7311 132.021 72.2448 131.935C78.1786 130.921 84.124 129.987 90.0866 129.157C90.8947 129.042 90.8948 129.048 90.6004 128.316C85.8903 116.6 80.2104 105.329 74.8076 93.9304C74.6518 93.5962 74.4267 93.4752 74.0746 93.4809C72.8797 93.4867 71.6849 93.3945 70.4958 93.2504C67.2922 92.8586 64.2214 92.023 61.4219 90.3749C60.7177 89.96 60.002 89.6661 59.2054 89.4817C58.6513 89.3549 58.2819 89.4586 57.9182 89.8793C56.4578 91.5447 55.0552 93.2619 53.1446 94.4606C52.8618 94.6392 52.7694 94.9331 52.8387 95.2846C53.1273 96.731 53.1273 98.2063 53.2485 99.6642C53.439 101.946 53.4909 104.24 53.7622 106.516C53.9296 107.893 53.9469 107.893 55.2976 108.066C55.3149 108.066 55.338 108.072 55.3553 108.078C59.3555 108.631 63.3556 109.178 67.3557 109.743C67.6963 109.789 67.9618 109.726 68.2216 109.501C68.8623 108.953 69.5088 108.418 70.1553 107.876C70.9922 107.167 71.8234 106.47 72.6604 105.773ZM95.7722 87.9027C95.5471 88.3003 95.1142 88.4271 94.7679 88.6519C90.6004 91.3949 86.0403 93.0718 81.0705 93.5904C80.5798 93.6423 80.6145 93.8036 80.8396 94.1263C82.2653 96.1893 83.6391 98.2869 85.3592 100.131C87.2871 102.2 89.5152 103.744 92.3667 104.28C94.3754 104.66 96.3495 105.208 98.1273 106.245C98.6237 106.533 98.9874 106.706 99.4145 106.176C99.5646 105.992 99.8359 105.894 100.073 105.801C100.529 105.623 101.019 105.502 101.417 105.214C102.531 104.413 103.732 103.738 104.898 103.018C105.545 102.62 106.029 102.061 106.324 101.347C106.428 101.088 106.451 100.892 106.231 100.661C104.956 99.33 104.269 97.653 104.142 95.9012C104.021 94.2531 103.357 93.0314 102.341 91.8731C102.174 91.6772 101.839 91.4467 101.943 91.2104C102.081 90.905 102.433 91.2047 102.687 91.1701C102.82 91.1528 102.964 91.1586 103.097 91.1816C103.68 91.2738 103.905 91.0203 103.928 90.444C104.055 87.1478 104.644 83.9092 105.285 80.6822C105.568 79.2703 105.851 77.8527 106.139 76.4351C105.902 76.389 105.799 76.5331 105.677 76.6195C104.373 77.5588 103.068 78.4982 101.775 79.4547C99.605 81.0567 97.325 82.3879 94.5428 82.6011C91.7548 82.8143 89.0938 82.5262 86.733 80.8551C85.7921 80.1866 84.857 79.5008 83.9219 78.8209C81.2667 76.9077 78.5942 75.0118 76.3777 72.5627C76.3142 72.4935 76.2507 72.4013 76.1064 72.4647C76.1064 72.701 76.0891 72.9545 76.1064 73.2023C76.2218 74.7236 76.3661 76.2507 76.2622 77.7778C76.2103 78.5385 76.3719 79.1897 76.6894 79.8581C78.2075 83.016 80.3143 85.6553 83.3447 87.5109C85.948 89.1071 88.7879 89.3895 91.7375 89.0149C93.0074 88.8535 94.2599 88.6403 95.3567 87.9085C95.4779 87.8566 95.6049 87.7587 95.7722 87.9027ZM102.97 107.058C103.657 106.706 104.344 106.378 104.962 105.934C106.174 105.07 107.38 104.194 108.431 103.128C109.025 102.522 109.406 102.597 109.764 103.358C110.087 104.05 110.405 104.747 110.711 105.444C111.704 107.732 112.76 109.985 114.555 111.789C114.694 111.927 114.815 112.227 115.051 112.1C115.219 112.008 115.115 111.737 115.092 111.547C114.601 107.346 114.226 103.139 113.955 98.9151C113.926 98.4713 113.787 98.2984 113.331 98.2927C111.767 98.2754 110.243 97.9988 108.789 97.4283C108.321 97.2439 108.223 97.411 108.119 97.8086C107.871 98.7537 107.571 99.6872 107.322 100.638C106.913 102.217 105.977 103.346 104.523 104.078C103.911 104.384 103.317 104.741 102.745 105.116C101.977 105.623 101.215 106.136 100.315 106.406C100.015 106.499 99.7551 106.677 99.5184 106.896C99.3683 107.04 99.3452 107.161 99.4664 107.351C100.707 109.334 101.458 111.518 101.989 113.777C102.976 117.989 103.923 122.213 104.858 126.437C104.985 127.013 105.169 127.209 105.793 127.111C107.143 126.892 108.511 126.76 109.879 126.604C110.734 126.506 110.959 126.679 111.126 127.515C111.311 128.42 111.484 129.319 111.663 130.223C113.268 138.308 114.872 146.393 116.46 154.484C116.546 154.91 116.691 154.997 117.089 154.864C117.799 154.634 118.509 154.392 119.254 154.334C119.721 154.299 119.79 154.109 119.75 153.7C119.577 151.695 119.421 149.684 119.265 147.672C118.896 142.947 118.376 138.239 117.799 133.543C117.014 127.111 116.183 120.686 115.392 114.255C115.34 113.834 115.196 113.523 114.872 113.258C113.1 111.789 111.842 109.945 110.907 107.859C110.341 106.591 109.776 105.317 109.227 104.038C109.06 103.64 108.91 103.617 108.615 103.917C108.344 104.199 108.044 104.453 107.726 104.683C106.52 105.582 105.366 106.574 103.882 107.029C103.599 107.115 103.311 107.265 102.97 107.058ZM95.0565 107.34C94.866 107.496 94.6871 107.461 94.5197 107.444C93.625 107.346 92.7303 107.207 91.8587 106.983C90.2829 106.579 88.8572 105.842 87.4603 105.041C87.1313 104.851 86.8888 104.753 86.9119 105.323C87.0216 108.181 86.4617 110.93 85.4342 113.587C85.2957 113.944 85.313 114.244 85.4747 114.595C86.2885 116.399 87.0966 118.202 87.8759 120.023C89.0534 122.778 90.2021 125.544 91.3681 128.304C91.5008 128.621 91.5701 128.944 92.0954 128.875C95.905 128.356 99.7147 127.872 103.524 127.377C104.205 127.29 104.246 127.227 104.096 126.547C103.328 123.089 102.56 119.626 101.787 116.168C101.239 113.719 100.557 111.316 99.5299 109.011C98.9989 107.818 98.1619 107.046 97.0075 106.527C95.5702 105.876 94.0752 105.404 92.5283 105.127C89.7865 104.632 87.5007 103.335 85.5497 101.376C83.4544 99.2781 81.8151 96.8463 80.2912 94.328C80.0084 93.8612 79.7025 93.6826 79.1599 93.7172C78.0632 93.7921 76.9607 93.7633 75.8697 93.6596C75.4195 93.6135 75.3906 93.7402 75.5696 94.0918C75.8928 94.7372 76.1987 95.3999 76.5162 96.051C79.1887 101.502 81.919 106.925 84.4876 112.428C84.5569 112.578 84.58 112.774 84.8166 112.849C84.8628 112.768 84.9147 112.693 84.9494 112.607C85.7402 110.313 86.2654 107.98 86.2077 105.536C86.1962 105.07 85.9711 104.482 86.479 104.176C86.9985 103.865 87.4603 104.286 87.8759 104.551C89.9366 105.871 92.182 106.7 94.6005 107.086C94.7448 107.109 94.9353 107.109 95.0565 107.34ZM83.0734 209.35C82.8021 209.298 82.7964 209.044 82.7213 208.86C81.0878 204.878 79.9795 200.734 78.9867 196.562C78.2594 193.502 78.017 190.373 77.965 187.238C77.9419 185.792 77.7976 184.288 78.7327 182.991C78.473 182.87 78.2421 182.957 78.0228 183.014C75.8813 183.522 73.8148 184.276 71.7195 184.916C70.7094 185.227 70.1206 185.85 69.9013 186.858C69.8378 187.164 69.7454 187.469 69.7108 187.774C69.5434 189.353 69.5549 190.944 69.3414 192.517C68.6487 197.513 68.3716 202.532 68.6776 207.575C68.7757 209.217 68.9258 210.854 69.2086 212.479C69.2952 212.968 69.4915 213.124 69.9936 213.072C73.8033 212.663 77.5667 212 81.3129 211.245C83.1369 210.877 83.5121 210.439 83.5583 208.6C83.5814 207.621 83.5583 206.641 83.541 205.661C83.5294 205.033 83.4717 204.411 83.4659 203.783C83.4428 202.135 83.4544 202.146 81.9883 202.878C81.6073 203.068 81.4745 203.258 81.6073 203.696C82.1095 205.385 82.5655 207.091 83.033 208.791C83.085 208.969 83.2235 209.148 83.0734 209.35ZM215.799 109.103C215.851 107.369 215.759 105.749 215.58 104.13C215.54 103.756 215.424 103.496 214.997 103.462C213.433 103.335 211.863 103.277 210.298 103.421C208.521 103.583 206.76 103.9 204.965 103.831C204.157 103.802 203.868 104.101 203.833 104.914C203.805 105.577 203.845 106.251 203.787 106.908C203.447 111.005 203.256 115.108 203.025 119.211C202.933 120.824 202.812 120.467 204.272 120.778C207.458 121.458 210.679 121.908 213.912 122.323C214.633 122.415 214.685 122.386 214.766 121.689C214.864 120.836 214.951 119.977 215.037 119.119C215.389 115.753 215.886 112.394 215.799 109.103ZM195.597 101.808C194.887 101.808 194.188 101.935 193.49 102.038C192.809 102.142 192.63 102.298 192.659 102.983C192.687 103.629 192.791 104.269 192.884 104.908C193.097 106.406 192.993 107.922 193.045 109.426C193.149 112.555 193.501 115.678 193.276 118.813C193.253 119.171 193.369 119.326 193.709 119.355C194.177 119.39 194.65 119.413 195.117 119.476C197.317 119.764 199.51 120.052 201.704 120.358C202.136 120.415 202.35 120.363 202.367 119.851C202.477 115.546 202.679 111.241 202.997 106.948C203.072 105.911 202.875 104.822 203.412 103.836C203.562 103.554 203.291 103.525 203.106 103.473C202.425 103.283 201.75 103.087 201.069 102.903C199.268 102.401 197.467 101.935 195.597 101.808ZM114.226 66.7079C114.047 66.7367 114.024 66.8404 113.984 66.9268C112.552 70.3556 110.347 73.1735 107.363 75.3863C107.092 75.588 106.976 75.8474 106.918 76.1758C106.676 77.5819 106.41 78.988 106.151 80.3941C105.568 83.552 104.979 86.7099 104.817 89.9254C104.748 91.2854 104.771 91.3199 106.11 91.0664C110.278 90.2711 113.308 88.0929 114.711 83.9611C115.473 81.7252 115.681 79.4029 115.669 77.069C115.657 74.7986 115.421 72.5339 114.999 70.298C114.769 69.0936 114.561 67.8834 114.226 66.7079ZM176.219 83.2292C177.784 83.3214 179.331 82.2669 180.335 80.3422C181.045 78.9764 180.889 77.507 180.023 76.389C179.157 75.2711 177.887 74.4528 176.548 73.8535C176.358 73.7671 176.133 73.7498 175.919 73.7267C174.69 73.5999 173.46 73.502 172.242 73.3061C171.261 73.1505 170.286 73.2715 169.356 73.6633C168.889 73.8593 168.623 74.1301 168.617 74.7179C168.606 76.0548 168.3 77.3226 167.319 78.3253C167.082 78.5673 167.244 78.648 167.434 78.7517C168.565 79.3798 169.373 80.3249 170.049 81.3967C170.199 81.633 170.361 81.8462 170.62 81.9672C172.179 82.6933 173.807 83.1716 176.219 83.2292ZM116.408 161.497C115.427 161.854 114.445 162.177 113.418 162.332C112.945 162.407 112.529 162.592 112.108 162.817C111.403 163.197 110.838 163.727 110.307 164.309C109.66 165.024 108.84 165.548 108.165 166.228C108.038 166.355 107.773 166.464 107.888 166.683C107.986 166.873 108.24 166.793 108.431 166.798C108.875 166.804 109.273 166.649 109.672 166.47C111.288 165.732 112.76 164.77 114.134 163.652C114.942 163.001 115.756 162.344 116.408 161.497ZM40.186 184.415C39.5857 186.097 39.0431 187.746 38.3158 189.33C38.2466 189.486 38.2119 189.664 38.4601 189.67C39.3029 189.682 40.1456 189.774 40.9768 189.538C41.2077 189.474 41.2827 189.336 41.2308 189.094C40.8729 187.538 40.5324 185.976 40.186 184.415ZM106.485 100.465C106.543 100.471 106.595 100.471 106.653 100.477C106.959 99.4106 107.27 98.3503 107.576 97.2785C107.623 97.1229 107.599 96.9442 107.449 96.8578C106.537 96.3334 105.729 95.6649 104.875 95.0138C104.979 96.9846 105.625 98.7595 106.485 100.465ZM73.7398 69.1685C74.1438 71.7444 74.6518 74.2857 75.5176 76.7463C75.4888 75.0233 75.4022 73.306 75.3156 71.5888C75.3098 71.4274 75.2694 71.2776 75.1771 71.1508C74.698 70.4881 74.2189 69.8254 73.7398 69.1685Z" fill="white"/>
</svg>
