<svg width="329" height="212" viewBox="0 0 329 212" fill="none" xmlns="http://www.w3.org/2000/svg">
<path d="M71.9021 66.4889C63.8008 58.2615 51.7169 55.2828 42.397 57.2905C44.4257 54.22 46.3047 49.483 48.4764 48.079C62.7047 48.8138 81.0314 58.9241 77.4164 70.4976" stroke="#23485F" stroke-width="1.3" stroke-miterlimit="10"/>
<path d="M71.9619 66.0139C79.5724 72.3845 90.8401 76.2603 98.2922 84.7024C111.626 102.811 118.438 120.158 119.271 134.391" stroke="#23485F" stroke-width="1.3" stroke-miterlimit="10"/>
<path d="M42.3953 57.0465C36.0155 65.641 19.5722 72.6104 16.1687 80.7938C7.92038 87.9238 3.69611 95.1309 4.68377 108.787C5.6314 118.062 -0.414723 122.989 7.51998 136.633" stroke="#23485F" stroke-width="1.3" stroke-miterlimit="10"/>
<path d="M92.0708 87.3114C115.652 135.253 121.936 137.32 134.093 150.588C135.815 152.746 136.071 154.781 135.661 156.809" stroke="#23485F" stroke-width="1.3" stroke-miterlimit="10"/>
<path d="M16.3765 79.465C36.9155 80.071 50.3982 76.4219 66.7996 91.4713L77.8784 98.5208" stroke="#23485F" stroke-width="1.3" stroke-miterlimit="10"/>
<path d="M154.753 187.074L140.517 184.175C130.604 182.242 124.995 185.414 120.394 180.316C115.529 181.639 111.923 180.647 109.325 177.832C107.031 177.145 104.724 178.247 102.423 177.56C96.3946 171.366 85.4672 148.471 71.9619 127.665" stroke="#23485F" stroke-width="1.3" stroke-miterlimit="10"/>
<path d="M97.984 85.1875C95.5729 84.8255 92.6741 85.3168 89.2132 86.4224C78.2955 95.5445 71.2044 109.748 66.0503 126.544" stroke="#23485F" stroke-width="1.3" stroke-miterlimit="10"/>
<path d="M11.6465 108.609C15.4024 133.049 8.30932 162.806 16.3774 185.953" stroke="#23485F" stroke-width="1.3" stroke-miterlimit="10"/>
<path d="M10.8538 95.158C10.8538 95.158 3.48934 121.864 12.8261 141.116" stroke="#23485F" stroke-width="1.3" stroke-miterlimit="10"/>
<path d="M36.4808 79.465C28.9854 95.3059 24.5984 112.25 22.2881 129.907" stroke="#23485F" stroke-width="1.3" stroke-miterlimit="10"/>
<path d="M33.1184 143.358C30.9085 163.596 25.3668 178.749 15.6364 187.531C10.4619 190.992 18.9479 194.227 22.7557 197.539C29.365 199.676 43.3655 201.196 47.1257 194.98" stroke="#23485F" stroke-width="1.3" stroke-miterlimit="10"/>
<path d="M15.1929 190.438C34.4819 194.927 49.1001 187.601 66.0502 192.68" stroke="#23485F" stroke-width="1.3" stroke-miterlimit="10"/>
<path d="M35.2974 180.811C54.6016 186.804 69.4163 185.844 88.4335 193.053C94.9662 195.583 104.69 191.562 102.36 182.854C100.911 174.543 96.777 171.316 91.037 168.018" stroke="#23485F" stroke-width="1.3" stroke-miterlimit="10"/>
<path d="M94.4312 165.777L95.6139 170.261" stroke="#23485F" stroke-width="1.3" stroke-miterlimit="10"/>
<path d="M54.2202 106.367C64.153 120.433 61.628 133.811 83.7884 146.72" stroke="#23485F" stroke-width="1.3" stroke-miterlimit="10"/>
<path d="M84.9742 153.446C84.9742 153.446 83.9435 164.318 63.6851 173.623" stroke="#23485F" stroke-width="1.3" stroke-miterlimit="10"/>
<path d="M99.1673 178.106C87.6959 169.786 87.6959 167.221 69.5991 174.65" stroke="#23485F" stroke-width="1.3" stroke-miterlimit="10"/>
<path d="M3.50082 128.786C2.69246 137.447 3.09345 146.025 1.06301 154.775C1.06301 154.775 -0.152717 167.3 8.09637 173.623" stroke="#23485F" stroke-width="1.3" stroke-miterlimit="10"/>
<path d="M8.09615 190.437L3.36523 169.139" stroke="#23485F" stroke-width="1.3" stroke-miterlimit="10"/>
<path d="M87.3407 192.679C60.566 201.119 55.9211 195.159 46.3236 194.599L42.397 196.292" stroke="#23485F" stroke-width="1.3" stroke-miterlimit="10"/>
<path d="M132.282 159.584C138.997 162.327 142.63 154.646 135.462 153.446" stroke="#23485F" stroke-width="1.3" stroke-miterlimit="10"/>
<path d="M286.038 80.5853C299.779 88.1903 308.98 95.66 315.018 103.027C323.677 119.454 319.946 130.581 322.407 144.355C323.564 157.157 326.158 172.959 327.348 185.819C327.963 192.451 325.068 199.657 324.547 203.888" stroke="#23485F" stroke-width="1.3" stroke-miterlimit="10"/>
<path d="M315.605 102.734C309.794 100.005 306.008 103.453 295.499 118.697" stroke="#23485F" stroke-width="1.3" stroke-miterlimit="10"/>
<path d="M283.673 83.949C283.673 83.949 307.173 97.6591 309.693 101.884" stroke="#23485F" stroke-width="1.3" stroke-miterlimit="10"/>
<path d="M251.739 86.1898C252.186 88.7169 254.341 92.3524 254.341 94.6023L259.685 96.2782C262.218 93.9029 264.288 93.9029 267.114 91.0921" stroke="#23485F" stroke-width="1.3" stroke-miterlimit="10"/>
<path d="M260.053 96.5257C265.375 115.126 260.506 119.152 256.191 176.471L244.411 184.832L236.364 174C244.695 107.765 253.284 99.7581 255.759 95.158" stroke="#23485F" stroke-width="1.3" stroke-miterlimit="10"/>
<path d="M237.934 143.358C233.816 154.581 233.378 164.325 234.589 173.402C234.151 177.584 233.96 181.53 234.302 184.946C237.695 187.76 244.323 190.443 259.373 190.017C268.081 190.979 276.591 190.148 285.34 188.925C285.867 188.853 287.878 188.519 288.405 188.44" stroke="#23485F" stroke-width="1.3" stroke-miterlimit="10"/>
<path d="M299.046 184.832C297.949 187.175 296.946 188.309 296.045 188.186C287.894 188.063 280.706 186.036 273.026 184.955" stroke="#23485F" stroke-width="1.3" stroke-miterlimit="10"/>
<path d="M294.166 142.236C290.934 163.428 295.752 177.133 302.407 189.12C302.407 189.12 303.707 190.33 299.515 201.646" stroke="#23485F" stroke-width="1.3" stroke-miterlimit="10"/>
<path d="M295.946 147.841C293.699 142.575 292.085 136.781 293.956 128.028C294.92 123.932 296.884 120.813 297.867 115.334" stroke="#23485F" stroke-width="1.3" stroke-miterlimit="10"/>
<path d="M296.684 109.73C296.684 109.73 292.185 123.482 293.319 128.786" stroke="#23485F" stroke-width="1.3" stroke-miterlimit="10"/>
<path d="M281.762 71.6184C280.239 77.2148 270.323 80.4916 262.383 85.5418L274.138 98.5207C278.105 92.5581 283.903 85.953 286.037 80.633C283.372 76.9899 282.251 74.227 281.762 71.6184Z" stroke="#23485F" stroke-width="1.3" stroke-miterlimit="10"/>
<path d="M258.834 86.9585C256.169 85.3717 253.632 82.4961 251.949 79.465C249.355 84.1411 248.08 89.7046 244.641 95.158C248.445 91.9909 250.43 87.8652 253.618 85.5207L256.212 86.6282" stroke="#23485F" stroke-width="1.3" stroke-miterlimit="10"/>
<path d="M250.556 81.7069C240.729 85.9525 234.713 90.9219 225.264 95.594C213.69 107.846 203.857 122.082 195.5 137.96C195.298 138.354 195.176 139.601 194.967 139.995" stroke="#23485F" stroke-width="1.3" stroke-miterlimit="10"/>
<path d="M225.334 96.2795C225.334 96.2795 222.743 106.153 226.902 111.973" stroke="#23485F" stroke-width="1.3" stroke-miterlimit="10"/>
<path d="M236.36 94.0375C227.697 107.028 220.907 112.344 230.116 137.754" stroke="#23485F" stroke-width="1.3" stroke-miterlimit="10"/>
<path d="M232.533 111.972C230.054 126.383 229.366 138.316 232.814 144.479" stroke="#23485F" stroke-width="1.3" stroke-miterlimit="10"/>
<path d="M235.181 132.148C232.078 143.705 232.228 152.323 234.468 159.051" stroke="#23485F" stroke-width="1.3" stroke-miterlimit="10"/>
<path d="M217.441 107.488C217.441 107.488 217.863 118.089 226.903 124.302" stroke="#23485F" stroke-width="1.3" stroke-miterlimit="10"/>
<path d="M231.634 142.236C220.998 158.737 209.617 163.693 189.056 154.421" stroke="#23485F" stroke-width="1.3" stroke-miterlimit="10"/>
<path d="M170.133 154.567C178.116 148.283 185.945 143.688 193.295 143.358C202.585 143.898 212.17 148.766 222.173 144.438" stroke="#23485F" stroke-width="1.3" stroke-miterlimit="10"/>
<path d="M209.16 139.895C199.88 138.016 192.903 138.492 190.237 143.358" stroke="#23485F" stroke-width="1.3" stroke-miterlimit="10"/>
<path d="M177.226 137.753C178.429 139.18 181.72 143.973 177.52 148.963" stroke="#23485F" stroke-width="1.3" stroke-miterlimit="10"/>
<path d="M192.601 142.237C192.601 142.237 192.336 140.48 191.864 139.87C191.349 139.662 177.226 137.753 177.226 137.753" stroke="#23485F" stroke-width="1.3" stroke-miterlimit="10"/>
<path d="M191.418 139.995H194.967" stroke="#23485F" stroke-width="1.3" stroke-miterlimit="10"/>
<path d="M196.151 165.77C201.508 165.908 200.44 163.482 207.978 159.05" stroke="#23485F" stroke-width="1.3" stroke-miterlimit="10"/>
<path d="M174.863 171.324C174.863 171.324 189.89 172.459 197.335 164.656" stroke="#23485F" stroke-width="1.3" stroke-miterlimit="10"/>
<path d="M225.716 96.2792L249.37 85.0699" stroke="#23485F" stroke-width="1.3" stroke-miterlimit="10"/>
<path d="M284.854 117.576C284.854 117.576 289.653 139.781 294.316 142.237" stroke="#23485F" stroke-width="1.3" stroke-miterlimit="10"/>
<path d="M188.96 64.8936C190.608 67.5159 184.904 72.2205 174.863 78.1615C179.076 80.3804 181.935 83.5103 185.471 86.1912C187.647 80.517 192.886 76.2289 192.592 71.1143L188.96 64.8936Z" stroke="#23485F" stroke-width="1.3" stroke-miterlimit="10"/>
<path d="M165.815 67.135C165.417 70.571 165.96 72.2084 174.86 78.2359C169.748 79.8861 167.936 82.8064 164.216 86.1908C162.899 80.0215 162.899 78.2359 163.187 73.1689L165.815 67.135Z" stroke="#23485F" stroke-width="1.3" stroke-miterlimit="10"/>
<path d="M180.774 81.9919L175.228 86.1906L170.873 85.8987L168.947 81.7069" stroke="#23485F" stroke-width="1.3" stroke-miterlimit="10"/>
<path d="M174.863 86.1898C176.767 94.3695 178.167 99.28 176.456 137.753" stroke="#23485F" stroke-width="1.3" stroke-miterlimit="10"/>
<path d="M170.131 86.1898C165.23 93.7887 162.666 110.004 161.086 129.827M159.6 154.509C159.547 155.5 159.526 156.932 159.486 157.929" stroke="#23485F" stroke-width="1.3" stroke-miterlimit="10"/>
<path d="M192.602 71.6184C200.997 75.8854 210.298 77.7461 217.806 84.4321C221.486 86.6201 222.013 91.24 223.353 97.3998" stroke="#23485F" stroke-width="1.3" stroke-miterlimit="10"/>
<path d="M163.033 73.8599C154.343 78.2637 138.83 81.7574 136.962 87.0779C132.782 91.6677 127.577 104.405 121.638 123.181" stroke="#23485F" stroke-width="1.3" stroke-miterlimit="10"/>
<path d="M142.693 91.7949C140.81 110.533 141.196 115.224 148.841 136.632" stroke="#23485F" stroke-width="1.3" stroke-miterlimit="10"/>
<path d="M137.012 87.3114C137.012 87.3114 138.482 92.4478 141.743 98.5207" stroke="#23485F" stroke-width="1.3" stroke-miterlimit="10"/>
<path d="M163.032 76.1025C163.032 76.1025 140.887 82.9844 137.012 87.3118" stroke="#23485F" stroke-width="1.3" stroke-miterlimit="10"/>
<path d="M210.343 86.1898C210.343 86.1898 206.008 113.387 204.43 122.06" stroke="#23485F" stroke-width="1.3" stroke-miterlimit="10"/>
<path d="M220.987 85.6525C219.156 85.0004 217.729 84.9735 216.828 85.1954C216.828 85.1954 211.579 90.5404 207.977 98.5211" stroke="#23485F" stroke-width="1.3" stroke-miterlimit="10"/>
<path d="M191.418 74.9808C200.609 79.5863 212.056 81.8361 216.256 86.1901" stroke="#23485F" stroke-width="1.3" stroke-miterlimit="10"/>
<path d="M204.369 160.781L212.129 160.172L212.708 165.377L194.967 166.897" stroke="#23485F" stroke-width="1.3" stroke-miterlimit="10"/>
<path d="M207.977 165.777C210.069 172.327 213.572 179.336 212.512 206.13" stroke="#23485F" stroke-width="1.3" stroke-miterlimit="10"/>
<path d="M204.43 165.777C204.43 165.777 211.822 177.156 211.517 197.163" stroke="#23485F" stroke-width="1.3" stroke-miterlimit="10"/>
<path d="M140.522 183.712C140.729 187.273 141.115 190.229 141.742 192.893C139.759 197.967 137.805 204.993 135.829 213.977" stroke="#23485F" stroke-width="1.3" stroke-miterlimit="10"/>
<path d="M150.509 136.632C146.655 140.314 146.54 149.943 151.207 150.083" stroke="#23485F" stroke-width="1.3" stroke-miterlimit="10"/>
<path d="M150.418 136.632H145.71C140.467 137.851 140.467 151.473 145.451 151.2L151.206 149.448" stroke="#23485F" stroke-width="1.3" stroke-miterlimit="10"/>
<path d="M178.41 139.053C174.915 137.409 173.744 133.064 169.472 131.761L162.108 129.728C160.589 129.585 157.982 127.995 157.545 129.291C156.991 131.42 159.3 133.146 164.167 134.517C165.887 135.022 167.115 135.677 167.558 136.543C167.135 137.3 166.906 137.996 166.234 138.433C166.234 138.433 164.022 139.012 159.75 138.576C155.479 138.139 153.863 136.106 153.863 136.106C153.073 134.858 152.185 135.26 151.208 136.829C151.499 140.165 152.005 141.011 159.75 143.358" stroke="#23485F" stroke-width="1.3" stroke-miterlimit="10"/>
<path d="M171.315 153.391C167.54 153.65 163.857 155.317 159.992 154.167H155.847C155.847 154.167 152.528 151.704 152.391 148.962" stroke="#23485F" stroke-width="1.3" stroke-miterlimit="10"/>
<path d="M159.486 134.39H165.4" stroke="#23485F" stroke-width="1.3" stroke-miterlimit="10"/>
<path d="M154.913 136.632C154.913 136.632 153.448 135.726 159.487 132.148" stroke="#23485F" stroke-width="1.3" stroke-miterlimit="10"/>
<path d="M168.325 132.149C170.002 130.448 170.522 128.332 169.834 126.902C169.539 126.575 169.195 126.335 168.43 126.814C166.963 127.733 165.468 128.348 163.033 130.464" stroke="#23485F" stroke-width="1.3" stroke-miterlimit="10"/>
<path d="M160.669 143.358C157.846 143.358 155.317 142.331 152.633 141.824C152.633 141.824 150.594 139.987 151.393 138.874" stroke="#23485F" stroke-width="1.3" stroke-miterlimit="10"/>
<path d="M151.03 137.753C149.475 137.845 148.232 140.894 149.157 142.287C149.779 144.544 151.521 145.846 154.225 146.317C156.373 146.821 158.527 146.874 160.667 147.842" stroke="#23485F" stroke-width="1.3" stroke-miterlimit="10"/>
<path d="M97.9839 191.558L97.427 197.163C97.427 197.163 96.5849 194.159 82.6084 193.825" stroke="#23485F" stroke-width="1.3" stroke-miterlimit="10"/>
<path d="M96.7988 229.67C110.975 209.128 100.016 207.691 97.1504 196.042" stroke="#23485F" stroke-width="1.3" stroke-miterlimit="10"/>
<path d="M90.8872 197.163C90.8872 197.163 92.6985 220.415 96.8009 229.67" stroke="#23485F" stroke-width="1.3" stroke-miterlimit="10"/>
<path d="M43.9091 210.584C53.3471 208.872 64.9831 208.047 79.7295 208.49C80.6753 209.228 80.1957 210.178 79.2566 210.166C67.7672 209.503 56.1046 210.016 44.2688 211.735C43.6161 211.635 43.2897 211.116 43.9091 210.584Z" stroke="#23485F" stroke-width="1.3" stroke-miterlimit="10"/>
<path d="M60.1404 211.735C60.7891 211.735 61.3181 212.494 61.3181 213.416C61.3181 214.347 60.7891 215.098 60.1404 215.098C59.4816 215.098 58.9526 214.339 58.9526 213.416C58.9526 212.494 59.4816 211.735 60.1404 211.735Z" stroke="#23485F" stroke-width="1.3" stroke-miterlimit="10"/>
<path d="M18.7369 194.921C10.6972 206.596 12.4098 223.082 14.87 236.395" stroke="#23485F" stroke-width="1.3" stroke-miterlimit="10"/>
<path d="M19.9229 203.889C19.9229 203.889 31.2695 213.4 45.9429 207.643" stroke="#23485F" stroke-width="1.3" stroke-miterlimit="10"/>
<path d="M24.6553 202.767C24.6553 202.767 34.1459 209.034 45.9444 204.458" stroke="#23485F" stroke-width="1.3" stroke-miterlimit="10"/>
<path d="M98.8692 17.6129C103.216 16.3005 107.33 16.5541 110.993 17.391C109.77 14.5506 108.177 11.9004 106.093 9.4975C90.7024 -1.87678 63.9808 -1.81337 59.3131 9.57359C53.2717 11.8878 49.4787 27.5163 51.0164 40.2727C59.1969 46.2135 72.8105 38.2502 72.8105 38.2502C72.8105 38.2502 76.7812 33.1654 78.6674 31.3584" stroke="#23485F" stroke-width="1.3" stroke-miterlimit="10"/>
<path d="M104.397 16.6924L107.446 20.3409C105.09 19.7675 102.304 21.2399 99.7823 22.8948L97.8349 28.0222C97.5642 31.3384 91.6033 33.6448 90.9233 39.111L86.1572 31.8727" stroke="#23485F" stroke-width="1.3" stroke-miterlimit="10"/>
<path d="M102.916 21.1764C105.342 26.9436 102.531 32.2551 102.345 37.7814C100.849 38.569 98.9416 38.9335 98.4231 40.9449C100.151 49.0944 101.501 50.93 99.4201 51.8673C98.7355 52.1733 96.4623 52.017 96.1233 52.694L95.6581 55.2977C94.8538 56.4238 94.0495 56.3522 93.232 56.8729C93.8568 57.5759 93.9565 58.4091 93.5843 59.3594L91.3908 60.7198C90.5866 62.7507 90.9256 65.6864 88.9648 66.819C86.2462 67.6066 82.4775 66.8906 77.8779 64.9964" stroke="#23485F" stroke-width="1.3" stroke-miterlimit="10"/>
<path d="M86.157 32.5711C85.1504 25.9237 78.2199 29.4078 77.8779 36.5016C78.0328 43.6521 79.5105 46.2872 82.466 43.8031" stroke="#23485F" stroke-width="1.3" stroke-miterlimit="10"/>
<path d="M78.6749 46.9585C77.4391 53.9707 80.6899 58.1197 77.8779 64.8934" stroke="#23485F" stroke-width="1.3" stroke-miterlimit="10"/>
<path d="M50.6738 48.0791L53.0393 42.4745" stroke="#23485F" stroke-width="1.3" stroke-miterlimit="10"/>
<path d="M163.234 33.5063L162.062 42.0586C161.036 55.6325 163.848 62.0806 168.747 66.7473C170.233 68.1221 173.932 68.8063 178.084 67.7154C185.649 66.0631 186.744 60.9446 189.054 54.9548" stroke="#23485F" stroke-width="1.3" stroke-miterlimit="10"/>
<path d="M170.536 45.8375C170.194 50.3182 166.699 52.5314 171.312 54.805" stroke="#23485F" stroke-width="1.3" stroke-miterlimit="10"/>
<path d="M191.926 44.1134C194.966 42.2356 195.52 45.813 194.503 49.2465C192.428 54.1946 191.006 56.0313 189.056 53.9753" stroke="#23485F" stroke-width="1.3" stroke-miterlimit="10"/>
<path d="M193.331 43.596C193.793 39.6755 194.165 35.4812 193.062 31.4799C185.161 20.3719 168.448 21.3116 160.87 30.8202C160.257 33.2721 161.18 40.1671 161.718 44.7161" stroke="#23485F" stroke-width="1.3" stroke-miterlimit="10"/>
<path d="M163.033 33.7387C166.342 33.625 166.329 34.1494 171.475 34.1431C176.224 34.2505 180.774 33.0058 186.619 33.7387C185.666 39.0081 186.132 40.0443 187.852 41.1437C187.708 43.9932 187.852 46.9122 188.606 49.1994C188.606 49.1994 189.641 44.5302 192.601 44.0627" stroke="#23485F" stroke-width="1.3" stroke-miterlimit="10"/>
<path d="M190.238 53.684C190.238 53.684 186.437 61.7377 188.47 68.256" stroke="#23485F" stroke-width="1.3" stroke-miterlimit="10"/>
<path d="M252.881 35.749C249.936 39.7072 248.675 43.9416 246.146 48.0347L247.137 51.4466C242.363 59.3629 245.73 63.1925 246.707 69.3353C246.866 74.6107 246.74 77.6371 250.214 78.2154C265.645 79.1664 270.558 74.8035 274.209 66.8743" stroke="#23485F" stroke-width="1.3" stroke-miterlimit="10"/>
<path d="M250.556 50.3204C249.709 54.1995 244.339 58.9166 246.223 62.0996C246.223 62.0996 246.925 62.9579 249.151 62.5321" stroke="#23485F" stroke-width="1.3" stroke-miterlimit="10"/>
<path d="M281.912 68.2558C288.357 60.4648 293.47 46.5509 289.197 38.3072C279.914 24.8394 273.282 28.958 262.383 25.6605" stroke="#23485F" stroke-width="1.3" stroke-miterlimit="10"/>
<path d="M265.931 29.0233L262.383 25.6605" stroke="#23485F" stroke-width="1.3" stroke-miterlimit="10"/>
<path d="M264.53 27.902C257.774 28.1728 253.631 31.739 248.188 33.6543L252.543 35.9887C258.205 36.1241 256.756 38.4586 270.992 38.8713C270.849 42.2956 267.505 43.94 267.218 47.0934C268.667 49.2925 270.507 49.6536 272.155 50.9304L274.192 59.288C274.192 59.288 277.666 53.4003 281.304 52.8522" stroke="#23485F" stroke-width="1.3" stroke-miterlimit="10"/>
<path d="M281.205 52.5966C286.498 52.0747 288.117 57.7243 282.624 63.4001C282.624 63.4001 278.699 67.4318 275.394 65.4812" stroke="#23485F" stroke-width="1.3" stroke-miterlimit="10"/>
<path d="M154.968 187.074C161.194 177.782 162.325 169.594 158.339 162.521C158.339 162.521 154.237 161.294 145.293 160.172" stroke="#23485F" stroke-width="1.3" stroke-miterlimit="10"/>
<path d="M139.377 154.567C151.408 163.358 156.049 170.176 152.306 174.744" stroke="#23485F" stroke-width="1.3" stroke-miterlimit="10"/>
<path d="M159.637 164.656C163.452 167.271 165.402 168.653 165.402 172.651C165.402 172.651 164.072 186.271 155.94 184.708" stroke="#23485F" stroke-width="1.3" stroke-miterlimit="10"/>
<path d="M175.308 171.381C175.859 170.428 177.766 167.493 178.175 164.876C179.108 160.981 177.403 156.912 170.252 154.567L164.216 156.614C169.641 157.573 169.5 160.884 170.924 162.115C170.924 162.115 171.495 163.91 170.353 165.556" stroke="#23485F" stroke-width="1.3" stroke-miterlimit="10"/>
<path d="M163.737 156.814C163.737 156.814 160.151 156.553 159.599 159.855C159.047 163.15 160.697 165.134 160.697 165.134C162.042 166.172 164.283 165.923 164.984 164.605C165.536 163.144 165.257 161.695 165.4 160.246" stroke="#23485F" stroke-width="1.3" stroke-miterlimit="10"/>
<path d="M152.391 161.293C152.391 161.293 154.626 153.668 160.67 158.305" stroke="#23485F" stroke-width="1.3" stroke-miterlimit="10"/>
<path d="M165.524 163.535C170.545 166.93 175.769 166.123 174.728 175.723C173.835 177.204 172.535 177.522 171.438 178.425L170.692 180.853L168.597 182.481C167.085 185.647 166.881 186.601 161.136 187.071C158.872 187.147 158.295 185.857 157.121 184.922" stroke="#23485F" stroke-width="1.3" stroke-miterlimit="10"/>
<path d="M131.098 133.27C131.098 133.27 123.422 134.587 122.819 137.754" stroke="#23485F" stroke-width="1.3" stroke-miterlimit="10"/>
<path d="M134.649 134.657C138.195 135.31 140.887 132.665 145.294 136.632" stroke="#23485F" stroke-width="1.3" stroke-miterlimit="10"/>
<path d="M147.658 151.204L144.748 154.115C144.748 154.115 143.763 155.176 138.196 154.047" stroke="#23485F" stroke-width="1.3" stroke-miterlimit="10"/>
<path d="M137.012 143.358C137.012 143.358 137.012 152.145 144.109 153.446" stroke="#23485F" stroke-width="1.3" stroke-miterlimit="10"/>
<path d="M121.638 123.181C122.424 127.72 129.848 131.141 135.83 133.27" stroke="#23485F" stroke-width="1.3" stroke-miterlimit="10"/>
<path d="M122.82 136.632C122.82 136.632 120.857 127.997 121.99 125.423" stroke="#23485F" stroke-width="1.3" stroke-miterlimit="10"/>
<path d="M146.476 153.446L145.293 160.171" stroke="#23485F" stroke-width="1.3" stroke-miterlimit="10"/>
<path d="M171.959 177.614C171.218 184.513 170.907 187.954 172.162 193.799C172.162 193.799 177.224 193.673 177.887 191.781C178.557 189.896 178.581 176.548 177.957 171.381" stroke="#23485F" stroke-width="1.3" stroke-miterlimit="10"/>
<path d="M144.11 196.847C144.11 196.847 147.655 200.563 158.303 196.042" stroke="#23485F" stroke-width="1.3" stroke-miterlimit="10"/>
<path d="M180.774 194.921C180.774 194.921 189.467 192.278 197.333 183.712" stroke="#23485F" stroke-width="1.3" stroke-miterlimit="10"/>
<path d="M158.3 189.316C158.3 189.316 166.517 194.095 171.31 193.786" stroke="#23485F" stroke-width="1.3" stroke-miterlimit="10"/>
<path d="M172.496 193.801C172.496 193.801 173.844 200.928 176.044 205.01" stroke="#23485F" stroke-width="1.3" stroke-miterlimit="10"/>
<path d="M249.376 198.024C252.149 198.17 255.085 198.253 258.076 198.284M260.127 198.284C274.065 198.284 288.931 197.006 295.75 194.355C295.75 194.355 299.409 192.931 300.233 190.438" stroke="#23485F" stroke-width="1.3" stroke-miterlimit="10"/>
<path d="M250.555 191.471C252.258 191.525 254.467 191.552 257.013 191.552M259.269 191.559C270.649 191.498 287.027 190.825 295.498 188.196" stroke="#23485F" stroke-width="1.3" stroke-miterlimit="10"/>
<path d="M299.049 187.074L300.155 190.784L301.415 192.679" stroke="#23485F" stroke-width="1.3" stroke-miterlimit="10"/>
<path d="M238.729 188.196L241.095 190.438" stroke="#23485F" stroke-width="1.3" stroke-miterlimit="10"/>
<path d="M236.364 194.921C235.802 195.965 234.65 198.387 233.999 201.646" stroke="#23485F" stroke-width="1.3" stroke-miterlimit="10"/>
<path d="M240.964 189.316L250.053 190.86C251.119 191.981 250.478 198.705 248.274 199.405L247.057 199.167C244.918 198.371 242.109 197.284 240.517 197.202L239.451 197.059C238.054 196.081 238.753 191.118 240.964 189.316Z" stroke="#23485F" stroke-width="1.3" stroke-miterlimit="10"/>
<path d="M241.258 196.62C240.799 195.18 241.292 191.335 242.736 190.438L248.91 191.837C249.984 193.257 248.985 197.381 247.924 198.284" stroke="#23485F" stroke-width="1.3" stroke-miterlimit="10"/>
<path d="M241.092 196.042C241.092 196.042 243.426 197.154 248.189 198.284" stroke="#23485F" stroke-width="1.3" stroke-miterlimit="10"/>
<path d="M242.276 190.438C242.294 190.587 244.091 192.365 248.19 192.68" stroke="#23485F" stroke-width="1.3" stroke-miterlimit="10"/>
<path d="M236.438 185.954C234.695 189.312 234.835 192.507 236.421 195.957C236.804 196.325 237.732 195.419 237.417 194.836C236.174 192.264 236.022 189.503 237.546 186.446" stroke="#23485F" stroke-width="1.3" stroke-miterlimit="10"/>
<path d="M258.657 189.316C258.217 192.472 258.749 195.812 260.017 199.275L258.289 199.405C256.989 196.521 256.22 193.341 256.542 189.563" stroke="#23485F" stroke-width="1.3" stroke-miterlimit="10"/>
<path d="M238.731 187.074L238.349 188.47C238.349 188.47 237.043 191.598 237.766 194.921" stroke="#23485F" stroke-width="1.3" stroke-miterlimit="10"/>
<path d="M238.731 196.042L237.548 193.801" stroke="#23485F" stroke-width="1.3" stroke-miterlimit="10"/>
<path d="M310.875 101.883C310.875 101.883 318.713 114.23 319.154 134.39" stroke="#23485F" stroke-width="1.3" stroke-miterlimit="10"/>
<path d="M308.507 103.004C308.507 103.004 312.482 110.762 313.238 123.181" stroke="#23485F" stroke-width="1.3" stroke-miterlimit="10"/>
<path d="M310.874 136.632C307.844 163.137 303.005 174.639 295.499 164.186" stroke="#23485F" stroke-width="1.3" stroke-miterlimit="10"/>
<path d="M306.706 181.47C306.706 181.47 305.097 189.812 307.327 198.284" stroke="#23485F" stroke-width="1.3" stroke-miterlimit="10"/>
<path d="M260.015 154.567C260.015 154.567 262.177 165.143 284.852 179.227" stroke="#23485F" stroke-width="1.3" stroke-miterlimit="10"/>
<path d="M252.922 86.1898C252.922 86.1898 260.969 86.1898 263.567 86.1898" stroke="#23485F" stroke-width="1.3" stroke-miterlimit="10"/>
<path d="M283.671 61.5299C283.671 61.5299 281.306 67.8908 281.306 71.6183" stroke="#23485F" stroke-width="1.3" stroke-miterlimit="10"/>
<path d="M159.491 181.47C158.83 181.47 158.3 181.972 158.3 182.598C158.3 183.21 158.83 183.712 159.491 183.712C160.145 183.712 160.666 183.21 160.666 182.598C160.666 181.972 160.145 181.47 159.491 181.47Z" stroke="#23485F" stroke-width="1.3" stroke-miterlimit="10"/>
<path d="M207.977 159.05V161.292" stroke="#23485F" stroke-width="1.3" stroke-miterlimit="10"/>
<path d="M165.4 162.813C164.373 162.056 161.673 162.398 161.861 163.656C162.291 164.427 162.86 164.727 163.492 164.642C164.192 164.484 164.782 164.149 165.4 162.813Z" stroke="#23485F" stroke-width="1.3" stroke-miterlimit="10"/>
<path d="M154.756 185.954C155.452 188.886 157.582 188.944 159.487 186.118" stroke="#23485F" stroke-width="1.3" stroke-miterlimit="10"/>
</svg>
